<svg version="1.1" xmlns="http://www.w3.org/2000/svg" viewBox="0 0 290.5995440621982 144.70400675155534" width="290.5995440621982" height="144.70400675155534">
  <!-- svg-source:excalidraw -->
  
  <defs>
    <style class="style-fonts">
      @font-face {
        font-family: "Virgil";
        src: url("https://excalidraw.com/Virgil.woff2");
      }
      @font-face {
        font-family: "Cascadia";
        src: url("https://excalidraw.com/Cascadia.woff2");
      }
    </style>
  </defs>
  <g transform="translate(42.60235470628868 62.16376753006236) rotate(0 -7.3355298089145435 26.08188376503118)" stroke="none"><path fill="#2b8a3e" d="M -1.05,2.10 Q -1.05,2.10 -2.86,1.05 -4.67,0.00 -6.17,-0.32 -7.67,-0.66 -9.03,-0.78 -10.38,-0.90 -11.65,-1.24 -12.91,-1.58 -14.97,-1.32 -17.02,-1.07 -18.51,-0.79 -20.00,-0.50 -21.30,-0.14 -22.59,0.21 -23.83,0.60 -25.07,0.99 -26.12,1.55 -27.17,2.11 -28.39,3.14 -29.62,4.17 -29.67,6.21 -29.72,8.24 -28.71,10.33 -27.70,12.42 -25.55,14.11 -23.39,15.80 -22.05,16.47 -20.70,17.14 -19.10,17.68 -17.50,18.22 -15.34,19.05 -13.18,19.87 -11.88,20.09 -10.58,20.32 -9.21,20.65 -7.84,20.98 -6.54,21.34 -5.25,21.70 -2.20,22.68 0.83,23.66 2.75,24.08 4.67,24.51 6.79,25.23 8.91,25.95 10.15,26.41 11.39,26.87 12.54,27.58 13.69,28.30 14.95,29.67 16.22,31.03 16.86,31.90 17.50,32.76 18.23,34.45 18.96,36.13 19.36,37.22 19.77,38.32 19.88,40.64 20.00,42.97 19.59,44.58 19.19,46.18 18.45,47.14 17.72,48.11 16.69,49.15 15.66,50.19 13.05,52.11 10.44,54.04 7.97,54.80 5.49,55.57 4.49,56.11 3.49,56.66 2.23,57.20 0.98,57.74 -0.45,58.04 -1.89,58.34 -3.71,58.40 -5.54,58.46 -6.99,58.51 -8.44,58.56 -10.59,58.23 -12.75,57.89 -14.03,57.84 -15.32,57.79 -16.58,57.54 -17.83,57.28 -19.22,56.64 -20.60,55.99 -22.69,54.90 -24.79,53.82 -25.76,53.29 -26.73,52.75 -28.11,51.46 -29.49,50.17 -30.72,48.34 -31.96,46.52 -31.99,46.08 -32.02,45.63 -31.91,45.20 -31.80,44.77 -31.55,44.40 -31.31,44.02 -30.96,43.75 -30.61,43.47 -30.19,43.32 -29.77,43.17 -29.33,43.17 -28.88,43.16 -28.46,43.29 -28.03,43.43 -27.67,43.69 -27.32,43.95 -27.06,44.32 -26.80,44.68 -26.68,45.11 -26.55,45.53 -26.57,45.98 -26.58,46.42 -26.74,46.84 -26.90,47.26 -27.18,47.60 -27.46,47.95 -27.84,48.18 -28.22,48.42 -28.65,48.52 -29.08,48.62 -29.52,48.58 -29.97,48.54 -30.38,48.36 -30.78,48.18 -31.11,47.88 -31.44,47.58 -31.66,47.19 -31.87,46.80 -31.95,46.37 -32.03,45.93 -31.97,45.49 -31.90,45.05 -31.70,44.65 -31.50,44.25 -31.18,43.94 -30.86,43.63 -30.46,43.44 -30.06,43.24 -29.62,43.19 -29.18,43.13 -28.74,43.22 -28.31,43.31 -27.92,43.53 -27.54,43.75 -27.24,44.09 -26.95,44.42 -26.78,44.83 -26.60,45.24 -26.60,45.24 -26.60,45.24 -26.12,45.80 -25.63,46.36 -24.87,47.37 -24.10,48.38 -23.08,49.01 -22.06,49.63 -20.23,50.66 -18.40,51.69 -16.70,52.50 -14.99,53.32 -13.63,53.46 -12.28,53.59 -10.41,53.70 -8.55,53.80 -7.16,53.78 -5.77,53.76 -3.25,53.55 -0.73,53.34 0.37,52.94 1.48,52.54 2.75,51.98 4.02,51.42 5.78,50.68 7.55,49.94 9.57,48.12 11.59,46.30 12.46,45.35 13.33,44.40 14.03,43.24 14.72,42.09 14.86,41.00 14.99,39.92 14.39,37.87 13.79,35.83 13.46,34.81 13.12,33.80 11.46,32.06 9.80,30.33 8.85,29.78 7.89,29.24 5.95,28.71 4.00,28.19 1.87,27.87 -0.25,27.56 -3.42,26.81 -6.60,26.05 -7.81,25.63 -9.02,25.22 -10.24,24.83 -11.45,24.44 -12.93,24.08 -14.41,23.71 -16.60,23.14 -18.78,22.58 -20.78,22.05 -22.77,21.53 -24.37,20.80 -25.97,20.07 -28.14,18.95 -30.30,17.83 -31.93,15.82 -33.57,13.81 -34.19,12.93 -34.82,12.04 -35.06,9.99 -35.30,7.94 -35.22,6.69 -35.14,5.43 -34.87,4.06 -34.61,2.68 -33.92,1.50 -33.23,0.32 -31.34,-1.01 -29.45,-2.36 -28.00,-3.07 -26.55,-3.79 -25.23,-4.18 -23.90,-4.57 -22.47,-4.96 -21.03,-5.35 -19.42,-5.73 -17.80,-6.10 -16.11,-6.35 -14.43,-6.61 -13.06,-6.39 -11.70,-6.18 -10.75,-5.64 -9.80,-5.11 -8.28,-4.89 -6.75,-4.67 -4.79,-4.21 -2.82,-3.75 -0.88,-2.93 1.05,-2.10 1.28,-1.94 1.52,-1.79 1.71,-1.58 1.91,-1.37 2.04,-1.12 2.18,-0.87 2.25,-0.60 2.33,-0.32 2.33,-0.04 2.34,0.23 2.27,0.51 2.21,0.79 2.08,1.04 1.96,1.29 1.77,1.51 1.59,1.73 1.36,1.89 1.13,2.06 0.87,2.16 0.60,2.27 0.32,2.31 0.04,2.35 -0.23,2.32 -0.51,2.29 -0.78,2.20 -1.05,2.10 -1.05,2.10 L -1.05,2.10 Z"></path></g><g transform="translate(68.68423847131999 130.6287124132692) rotate(0 2.4451766029715145 -51.348708662405116)" stroke="none"><path fill="#2b8a3e" d="M 1.35,-2.25 Q 1.35,-2.25 2.52,-1.54 3.68,-0.84 5.56,-0.03 7.44,0.77 8.88,0.96 10.32,1.15 11.60,0.01 12.89,-1.12 14.08,-2.60 15.28,-4.08 15.86,-5.40 16.45,-6.73 16.36,-7.80 16.27,-8.87 16.57,-10.83 16.87,-12.78 16.96,-14.05 17.06,-15.33 17.10,-17.09 17.13,-18.85 17.16,-19.99 17.18,-21.13 17.16,-22.39 17.13,-23.65 17.16,-24.82 17.19,-25.98 17.16,-27.26 17.13,-28.53 17.12,-29.74 17.11,-30.95 16.68,-32.10 16.25,-33.24 15.96,-34.43 15.67,-35.61 14.83,-36.97 13.98,-38.33 13.73,-39.37 13.48,-40.42 12.50,-41.33 11.52,-42.24 10.67,-43.86 9.83,-45.49 9.57,-46.60 9.31,-47.70 8.56,-49.02 7.82,-50.35 7.39,-51.99 6.97,-53.63 6.56,-54.85 6.14,-56.07 5.46,-57.75 4.78,-59.43 4.25,-60.97 3.72,-62.50 3.22,-63.87 2.72,-65.24 2.44,-66.65 2.15,-68.06 1.72,-69.69 1.29,-71.32 0.96,-72.82 0.64,-74.32 0.54,-75.48 0.45,-76.63 0.33,-77.70 0.22,-78.77 -0.30,-79.41 -0.83,-80.04 -0.82,-80.49 -0.82,-80.93 -0.70,-81.36 -0.59,-81.79 -0.38,-82.18 -0.17,-82.57 0.12,-82.89 0.42,-83.22 0.79,-83.47 1.16,-83.71 1.57,-83.86 1.99,-84.01 2.43,-84.06 2.87,-84.10 3.31,-84.04 3.75,-83.98 4.16,-83.82 4.57,-83.66 4.93,-83.40 5.30,-83.14 5.58,-82.80 5.87,-82.47 6.07,-82.07 6.27,-81.68 6.37,-81.25 6.47,-80.81 5.63,-79.17 4.78,-77.52 3.43,-76.93 2.08,-76.34 0.07,-76.02 -1.93,-75.70 -3.60,-75.64 -5.26,-75.59 -7.23,-76.08 -9.21,-76.58 -9.99,-77.42 -10.77,-78.26 -11.74,-78.95 -12.71,-79.64 -13.51,-80.51 -14.31,-81.39 -14.99,-82.29 -15.68,-83.20 -16.21,-84.84 -16.74,-86.48 -17.26,-88.00 -17.77,-89.52 -18.23,-90.80 -18.69,-92.09 -18.81,-93.30 -18.93,-94.51 -18.77,-96.17 -18.62,-97.83 -18.08,-98.83 -17.55,-99.83 -17.03,-101.07 -16.51,-102.32 -15.53,-103.10 -14.54,-103.88 -13.66,-104.70 -12.78,-105.51 -11.23,-106.69 -9.67,-107.88 -8.63,-108.56 -7.59,-109.24 -6.02,-109.69 -4.45,-110.15 -2.71,-110.22 -0.98,-110.30 0.79,-109.88 2.57,-109.46 4.15,-109.16 5.74,-108.86 7.81,-107.60 9.88,-106.35 11.69,-104.76 13.50,-103.17 14.20,-101.70 14.91,-100.23 15.17,-99.06 15.43,-97.89 15.55,-96.66 15.66,-95.43 15.97,-94.10 16.29,-92.77 15.73,-90.05 15.17,-87.34 14.87,-86.31 14.58,-85.27 13.95,-84.37 13.31,-83.47 12.66,-82.01 12.00,-80.56 11.08,-79.97 10.16,-79.38 7.87,-78.03 5.57,-76.67 5.01,-76.56 4.45,-76.45 3.89,-76.53 3.32,-76.60 2.81,-76.86 2.30,-77.11 1.90,-77.51 1.49,-77.92 1.24,-78.43 0.98,-78.94 0.91,-79.50 0.83,-80.07 0.94,-80.63 1.04,-81.19 1.32,-81.68 1.60,-82.18 2.03,-82.56 2.45,-82.94 2.97,-83.17 3.50,-83.39 4.07,-83.44 4.64,-83.49 5.19,-83.35 5.74,-83.21 6.22,-82.91 6.70,-82.60 7.06,-82.16 7.42,-81.71 7.62,-81.18 7.81,-80.64 7.83,-80.07 7.85,-79.50 7.68,-78.96 7.51,-78.41 7.18,-77.95 6.85,-77.48 6.38,-77.15 5.92,-76.82 5.38,-76.65 4.83,-76.48 4.26,-76.50 3.69,-76.51 3.16,-76.71 2.62,-76.90 2.18,-77.26 1.73,-77.62 1.42,-78.10 1.12,-78.58 0.98,-79.13 0.84,-79.69 0.89,-80.25 0.93,-80.82 1.16,-81.35 1.38,-81.87 1.76,-82.30 2.14,-82.72 2.64,-83.00 3.13,-83.28 3.13,-83.28 3.13,-83.28 5.21,-84.18 7.28,-85.09 7.87,-86.25 8.47,-87.41 8.72,-88.74 8.98,-90.07 9.16,-91.30 9.35,-92.53 8.98,-94.61 8.62,-96.68 8.48,-97.91 8.33,-99.14 7.00,-100.00 5.67,-100.85 4.26,-101.66 2.85,-102.47 0.96,-102.85 -0.92,-103.22 -2.52,-103.19 -4.13,-103.17 -5.42,-102.43 -6.70,-101.69 -7.87,-100.84 -9.05,-99.99 -10.18,-99.11 -11.32,-98.23 -11.65,-97.14 -11.98,-96.06 -12.02,-94.58 -12.06,-93.11 -11.52,-91.83 -10.97,-90.55 -10.48,-88.68 -10.00,-86.81 -9.01,-85.79 -8.01,-84.76 -6.73,-83.68 -5.44,-82.59 -4.00,-82.66 -2.57,-82.74 -1.07,-82.72 0.42,-82.69 -0.20,-81.37 -0.83,-80.04 -0.82,-80.49 -0.82,-80.93 -0.70,-81.36 -0.59,-81.79 -0.38,-82.18 -0.17,-82.57 0.12,-82.89 0.42,-83.22 0.79,-83.47 1.16,-83.71 1.57,-83.86 1.99,-84.01 2.43,-84.06 2.87,-84.10 3.31,-84.04 3.75,-83.98 4.16,-83.82 4.57,-83.66 4.93,-83.40 5.29,-83.14 5.58,-82.80 5.87,-82.47 6.07,-82.07 6.27,-81.68 6.37,-81.25 6.47,-80.81 6.63,-80.53 6.79,-80.24 7.24,-79.08 7.68,-77.91 7.78,-76.55 7.87,-75.18 8.16,-73.25 8.44,-71.32 8.96,-69.93 9.47,-68.55 9.78,-67.50 10.08,-66.46 10.45,-64.94 10.82,-63.41 11.67,-61.69 12.52,-59.97 13.10,-58.07 13.68,-56.17 14.09,-54.90 14.49,-53.64 14.66,-52.11 14.82,-50.57 15.67,-49.30 16.52,-48.02 17.28,-46.40 18.03,-44.78 18.85,-43.10 19.66,-41.42 20.31,-40.31 20.95,-39.19 21.62,-37.66 22.28,-36.13 22.55,-34.87 22.83,-33.61 23.23,-32.49 23.64,-31.38 23.62,-29.96 23.61,-28.53 23.58,-27.26 23.56,-25.98 23.58,-24.81 23.61,-23.64 23.58,-22.38 23.55,-21.11 23.57,-19.96 23.59,-18.81 23.57,-16.89 23.55,-14.97 23.36,-13.23 23.17,-11.49 22.97,-10.07 22.78,-8.65 22.64,-7.20 22.51,-5.75 22.00,-4.47 21.49,-3.19 20.59,-1.51 19.68,0.15 18.63,1.24 17.58,2.34 16.33,3.40 15.08,4.46 13.63,5.36 12.18,6.25 11.01,6.46 9.85,6.67 8.74,6.51 7.63,6.34 6.39,5.97 5.16,5.61 3.08,4.63 0.99,3.65 -0.17,2.95 -1.35,2.25 -1.60,2.06 -1.85,1.86 -2.05,1.61 -2.24,1.36 -2.37,1.07 -2.50,0.79 -2.56,0.47 -2.62,0.16 -2.60,-0.14 -2.58,-0.46 -2.49,-0.76 -2.40,-1.07 -2.23,-1.34 -2.07,-1.61 -1.85,-1.84 -1.62,-2.06 -1.35,-2.23 -1.08,-2.39 -0.78,-2.49 -0.48,-2.58 -0.16,-2.60 0.15,-2.62 0.46,-2.57 0.77,-2.51 1.06,-2.38 1.35,-2.25 1.35,-2.25 L 1.35,-2.25 Z"></path></g><g transform="translate(71.94447394194867 49.12282564754676) rotate(0 0.40752943382858575 -12.633412448686968)" stroke="none"><path fill="#2b8a3e" d="M 2.38,-1.19 Q 2.38,-1.19 2.87,-0.26 3.36,0.65 4.10,1.48 4.83,2.31 5.87,2.83 6.90,3.34 8.34,3.73 9.77,4.11 10.81,3.55 11.85,2.98 11.34,1.66 10.82,0.34 9.89,-0.03 8.96,-0.41 8.67,-0.71 8.39,-1.02 8.19,-1.38 7.99,-1.75 7.88,-2.15 7.77,-2.55 7.76,-2.97 7.75,-3.38 7.84,-3.79 7.93,-4.19 8.12,-4.57 8.30,-4.94 8.57,-5.26 8.84,-5.58 9.18,-5.82 9.52,-6.06 9.90,-6.22 10.29,-6.38 10.70,-6.43 11.11,-6.49 11.53,-6.45 11.94,-6.41 12.33,-6.27 12.73,-6.13 13.07,-5.90 13.42,-5.68 12.26,-6.11 11.09,-6.55 12.21,-6.60 13.33,-6.65 14.42,-6.64 15.50,-6.62 17.73,-6.89 19.96,-7.15 21.23,-7.32 22.49,-7.50 23.46,-8.01 24.43,-8.51 25.58,-8.90 26.73,-9.29 25.54,-9.43 24.36,-9.57 22.69,-9.92 21.03,-10.26 19.75,-10.34 18.48,-10.42 17.38,-10.47 16.29,-10.52 14.70,-10.67 13.11,-10.81 13.23,-10.88 13.35,-10.96 12.95,-11.01 12.55,-11.06 12.17,-11.21 11.79,-11.35 11.46,-11.59 11.13,-11.82 10.86,-12.12 10.60,-12.43 10.41,-12.79 10.23,-13.15 10.13,-13.54 10.04,-13.94 10.04,-14.34 10.04,-14.75 10.14,-15.14 10.24,-15.53 10.43,-15.89 10.62,-16.24 10.89,-16.55 11.17,-16.85 11.50,-17.07 11.83,-17.30 12.21,-17.44 12.59,-17.58 13.00,-17.63 13.40,-17.68 12.37,-17.19 11.34,-16.71 12.20,-18.41 13.07,-20.11 13.81,-20.90 14.54,-21.70 15.40,-22.91 16.27,-24.11 17.14,-25.05 18.01,-25.98 17.89,-27.25 17.76,-28.53 18.17,-27.54 18.57,-26.55 17.41,-26.60 16.25,-26.65 15.10,-26.28 13.95,-25.90 12.48,-25.54 11.02,-25.17 9.80,-24.40 8.57,-23.62 6.69,-23.72 4.80,-23.82 3.93,-24.62 3.05,-25.41 3.02,-27.30 2.99,-29.20 3.15,-30.60 3.30,-32.00 2.89,-33.54 2.48,-35.09 0.51,-35.59 -1.46,-36.09 -2.89,-36.17 -4.31,-36.25 -5.20,-34.45 -6.09,-32.65 -5.86,-31.35 -5.63,-30.04 -5.62,-29.59 -5.61,-29.13 -5.67,-28.73 -5.72,-28.33 -5.87,-27.96 -6.02,-27.59 -6.26,-27.26 -6.49,-26.93 -6.80,-26.67 -7.11,-26.41 -7.47,-26.23 -7.83,-26.05 -8.22,-25.96 -8.61,-25.87 -9.02,-25.88 -9.42,-25.88 -9.81,-25.99 -10.20,-26.09 -10.55,-26.29 -10.91,-26.48 -11.20,-26.75 -11.50,-27.03 -11.72,-27.36 -11.95,-27.70 -12.08,-28.08 -12.22,-28.46 -12.26,-28.86 -12.30,-29.26 -11.70,-28.35 -11.10,-27.44 -12.50,-27.48 -13.91,-27.51 -15.46,-27.93 -17.01,-28.34 -18.37,-28.48 -19.74,-28.62 -20.82,-28.31 -21.89,-28.01 -20.88,-26.66 -19.87,-25.32 -18.63,-24.58 -17.39,-23.85 -16.49,-21.98 -15.60,-20.11 -15.81,-19.01 -16.02,-17.91 -17.40,-17.01 -18.79,-16.11 -20.01,-15.29 -21.23,-14.47 -22.19,-13.92 -23.16,-13.38 -24.41,-12.64 -25.67,-11.89 -24.24,-11.41 -22.82,-10.92 -21.07,-10.64 -19.32,-10.36 -18.14,-9.08 -16.96,-7.80 -16.90,-6.34 -16.85,-4.88 -17.22,-3.54 -17.60,-2.20 -17.64,-0.96 -17.68,0.27 -17.68,1.76 -17.68,3.26 -16.85,4.53 -16.02,5.80 -14.57,4.91 -13.11,4.02 -12.20,3.16 -11.28,2.31 -10.27,1.08 -9.26,-0.14 -8.87,-0.30 -8.48,-0.47 -8.06,-0.53 -7.64,-0.60 -7.22,-0.56 -6.80,-0.52 -6.40,-0.38 -6.00,-0.25 -5.65,-0.02 -5.29,0.20 -5.00,0.51 -4.71,0.81 -4.50,1.18 -4.29,1.55 -4.18,1.96 -4.06,2.36 -4.05,2.79 -4.04,3.21 -4.12,3.62 -4.21,4.04 -4.40,4.42 -4.58,4.80 -4.85,5.12 -5.12,5.45 -5.46,5.70 -5.80,5.95 -4.88,4.47 -3.96,2.98 -3.89,4.27 -3.83,5.55 -4.13,6.94 -4.43,8.32 -4.41,9.57 -4.38,10.82 -3.12,10.62 -1.86,10.43 -0.67,9.86 0.52,9.28 1.36,8.49 2.20,7.70 2.63,7.37 3.07,7.04 3.58,6.86 4.10,6.69 4.65,6.69 5.20,6.68 5.71,6.86 6.23,7.03 6.67,7.36 7.11,7.69 7.41,8.15 7.72,8.60 7.87,9.13 8.01,9.65 7.98,10.20 7.96,10.74 7.75,11.25 7.55,11.76 7.20,12.18 6.84,12.60 6.38,12.88 5.91,13.16 5.37,13.28 4.84,13.40 4.30,13.34 3.75,13.28 3.26,13.05 2.76,12.82 2.36,12.45 1.96,12.07 1.71,11.59 1.45,11.10 1.36,10.56 1.27,10.02 1.36,9.48 1.45,8.95 1.70,8.46 1.96,7.98 2.36,7.60 2.75,7.22 3.25,6.99 3.75,6.76 4.29,6.71 4.83,6.65 5.37,6.76 5.90,6.88 6.37,7.16 6.84,7.44 7.19,7.86 7.55,8.28 7.75,8.78 7.95,9.29 7.98,9.84 8.01,10.38 7.87,10.91 7.72,11.44 7.42,11.89 7.11,12.34 7.11,12.34 7.11,12.34 4.32,14.15 1.53,15.95 -0.14,16.56 -1.82,17.18 -3.47,17.04 -5.11,16.90 -6.35,16.50 -7.60,16.10 -8.60,15.34 -9.61,14.58 -10.23,13.52 -10.85,12.47 -11.12,10.98 -11.39,9.50 -11.29,8.12 -11.18,6.73 -11.03,5.45 -10.87,4.16 -10.07,2.00 -9.26,-0.14 -8.87,-0.30 -8.48,-0.47 -8.06,-0.53 -7.64,-0.60 -7.22,-0.56 -6.80,-0.52 -6.40,-0.38 -6.00,-0.25 -5.65,-0.02 -5.29,0.20 -5.00,0.51 -4.71,0.81 -4.50,1.18 -4.29,1.55 -4.18,1.96 -4.06,2.36 -4.05,2.79 -4.04,3.21 -4.12,3.62 -4.21,4.04 -4.40,4.42 -4.58,4.80 -4.85,5.12 -5.12,5.45 -5.46,5.70 -5.80,5.95 -6.09,6.55 -6.38,7.15 -7.47,8.20 -8.56,9.24 -9.69,10.09 -10.82,10.94 -11.76,11.69 -12.71,12.43 -15.09,12.58 -17.47,12.72 -18.81,11.83 -20.16,10.94 -21.27,9.60 -22.37,8.27 -23.19,7.07 -24.01,5.87 -24.35,4.08 -24.69,2.30 -24.66,0.75 -24.63,-0.79 -24.51,-1.95 -24.39,-3.11 -23.93,-4.85 -23.46,-6.58 -23.20,-5.41 -22.94,-4.23 -24.70,-4.71 -26.45,-5.18 -28.00,-5.92 -29.55,-6.66 -30.38,-8.36 -31.21,-10.05 -31.42,-11.42 -31.64,-12.79 -31.32,-14.03 -31.01,-15.28 -29.51,-16.74 -28.01,-18.20 -26.45,-19.09 -24.89,-19.97 -23.04,-20.85 -21.19,-21.73 -21.82,-20.42 -22.45,-19.10 -23.82,-20.14 -25.19,-21.19 -26.21,-22.30 -27.22,-23.41 -27.69,-24.50 -28.15,-25.58 -28.20,-26.68 -28.24,-27.78 -27.52,-29.70 -26.79,-31.62 -26.06,-32.45 -25.33,-33.27 -24.35,-33.79 -23.37,-34.31 -21.27,-34.54 -19.17,-34.77 -17.48,-34.52 -15.80,-34.27 -14.18,-34.04 -12.56,-33.81 -11.32,-33.52 -10.07,-33.24 -8.45,-32.18 -6.82,-31.11 -6.21,-30.12 -5.61,-29.13 -5.67,-28.73 -5.72,-28.33 -5.87,-27.96 -6.02,-27.59 -6.26,-27.26 -6.49,-26.93 -6.80,-26.67 -7.11,-26.41 -7.47,-26.23 -7.83,-26.05 -8.22,-25.96 -8.61,-25.87 -9.02,-25.88 -9.42,-25.88 -9.81,-25.99 -10.20,-26.09 -10.55,-26.29 -10.91,-26.48 -11.20,-26.75 -11.50,-27.03 -11.72,-27.36 -11.95,-27.70 -12.08,-28.08 -12.22,-28.46 -12.26,-28.86 -12.30,-29.26 -12.26,-30.26 -12.22,-31.27 -12.08,-32.72 -11.94,-34.17 -11.41,-35.21 -10.87,-36.25 -10.54,-37.34 -10.21,-38.43 -8.66,-39.75 -7.12,-41.06 -6.12,-41.51 -5.13,-41.95 -3.20,-41.96 -1.27,-41.97 1.82,-41.63 4.92,-41.30 5.77,-40.62 6.61,-39.94 7.81,-37.97 9.00,-35.99 9.26,-33.85 9.52,-31.71 8.56,-30.19 7.61,-28.66 6.40,-28.98 5.20,-29.31 6.48,-30.20 7.76,-31.10 8.81,-31.58 9.86,-32.05 10.93,-32.40 11.99,-32.75 13.75,-33.18 15.50,-33.60 16.73,-33.55 17.96,-33.49 19.28,-33.36 20.59,-33.24 21.90,-32.47 23.20,-31.70 23.89,-29.25 24.57,-26.80 24.39,-25.51 24.22,-24.23 23.24,-22.45 22.26,-20.67 21.54,-19.86 20.83,-19.04 19.69,-17.56 18.56,-16.07 17.77,-15.14 16.98,-14.20 16.47,-13.27 15.96,-12.33 14.66,-11.64 13.35,-10.96 12.95,-11.01 12.55,-11.06 12.17,-11.21 11.79,-11.35 11.46,-11.59 11.13,-11.82 10.86,-12.12 10.60,-12.43 10.41,-12.79 10.23,-13.15 10.13,-13.54 10.04,-13.94 10.04,-14.34 10.04,-14.74 10.14,-15.14 10.24,-15.53 10.43,-15.89 10.62,-16.24 10.89,-16.55 11.16,-16.85 11.50,-17.07 11.83,-17.30 12.21,-17.44 12.59,-17.58 13.00,-17.63 13.40,-17.68 14.90,-17.40 16.41,-17.12 17.60,-17.13 18.79,-17.14 19.99,-17.10 21.18,-17.06 22.30,-16.86 23.42,-16.65 24.46,-16.37 25.50,-16.09 26.74,-15.69 27.98,-15.30 29.46,-13.96 30.94,-12.63 31.42,-11.47 31.89,-10.30 32.03,-9.00 32.18,-7.69 31.75,-6.53 31.33,-5.38 30.04,-4.37 28.75,-3.36 27.32,-2.91 25.90,-2.46 24.83,-1.95 23.76,-1.45 21.14,-0.96 18.52,-0.48 17.06,-0.17 15.60,0.13 14.04,0.17 12.47,0.21 10.72,-0.09 8.96,-0.41 8.67,-0.71 8.39,-1.02 8.19,-1.38 7.99,-1.75 7.88,-2.15 7.77,-2.55 7.76,-2.97 7.75,-3.38 7.84,-3.79 7.93,-4.19 8.12,-4.57 8.30,-4.94 8.57,-5.26 8.84,-5.58 9.18,-5.82 9.52,-6.06 9.90,-6.22 10.29,-6.38 10.70,-6.43 11.11,-6.49 11.53,-6.45 11.94,-6.41 12.33,-6.27 12.73,-6.13 13.07,-5.90 13.42,-5.68 14.03,-5.32 14.64,-4.96 15.59,-3.96 16.55,-2.97 17.30,-2.06 18.04,-1.15 18.35,0.84 18.67,2.84 18.14,4.42 17.62,5.99 16.91,6.94 16.20,7.90 14.84,8.86 13.48,9.83 12.33,10.16 11.17,10.49 9.51,10.42 7.85,10.34 6.33,9.81 4.81,9.28 3.92,8.70 3.03,8.11 1.73,7.04 0.44,5.97 -0.52,4.53 -1.49,3.09 -1.94,2.14 -2.38,1.19 -2.49,0.89 -2.60,0.58 -2.63,0.26 -2.66,-0.05 -2.62,-0.37 -2.57,-0.68 -2.45,-0.98 -2.33,-1.28 -2.15,-1.54 -1.96,-1.80 -1.71,-2.01 -1.47,-2.22 -1.18,-2.37 -0.89,-2.51 -0.58,-2.58 -0.26,-2.65 0.05,-2.64 0.37,-2.64 0.68,-2.55 0.99,-2.47 1.27,-2.32 1.55,-2.16 1.79,-1.94 2.03,-1.73 2.21,-1.46 2.38,-1.19 2.38,-1.19 L 2.38,-1.19 Z"></path></g><g transform="translate(79.28000375086413 82.54023922149298) rotate(0 -4.890353205943484 4.4828237721147275)" stroke="none"><path fill="#2b8a3e" d="M -0.64,2.56 Q -0.64,2.56 -1.58,2.36 -2.53,2.16 -3.65,2.12 -4.77,2.09 -5.81,2.44 -6.84,2.80 -7.93,3.20 -9.01,3.60 -10.20,4.52 -11.39,5.44 -9.64,5.94 -7.90,6.44 -6.55,6.39 -5.19,6.33 -4.12,6.03 -3.05,5.73 -1.88,5.35 -0.71,4.97 1.43,4.14 3.58,3.32 4.14,3.23 4.69,3.15 5.23,3.25 5.78,3.34 6.27,3.61 6.76,3.87 7.14,4.28 7.52,4.69 7.75,5.20 7.98,5.70 8.03,6.26 8.09,6.81 7.96,7.36 7.84,7.90 7.54,8.37 7.25,8.85 6.82,9.20 6.40,9.56 5.88,9.76 5.36,9.96 4.80,9.99 4.24,10.01 3.71,9.86 3.17,9.70 2.72,9.38 2.26,9.07 1.93,8.62 1.59,8.17 1.42,7.64 1.25,7.11 1.25,6.56 1.26,6.00 1.44,5.47 1.63,4.95 1.97,4.51 2.31,4.07 2.77,3.76 3.24,3.45 3.78,3.31 4.31,3.17 4.87,3.20 5.43,3.24 5.94,3.45 6.46,3.66 6.88,4.03 7.30,4.39 7.58,4.87 7.86,5.35 7.98,5.90 8.09,6.44 8.02,6.99 7.96,7.55 7.72,8.05 7.48,8.55 7.09,8.95 6.71,9.35 6.21,9.61 5.72,9.86 5.72,9.86 5.72,9.86 4.20,10.40 2.68,10.93 1.42,11.34 0.17,11.74 -1.26,12.16 -2.70,12.58 -3.98,12.87 -5.26,13.17 -7.04,13.09 -8.81,13.02 -10.09,12.66 -11.37,12.31 -12.69,12.06 -14.02,11.81 -15.45,10.46 -16.89,9.11 -17.23,6.98 -17.57,4.85 -16.79,3.27 -16.01,1.69 -14.81,0.73 -13.60,-0.23 -11.80,-1.32 -9.99,-2.41 -8.96,-2.71 -7.92,-3.01 -6.18,-3.30 -4.45,-3.59 -2.83,-3.34 -1.21,-3.09 -0.28,-2.83 0.64,-2.56 0.93,-2.45 1.23,-2.33 1.49,-2.15 1.76,-1.97 1.97,-1.73 2.18,-1.49 2.33,-1.21 2.47,-0.93 2.55,-0.62 2.62,-0.31 2.62,0.00 2.62,0.32 2.54,0.63 2.47,0.94 2.32,1.22 2.17,1.51 1.96,1.74 1.74,1.98 1.48,2.16 1.22,2.34 0.92,2.46 0.62,2.57 0.30,2.60 -0.00,2.64 -0.32,2.60 -0.64,2.56 -0.64,2.56 L -0.64,2.56 Z"></path></g><g transform="translate(89.06071016275018 86.6155335597791) rotate(0 7.743059242744039 -17.11623622080171)" stroke="none"><path fill="#2b8a3e" d="M -2.28,-1.36 Q -2.28,-1.36 -1.57,-2.53 -0.86,-3.69 -0.24,-5.48 0.37,-7.26 0.71,-8.45 1.04,-9.64 1.87,-11.40 2.70,-13.15 3.52,-13.87 4.34,-14.59 5.63,-15.94 6.93,-17.29 7.11,-16.05 7.29,-14.82 6.19,-15.52 5.09,-16.22 3.89,-17.68 2.70,-19.15 2.16,-21.09 1.61,-23.03 1.59,-24.17 1.56,-25.30 1.91,-27.23 2.26,-29.16 3.23,-30.47 4.20,-31.79 5.96,-33.24 7.72,-34.69 9.55,-35.78 11.37,-36.87 12.86,-36.74 14.35,-36.61 15.51,-35.59 16.67,-34.56 17.14,-33.31 17.62,-32.06 18.11,-30.71 18.60,-29.36 18.66,-28.14 18.73,-26.92 18.78,-25.69 18.84,-24.46 18.88,-23.13 18.91,-21.81 18.53,-19.92 18.14,-18.04 16.84,-15.81 15.54,-13.58 15.25,-13.09 14.96,-12.61 14.53,-12.24 14.10,-11.88 13.58,-11.67 13.05,-11.46 12.49,-11.42 11.93,-11.39 11.38,-11.54 10.84,-11.69 10.37,-12.01 9.90,-12.32 9.56,-12.77 9.22,-13.22 9.04,-13.75 8.86,-14.29 8.86,-14.85 8.86,-15.42 9.03,-15.95 9.21,-16.49 9.55,-16.94 9.89,-17.39 10.36,-17.70 10.83,-18.02 11.37,-18.17 11.91,-18.33 12.48,-18.30 13.04,-18.27 13.57,-18.06 14.09,-17.85 14.52,-17.49 14.95,-17.12 15.24,-16.64 15.53,-16.16 15.66,-15.61 15.78,-15.06 15.72,-14.49 15.66,-13.93 15.42,-13.42 15.19,-12.91 14.80,-12.50 14.41,-12.09 13.92,-11.82 13.42,-11.56 12.86,-11.47 12.30,-11.37 11.75,-11.46 11.19,-11.55 10.69,-11.82 10.19,-12.08 9.80,-12.49 9.41,-12.90 9.18,-13.41 8.94,-13.92 8.88,-14.48 8.82,-15.04 8.94,-15.59 9.06,-16.15 9.06,-16.14 9.06,-16.14 9.92,-17.51 10.78,-18.88 11.41,-20.34 12.05,-21.79 12.07,-23.06 12.09,-24.32 12.08,-25.44 12.06,-26.55 11.94,-28.04 11.82,-29.54 10.94,-28.76 10.06,-27.98 9.19,-26.76 8.31,-25.54 8.57,-23.81 8.83,-22.08 9.89,-21.00 10.95,-19.92 11.85,-19.13 12.74,-18.35 13.03,-16.92 13.32,-15.48 12.43,-14.00 11.54,-12.51 10.68,-11.77 9.82,-11.04 8.73,-10.37 7.64,-9.70 6.79,-8.15 5.93,-6.59 5.45,-5.40 4.96,-4.22 4.31,-2.60 3.67,-0.98 2.97,0.19 2.28,1.36 2.08,1.62 1.88,1.87 1.63,2.07 1.38,2.27 1.09,2.40 0.79,2.53 0.48,2.59 0.16,2.65 -0.15,2.63 -0.47,2.61 -0.77,2.52 -1.08,2.42 -1.35,2.26 -1.63,2.09 -1.86,1.87 -2.08,1.64 -2.25,1.37 -2.42,1.09 -2.51,0.79 -2.61,0.48 -2.63,0.16 -2.65,-0.15 -2.59,-0.46 -2.54,-0.78 -2.41,-1.07 -2.28,-1.36 -2.28,-1.36 L -2.28,-1.36 Z"></path></g><g transform="translate(72.75953280960584 131.44377128092643) rotate(0 -3.260235470628686 -4.890353205943342)" stroke="none"><path fill="#2b8a3e" d="M -1.59,2.12 Q -1.59,2.12 -2.53,1.43 -3.47,0.74 -4.72,-0.17 -5.97,-1.09 -6.56,-2.32 -7.15,-3.56 -7.75,-4.61 -8.35,-5.67 -8.93,-7.39 -9.52,-9.12 -9.51,-9.61 -9.49,-10.11 -9.32,-10.58 -9.14,-11.04 -8.83,-11.43 -8.52,-11.81 -8.10,-12.08 -7.68,-12.34 -7.20,-12.46 -6.72,-12.58 -6.22,-12.53 -5.73,-12.49 -5.27,-12.29 -4.82,-12.09 -4.45,-11.76 -4.08,-11.43 -3.84,-10.99 -3.60,-10.56 -3.51,-10.07 -3.41,-9.59 -3.48,-9.09 -3.55,-8.60 -3.78,-8.16 -4.00,-7.72 -4.35,-7.37 -4.70,-7.02 -5.15,-6.80 -5.60,-6.58 -6.09,-6.52 -6.58,-6.45 -7.07,-6.55 -7.55,-6.64 -7.99,-6.89 -8.42,-7.14 -8.75,-7.51 -9.08,-7.88 -9.27,-8.34 -9.46,-8.79 -9.50,-9.29 -9.54,-9.78 -9.42,-10.26 -9.29,-10.74 -9.02,-11.16 -8.75,-11.58 -8.37,-11.89 -7.98,-12.20 -7.51,-12.36 -7.04,-12.53 -6.55,-12.54 -6.05,-12.56 -5.58,-12.41 -5.10,-12.26 -4.70,-11.97 -4.30,-11.68 -4.01,-11.27 -3.73,-10.87 -3.58,-10.39 -3.44,-9.92 -3.44,-9.92 -3.44,-9.92 -2.61,-7.94 -1.79,-5.97 -1.03,-4.76 -0.27,-3.55 0.65,-2.84 1.59,-2.12 1.82,-1.90 2.05,-1.67 2.22,-1.40 2.39,-1.13 2.49,-0.83 2.59,-0.53 2.62,-0.21 2.65,0.10 2.59,0.42 2.54,0.73 2.42,1.02 2.29,1.32 2.10,1.57 1.91,1.83 1.66,2.03 1.41,2.24 1.13,2.37 0.84,2.51 0.52,2.57 0.21,2.64 -0.10,2.63 -0.42,2.61 -0.73,2.52 -1.03,2.44 -1.31,2.28 -1.59,2.12 -1.59,2.12 L -1.59,2.12 Z"></path></g><g transform="translate(59.71859092709019 124.1082414720114) rotate(0 6.9280003750864125 -4.075294338286113)" stroke="none"><path fill="#2b8a3e" d="M -1.28,-2.25 Q -1.28,-2.25 0.40,-3.10 2.09,-3.95 3.12,-4.45 4.15,-4.95 5.76,-6.21 7.36,-7.46 8.52,-8.20 9.69,-8.95 10.80,-9.65 11.91,-10.35 12.34,-10.56 12.76,-10.76 13.23,-10.82 13.70,-10.88 14.16,-10.79 14.62,-10.70 15.03,-10.46 15.44,-10.22 15.76,-9.87 16.07,-9.51 16.25,-9.08 16.43,-8.64 16.47,-8.17 16.50,-7.70 16.38,-7.24 16.27,-6.79 16.01,-6.39 15.75,-5.99 15.38,-5.70 15.01,-5.41 14.56,-5.25 14.12,-5.09 13.64,-5.08 13.17,-5.07 12.72,-5.22 12.27,-5.36 11.89,-5.64 11.51,-5.92 11.24,-6.30 10.96,-6.69 10.83,-7.14 10.70,-7.60 10.71,-8.07 10.73,-8.54 10.90,-8.98 11.06,-9.42 11.36,-9.79 11.66,-10.16 12.06,-10.41 12.46,-10.66 12.92,-10.77 13.38,-10.88 13.85,-10.83 14.32,-10.79 14.76,-10.60 15.19,-10.41 15.54,-10.09 15.89,-9.77 16.11,-9.36 16.34,-8.95 16.43,-8.48 16.51,-8.02 16.44,-7.55 16.38,-7.08 16.16,-6.66 15.95,-6.24 15.61,-5.91 15.27,-5.58 15.27,-5.58 15.28,-5.58 12.73,-4.16 10.18,-2.74 8.99,-2.02 7.80,-1.29 6.13,-0.54 4.46,0.20 2.87,1.22 1.28,2.25 0.99,2.37 0.71,2.49 0.40,2.54 0.09,2.59 -0.21,2.56 -0.53,2.54 -0.82,2.43 -1.12,2.33 -1.38,2.17 -1.65,2.00 -1.86,1.77 -2.08,1.54 -2.23,1.27 -2.39,1.00 -2.47,0.70 -2.56,0.40 -2.57,0.09 -2.58,-0.22 -2.52,-0.52 -2.45,-0.83 -2.32,-1.11 -2.18,-1.39 -1.98,-1.63 -1.78,-1.87 -1.53,-2.06 -1.28,-2.25 -1.28,-2.25 L -1.28,-2.25 Z"></path></g><g transform="translate(120.03294713372543 54.82823772114733) rotate(0 -3.2602354706291408 30.157178103317307)" stroke="none"><path fill="#2b8a3e" d="M 2.32,0.42 Q 2.32,0.42 1.71,2.97 1.11,5.52 0.84,7.46 0.58,9.40 0.27,11.07 -0.02,12.74 -0.09,14.02 -0.16,15.29 -0.15,17.54 -0.15,19.79 -0.10,20.90 -0.06,22.01 0.02,23.58 0.12,25.15 0.20,26.56 0.27,27.98 0.09,30.72 -0.07,33.45 -0.45,36.11 -0.83,38.77 -1.27,41.75 -1.70,44.73 -2.09,46.55 -2.48,48.38 -2.86,50.07 -3.25,51.76 -3.32,52.86 -3.40,53.97 -3.68,55.13 -3.95,56.28 -4.08,58.12 -4.21,59.96 -4.28,60.32 -4.35,60.69 -4.54,61.01 -4.72,61.33 -5.00,61.57 -5.28,61.82 -5.62,61.96 -5.96,62.11 -6.33,62.14 -6.70,62.16 -7.06,62.07 -7.42,61.98 -7.73,61.78 -8.04,61.58 -8.28,61.28 -8.51,60.99 -8.63,60.64 -8.76,60.29 -8.76,59.92 -8.77,59.55 -8.66,59.20 -8.55,58.84 -8.33,58.55 -8.11,58.25 -7.81,58.03 -7.50,57.82 -7.15,57.71 -6.79,57.60 -6.42,57.62 -6.05,57.63 -5.70,57.76 -5.36,57.89 -5.07,58.13 -4.78,58.36 -4.58,58.67 -4.39,58.99 -4.30,59.35 -4.21,59.71 -4.25,60.08 -4.28,60.45 -4.43,60.79 -4.58,61.13 -4.83,61.40 -5.08,61.68 -5.40,61.86 -5.73,62.04 -6.09,62.11 -6.46,62.17 -6.82,62.12 -7.19,62.07 -7.52,61.90 -7.85,61.73 -8.11,61.47 -8.37,61.20 -8.54,60.87 -8.70,60.54 -8.75,60.17 -8.79,59.80 -8.79,59.80 -8.79,59.80 -8.15,56.59 -7.50,53.38 -7.25,52.13 -6.99,50.88 -6.58,49.22 -6.18,47.57 -5.81,45.94 -5.45,44.30 -5.22,41.35 -4.99,38.39 -4.90,35.92 -4.81,33.45 -4.98,30.71 -5.16,27.98 -5.08,26.56 -5.01,25.13 -4.90,23.55 -4.79,21.96 -4.73,20.84 -4.66,19.72 -4.49,17.30 -4.32,14.88 -4.12,13.42 -3.91,11.95 -3.58,10.49 -3.25,9.03 -3.12,6.90 -2.99,4.78 -2.65,2.18 -2.32,-0.42 -2.23,-0.69 -2.15,-0.96 -2.00,-1.20 -1.85,-1.45 -1.65,-1.65 -1.45,-1.85 -1.21,-2.00 -0.97,-2.15 -0.69,-2.23 -0.42,-2.32 -0.14,-2.33 0.13,-2.35 0.41,-2.30 0.69,-2.25 0.95,-2.13 1.21,-2.02 1.44,-1.84 1.66,-1.67 1.84,-1.44 2.01,-1.22 2.13,-0.96 2.25,-0.70 2.30,-0.42 2.35,-0.14 2.33,0.13 2.32,0.42 2.32,0.42 L 2.32,0.42 Z"></path></g><g transform="translate(121.66306486903977 52.383061118175675) rotate(0 10.595765279543684 31.78729583863175)" stroke="none"><path fill="#2b8a3e" d="M 2.08,-1.15 Q 2.08,-1.15 3.13,1.01 4.18,3.19 4.77,4.39 5.36,5.58 6.02,6.65 6.68,7.72 7.26,9.62 7.85,11.53 8.32,12.93 8.79,14.33 9.07,15.53 9.36,16.73 9.85,17.90 10.34,19.08 11.00,20.67 11.66,22.27 12.50,24.46 13.34,26.66 14.18,28.69 15.01,30.72 15.25,31.90 15.49,33.09 15.69,34.94 15.89,36.80 16.61,39.33 17.34,41.86 17.55,43.13 17.77,44.39 18.14,47.19 18.51,50.00 19.07,52.30 19.62,54.61 20.29,56.77 20.95,58.93 21.71,60.52 22.47,62.11 22.62,62.39 22.76,62.66 22.81,62.96 22.86,63.27 22.81,63.57 22.75,63.87 22.61,64.15 22.46,64.42 22.24,64.63 22.02,64.84 21.74,64.97 21.46,65.10 21.15,65.13 20.84,65.16 20.54,65.09 20.24,65.03 19.98,64.87 19.71,64.71 19.52,64.47 19.32,64.24 19.20,63.95 19.09,63.66 19.08,63.35 19.06,63.05 19.14,62.75 19.23,62.45 19.40,62.20 19.57,61.95 19.82,61.76 20.07,61.57 20.36,61.48 20.65,61.38 20.96,61.38 21.27,61.38 21.56,61.48 21.85,61.58 22.09,61.77 22.34,61.96 22.51,62.21 22.68,62.47 22.76,62.76 22.85,63.06 22.83,63.37 22.81,63.68 22.70,63.96 22.58,64.25 22.38,64.48 22.18,64.72 21.92,64.87 21.65,65.03 21.35,65.10 21.05,65.16 20.74,65.13 20.44,65.09 20.16,64.96 19.88,64.83 19.66,64.62 19.43,64.41 19.43,64.41 19.43,64.41 18.48,62.27 17.53,60.13 16.66,57.93 15.80,55.73 14.96,53.28 14.12,50.84 13.29,46.94 12.47,43.04 12.08,41.59 11.68,40.13 11.29,38.89 10.90,37.65 10.38,35.00 9.86,32.35 9.54,31.29 9.21,30.24 8.76,29.23 8.30,28.22 7.60,26.21 6.91,24.20 6.43,22.51 5.95,20.81 5.24,18.26 4.52,15.71 4.08,14.28 3.63,12.85 3.17,11.41 2.71,9.97 2.01,8.67 1.31,7.37 0.90,6.30 0.50,5.23 -0.78,3.19 -2.08,1.15 -2.19,0.89 -2.29,0.62 -2.34,0.34 -2.38,0.05 -2.35,-0.22 -2.32,-0.51 -2.23,-0.78 -2.13,-1.05 -1.97,-1.29 -1.82,-1.53 -1.61,-1.73 -1.39,-1.92 -1.14,-2.06 -0.89,-2.20 -0.62,-2.28 -0.34,-2.35 -0.05,-2.36 0.23,-2.37 0.51,-2.30 0.79,-2.24 1.04,-2.12 1.30,-1.99 1.52,-1.80 1.74,-1.62 1.91,-1.38 2.08,-1.15 2.08,-1.15 L 2.08,-1.15 Z"></path></g><g transform="translate(120.8480060013826 91.50588676572244) rotate(0 7.743059242743584 0)" stroke="none"><path fill="#2b8a3e" d="M 0,-2.53 Q 0,-2.53 2.10,-2.38 4.21,-2.23 5.34,-2.28 6.47,-2.33 7.73,-2.44 8.98,-2.54 10.34,-2.62 11.71,-2.70 13.41,-2.72 15.11,-2.75 15.55,-2.68 15.99,-2.60 16.38,-2.40 16.77,-2.19 17.08,-1.86 17.39,-1.54 17.57,-1.14 17.76,-0.73 17.81,-0.29 17.86,0.14 17.76,0.58 17.66,1.01 17.43,1.40 17.20,1.78 16.87,2.07 16.53,2.35 16.11,2.52 15.70,2.68 15.25,2.71 14.81,2.73 14.38,2.61 13.95,2.49 13.58,2.24 13.21,1.99 12.94,1.64 12.67,1.28 12.53,0.86 12.39,0.44 12.39,-0.00 12.39,-0.44 12.53,-0.86 12.67,-1.28 12.94,-1.64 13.21,-1.99 13.58,-2.24 13.95,-2.49 14.38,-2.61 14.81,-2.73 15.25,-2.71 15.70,-2.68 16.11,-2.52 16.53,-2.35 16.87,-2.07 17.21,-1.78 17.43,-1.40 17.66,-1.01 17.76,-0.58 17.86,-0.14 17.81,0.29 17.76,0.73 17.57,1.14 17.38,1.54 17.08,1.86 16.77,2.19 16.38,2.40 15.98,2.60 15.55,2.68 15.11,2.75 15.11,2.75 15.11,2.75 13.41,2.72 11.71,2.70 10.34,2.62 8.98,2.54 7.73,2.44 6.47,2.33 5.34,2.28 4.21,2.23 2.10,2.38 0,2.53 -0.30,2.49 -0.60,2.46 -0.89,2.35 -1.17,2.24 -1.42,2.07 -1.68,1.89 -1.88,1.66 -2.08,1.44 -2.22,1.16 -2.37,0.89 -2.44,0.60 -2.51,0.30 -2.51,-0.00 -2.51,-0.30 -2.44,-0.60 -2.37,-0.89 -2.22,-1.16 -2.08,-1.44 -1.88,-1.66 -1.68,-1.89 -1.42,-2.07 -1.17,-2.24 -0.89,-2.35 -0.60,-2.46 -0.30,-2.49 0.00,-2.53 0.00,-2.53 L 0,-2.53 Z"></path></g><g transform="translate(148.56000750172825 51.56800225051845) rotate(0 0.8150588676571715 33.824943007774806)" stroke="none"><path fill="#2b8a3e" d="M 1.84,0 Q 1.84,0 1.77,7.49 1.70,14.99 1.65,18.88 1.59,22.77 1.79,28.14 1.98,33.51 2.05,36.52 2.13,39.53 2.38,43.83 2.64,48.13 2.74,51.15 2.84,54.18 2.72,56.03 2.60,57.89 2.61,59.30 2.63,60.71 2.66,62.24 2.69,63.76 2.74,65.36 2.79,66.96 2.73,67.27 2.68,67.59 2.52,67.87 2.37,68.15 2.14,68.36 1.90,68.58 1.61,68.71 1.32,68.84 1.00,68.87 0.69,68.90 0.38,68.83 0.07,68.75 -0.19,68.59 -0.46,68.42 -0.67,68.17 -0.87,67.93 -0.98,67.63 -1.10,67.33 -1.11,67.02 -1.12,66.70 -1.04,66.39 -0.95,66.09 -0.76,65.83 -0.58,65.56 -0.33,65.38 -0.07,65.19 0.22,65.09 0.53,64.99 0.84,64.99 1.16,65.00 1.46,65.10 1.76,65.21 2.01,65.41 2.26,65.60 2.44,65.87 2.62,66.13 2.70,66.44 2.78,66.75 2.76,67.07 2.74,67.38 2.61,67.68 2.49,67.97 2.28,68.21 2.07,68.45 1.80,68.61 1.52,68.77 1.21,68.84 0.90,68.90 0.58,68.86 0.27,68.83 -0.01,68.69 -0.30,68.55 -0.52,68.33 -0.75,68.11 -0.90,67.82 -1.04,67.54 -1.09,67.23 -1.14,66.91 -1.14,66.91 -1.14,66.91 -1.05,65.30 -0.96,63.68 -0.86,62.10 -0.77,60.53 -0.59,59.05 -0.42,57.57 -0.18,55.93 0.06,54.28 -0.06,51.30 -0.19,48.31 -0.49,43.97 -0.79,39.62 -0.92,36.63 -1.05,33.64 -1.32,28.21 -1.59,22.77 -1.65,18.88 -1.70,14.99 -1.77,7.49 -1.84,0 -1.82,-0.22 -1.79,-0.44 -1.71,-0.65 -1.63,-0.85 -1.51,-1.04 -1.38,-1.22 -1.21,-1.37 -1.05,-1.52 -0.85,-1.62 -0.65,-1.72 -0.43,-1.78 -0.22,-1.83 0.00,-1.83 0.22,-1.83 0.43,-1.78 0.65,-1.72 0.85,-1.62 1.05,-1.52 1.21,-1.37 1.38,-1.22 1.51,-1.04 1.63,-0.85 1.71,-0.65 1.79,-0.44 1.82,-0.22 1.84,0.00 1.84,0.00 L 1.84,0 Z"></path></g><g transform="translate(149.37506636938542 54.0131788534901) rotate(0 13.44847131634424 9.373176978058083)" stroke="none"><path fill="#2b8a3e" d="M -1.55,-1.94 Q -1.55,-1.94 -0.37,-2.87 0.80,-3.80 2.19,-4.57 3.58,-5.34 6.66,-6.01 9.73,-6.67 11.49,-7.29 13.26,-7.92 14.37,-7.78 15.48,-7.63 17.10,-7.26 18.73,-6.89 19.89,-6.43 21.06,-5.97 21.97,-5.35 22.89,-4.73 24.64,-2.53 26.39,-0.34 27.05,1.76 27.71,3.86 28.15,5.62 28.60,7.39 28.86,8.76 29.12,10.12 28.68,12.10 28.25,14.08 27.17,15.59 26.09,17.10 23.82,19.03 21.55,20.96 20.05,21.68 18.56,22.40 16.44,23.30 14.32,24.21 13.21,24.88 12.10,25.55 10.80,26.10 9.50,26.65 8.12,26.99 6.73,27.34 4.66,27.41 2.58,27.48 2.21,27.46 1.85,27.44 1.50,27.32 1.15,27.21 0.83,27.02 0.52,26.83 0.26,26.57 0.01,26.31 -0.17,25.99 -0.36,25.68 -0.47,25.33 -0.57,24.97 -0.59,24.61 -0.61,24.24 -0.54,23.88 -0.48,23.52 -0.32,23.19 -0.17,22.85 0.05,22.57 0.28,22.28 0.57,22.06 0.86,21.83 1.19,21.68 1.53,21.54 1.89,21.47 2.25,21.41 2.84,21.49 3.44,21.58 3.87,21.82 4.30,22.06 4.63,22.42 4.96,22.78 5.16,23.23 5.36,23.68 5.40,24.18 5.45,24.67 5.33,25.14 5.22,25.62 4.96,26.04 4.70,26.46 4.32,26.77 3.94,27.08 3.47,27.25 3.01,27.43 2.52,27.45 2.03,27.46 1.56,27.32 1.09,27.18 0.68,26.90 0.28,26.62 -0.00,26.22 -0.29,25.82 -0.44,25.35 -0.59,24.88 -0.58,24.39 -0.57,23.90 -0.40,23.44 -0.24,22.97 0.06,22.59 0.36,22.20 0.77,21.93 1.19,21.66 1.66,21.54 2.14,21.42 2.63,21.45 3.12,21.49 3.57,21.68 4.03,21.87 4.40,22.19 4.77,22.52 5.01,22.95 5.26,23.37 5.36,23.85 5.45,24.34 5.39,24.82 5.33,25.31 5.12,25.76 4.90,26.20 4.56,26.55 4.21,26.90 3.77,27.12 3.33,27.35 2.85,27.42 2.36,27.49 2.47,27.49 2.58,27.48 2.21,27.46 1.85,27.44 1.50,27.32 1.15,27.21 0.83,27.02 0.52,26.83 0.26,26.57 0.01,26.31 -0.17,25.99 -0.36,25.68 -0.47,25.33 -0.57,24.98 -0.59,24.61 -0.61,24.24 -0.54,23.88 -0.48,23.52 -0.32,23.19 -0.17,22.86 0.05,22.57 0.28,22.28 0.57,22.06 0.86,21.83 1.19,21.68 1.53,21.54 1.89,21.47 2.25,21.41 4.44,21.40 6.62,21.40 7.81,21.04 9.01,20.69 10.13,20.30 11.25,19.92 12.91,19.50 14.58,19.09 15.51,18.56 16.45,18.03 17.68,17.43 18.92,16.83 20.03,16.19 21.15,15.54 22.27,14.08 23.40,12.62 23.56,10.73 23.72,8.83 23.17,7.25 22.62,5.66 22.05,4.29 21.47,2.91 20.49,1.66 19.51,0.42 18.44,-0.51 17.36,-1.45 16.29,-1.88 15.21,-2.32 14.15,-2.58 13.09,-2.85 11.83,-2.46 10.56,-2.07 8.23,-1.50 5.90,-0.93 4.89,-0.43 3.87,0.05 2.71,1.00 1.55,1.94 1.30,2.10 1.04,2.26 0.76,2.35 0.47,2.44 0.17,2.46 -0.12,2.49 -0.42,2.43 -0.71,2.38 -0.99,2.26 -1.26,2.14 -1.50,1.96 -1.74,1.78 -1.93,1.54 -2.12,1.31 -2.24,1.03 -2.37,0.76 -2.42,0.47 -2.48,0.17 -2.47,-0.12 -2.45,-0.42 -2.37,-0.71 -2.28,-1.00 -2.13,-1.25 -1.97,-1.51 -1.76,-1.73 -1.55,-1.94 -1.55,-1.94 L -1.55,-1.94 Z"></path></g><g transform="translate(153.45036070767128 78.46494488320684) rotate(0 12.633412448687068 19.15388338994478)" stroke="none"><path fill="#2b8a3e" d="M 1.27,-1.90 Q 1.27,-1.90 2.66,-0.94 4.06,0.01 5.11,1.00 6.17,2.00 7.39,4.03 8.62,6.05 9.15,7.02 9.69,7.99 10.33,9.42 10.98,10.85 11.48,13.53 11.99,16.21 12.42,17.92 12.85,19.63 13.77,21.60 14.69,23.56 15.53,24.85 16.38,26.15 17.43,27.89 18.47,29.63 19.35,30.61 20.23,31.59 21.01,32.69 21.78,33.79 23.64,34.49 25.51,35.18 25.98,35.34 26.46,35.50 26.86,35.81 27.27,36.12 27.55,36.54 27.83,36.95 27.96,37.44 28.10,37.93 28.07,38.43 28.04,38.94 27.85,39.40 27.67,39.87 27.34,40.26 27.01,40.64 26.58,40.90 26.14,41.16 25.65,41.27 25.16,41.37 24.66,41.32 24.15,41.26 23.70,41.05 23.24,40.84 22.87,40.49 22.51,40.14 22.27,39.69 22.04,39.25 21.96,38.75 21.88,38.25 21.96,37.75 22.04,37.26 22.28,36.81 22.52,36.36 22.88,36.02 23.25,35.67 23.71,35.46 24.17,35.25 24.67,35.20 25.17,35.14 25.66,35.25 26.16,35.36 26.59,35.62 27.02,35.89 27.35,36.27 27.67,36.66 27.86,37.13 28.04,37.60 28.07,38.10 28.10,38.60 27.96,39.09 27.82,39.58 27.54,39.99 27.26,40.41 26.85,40.71 26.45,41.02 25.97,41.18 25.49,41.34 24.99,41.34 24.48,41.34 24.48,41.34 24.48,41.34 22.40,40.47 20.32,39.61 19.35,38.90 18.38,38.18 17.15,36.75 15.92,35.32 14.88,33.90 13.85,32.49 12.79,30.55 11.74,28.62 10.94,26.96 10.13,25.30 9.77,24.24 9.41,23.18 8.96,22.03 8.51,20.87 7.96,19.12 7.40,17.36 6.69,15.19 5.98,13.02 5.56,11.66 5.14,10.30 4.67,9.32 4.21,8.34 3.64,7.19 3.06,6.05 2.31,4.89 1.55,3.73 0.14,2.82 -1.27,1.90 -1.48,1.72 -1.69,1.54 -1.85,1.32 -2.01,1.09 -2.11,0.84 -2.21,0.58 -2.25,0.31 -2.29,0.03 -2.26,-0.23 -2.23,-0.51 -2.14,-0.77 -2.04,-1.03 -1.89,-1.26 -1.74,-1.49 -1.53,-1.67 -1.33,-1.86 -1.08,-1.99 -0.84,-2.13 -0.58,-2.20 -0.31,-2.27 -0.03,-2.27 0.23,-2.28 0.50,-2.21 0.77,-2.15 1.02,-2.03 1.27,-1.90 1.27,-1.90 L 1.27,-1.90 Z"></path></g><g transform="translate(187.6828331492752 54.0131788534901) rotate(0 3.260235470628686 30.972236970974535)" stroke="none"><path fill="#2b8a3e" d="M 1.90,-0.54 Q 1.90,-0.54 2.37,1.09 2.85,2.73 3.26,4.65 3.66,6.58 4.08,8.30 4.50,10.03 4.75,11.57 4.99,13.11 5.21,15.85 5.43,18.59 5.56,20.49 5.69,22.38 6.01,23.76 6.34,25.13 6.63,27.70 6.91,30.27 7.12,31.84 7.34,33.40 7.68,34.64 8.02,35.87 8.24,37.00 8.46,38.13 8.58,39.35 8.70,40.58 8.85,42.21 8.99,43.84 9.02,45.06 9.05,46.29 9.05,47.74 9.04,49.20 9.05,50.52 9.06,51.84 9.13,53.77 9.21,55.71 8.95,57.67 8.68,59.64 8.63,60.72 8.57,61.80 8.48,62.25 8.38,62.70 8.15,63.10 7.92,63.50 7.57,63.81 7.22,64.11 6.79,64.29 6.36,64.46 5.90,64.49 5.43,64.52 4.99,64.41 4.54,64.29 4.15,64.03 3.77,63.78 3.48,63.41 3.20,63.04 3.04,62.61 2.89,62.17 2.89,61.71 2.88,61.24 3.02,60.80 3.17,60.36 3.44,59.99 3.72,59.62 4.10,59.35 4.48,59.09 4.92,58.96 5.37,58.83 5.83,58.85 6.30,58.87 6.73,59.04 7.16,59.20 7.52,59.50 7.87,59.80 8.12,60.19 8.36,60.58 8.46,61.04 8.57,61.49 8.52,61.95 8.48,62.41 8.29,62.83 8.10,63.25 7.79,63.59 7.47,63.93 7.06,64.16 6.66,64.38 6.20,64.46 5.74,64.54 5.29,64.47 4.83,64.40 4.42,64.19 4.00,63.97 3.68,63.64 3.36,63.31 3.16,62.89 2.96,62.47 2.91,62.01 2.85,61.55 2.85,61.55 2.85,61.55 3.34,58.63 3.82,55.71 3.90,53.77 3.97,51.84 3.98,50.52 3.99,49.20 3.98,47.75 3.97,46.30 3.99,45.11 4.01,43.91 4.09,42.35 4.17,40.79 4.15,38.76 4.12,36.73 3.87,35.25 3.61,33.77 3.52,32.27 3.43,30.77 3.00,28.32 2.57,25.87 2.32,24.25 2.06,22.64 1.93,20.82 1.79,19.00 1.39,16.30 0.99,13.60 0.88,12.26 0.78,10.92 0.35,9.19 -0.06,7.45 -0.51,5.63 -0.97,3.82 -1.43,2.18 -1.90,0.54 -1.93,0.30 -1.97,0.07 -1.95,-0.16 -1.93,-0.40 -1.86,-0.62 -1.78,-0.85 -1.65,-1.05 -1.52,-1.25 -1.35,-1.42 -1.18,-1.58 -0.97,-1.70 -0.76,-1.82 -0.53,-1.88 -0.31,-1.95 -0.07,-1.96 0.16,-1.97 0.39,-1.92 0.63,-1.87 0.84,-1.77 1.06,-1.66 1.24,-1.51 1.43,-1.36 1.57,-1.17 1.71,-0.98 1.80,-0.76 1.90,-0.54 1.90,-0.54 L 1.90,-0.54 Z"></path></g><g transform="translate(186.86777428161804 49.12282564754676) rotate(0 19.96894225760161 31.37976640480315)" stroke="none"><path fill="#2b8a3e" d="M -0.38,-2.13 Q -0.38,-2.13 2.20,-2.49 4.80,-2.85 6.15,-3.11 7.50,-3.37 8.86,-3.52 10.21,-3.67 13.09,-3.12 15.96,-2.56 18.70,-2.06 21.44,-1.56 22.86,-1.44 24.27,-1.33 25.51,-1.01 26.76,-0.68 28.38,0.16 30.00,1.01 30.94,1.57 31.88,2.13 33.33,3.49 34.77,4.85 35.65,6.47 36.53,8.09 37.57,10.85 38.61,13.62 39.17,15.12 39.73,16.62 40.21,17.64 40.68,18.66 41.05,22.01 41.42,25.36 41.59,27.17 41.75,28.97 41.86,30.47 41.98,31.97 41.98,33.80 41.99,35.63 41.78,37.27 41.58,38.91 41.30,41.27 41.02,43.64 40.66,45.10 40.30,46.57 39.82,47.54 39.35,48.50 38.96,49.88 38.57,51.25 37.50,52.54 36.43,53.82 35.54,55.12 34.64,56.41 33.75,57.12 32.86,57.83 32.06,58.63 31.26,59.42 30.32,60.11 29.38,60.80 27.67,62.17 25.96,63.54 25.00,64.12 24.04,64.69 22.31,65.49 20.58,66.30 19.18,66.83 17.77,67.37 16.34,67.52 14.91,67.66 13.43,67.47 11.94,67.28 10.94,66.69 9.94,66.10 8.51,65.06 7.09,64.02 6.86,63.53 6.63,63.03 6.57,62.48 6.51,61.93 6.63,61.40 6.75,60.86 7.03,60.39 7.32,59.92 7.74,59.57 8.16,59.21 8.67,59.01 9.18,58.81 9.73,58.78 10.27,58.75 10.80,58.90 11.33,59.05 11.79,59.36 12.24,59.67 12.57,60.10 12.90,60.54 13.08,61.06 13.25,61.58 13.25,62.13 13.25,62.68 13.07,63.20 12.90,63.72 12.56,64.16 12.23,64.59 11.77,64.90 11.32,65.21 10.79,65.35 10.26,65.50 9.71,65.47 9.16,65.44 8.66,65.23 8.15,65.03 7.73,64.67 7.31,64.32 7.03,63.85 6.75,63.37 6.63,62.84 6.51,62.30 6.57,61.76 6.63,61.21 6.86,60.71 7.10,60.21 7.47,59.82 7.85,59.42 8.34,59.16 8.82,58.91 9.37,58.82 9.91,58.73 10.45,58.82 10.99,58.91 11.48,59.17 11.96,59.43 12.34,59.83 12.71,60.23 12.71,60.23 12.71,60.22 13.22,60.63 13.73,61.04 14.92,61.13 16.11,61.21 17.70,60.68 19.30,60.15 20.81,59.30 22.32,58.45 23.61,57.45 24.91,56.45 26.04,55.75 27.18,55.04 28.30,54.14 29.42,53.23 30.30,52.53 31.19,51.83 31.93,50.88 32.68,49.93 33.38,49.03 34.07,48.13 34.89,46.75 35.71,45.36 36.35,42.97 36.98,40.57 37.14,39.42 37.31,38.26 37.54,36.98 37.78,35.69 37.72,33.95 37.66,32.20 37.62,30.80 37.58,29.40 37.37,27.68 37.17,25.97 36.68,23.25 36.19,20.53 35.75,19.40 35.31,18.26 34.80,16.90 34.29,15.54 32.79,12.36 31.29,9.17 30.74,8.03 30.18,6.90 29.02,5.89 27.86,4.89 26.72,4.22 25.58,3.55 24.65,2.99 23.71,2.44 22.31,2.19 20.91,1.95 18.12,1.62 15.33,1.28 12.90,0.97 10.48,0.66 9.30,0.68 8.12,0.70 6.81,0.84 5.50,0.97 2.94,1.55 0.38,2.13 0.12,2.15 -0.13,2.16 -0.39,2.12 -0.64,2.07 -0.88,1.96 -1.12,1.85 -1.33,1.69 -1.53,1.53 -1.70,1.32 -1.86,1.12 -1.96,0.88 -2.07,0.64 -2.12,0.38 -2.17,0.12 -2.15,-0.13 -2.13,-0.39 -2.05,-0.64 -1.98,-0.89 -1.84,-1.11 -1.70,-1.34 -1.52,-1.52 -1.33,-1.71 -1.11,-1.84 -0.88,-1.98 -0.63,-2.06 -0.38,-2.13 -0.38,-2.13 L -0.38,-2.13 Z"></path></g><g transform="translate(237.4014240763654 51.56800225051845) rotate(0 2.8527060368001003 32.60235470628898)" stroke="none"><path fill="#2b8a3e" d="M 1.82,-0.20 Q 1.82,-0.20 1.98,1.91 2.15,4.03 2.89,8.15 3.63,12.27 4.17,14.97 4.70,17.68 5.40,22.63 6.09,27.59 6.38,33.49 6.67,39.39 6.55,42.63 6.43,45.87 6.14,48.45 5.84,51.02 5.84,52.33 5.84,53.63 5.71,55.94 5.57,58.25 5.58,59.74 5.58,61.22 4.72,63.39 3.85,65.56 3.69,65.80 3.53,66.04 3.32,66.24 3.10,66.44 2.85,66.58 2.59,66.72 2.31,66.79 2.03,66.86 1.74,66.87 1.45,66.88 1.16,66.81 0.88,66.75 0.62,66.62 0.36,66.49 0.14,66.30 -0.08,66.11 -0.25,65.87 -0.42,65.63 -0.52,65.36 -0.63,65.09 -0.67,64.80 -0.71,64.52 -0.68,64.23 -0.65,63.94 -0.55,63.66 -0.46,63.39 -0.52,64.33 -0.58,65.26 -0.65,64.88 -0.71,64.49 -0.65,64.11 -0.59,63.72 -0.41,63.37 -0.23,63.03 0.04,62.75 0.32,62.48 0.67,62.32 1.03,62.15 1.42,62.10 1.80,62.06 2.19,62.14 2.57,62.22 2.91,62.42 3.24,62.62 3.50,62.91 3.75,63.21 3.90,63.57 4.05,63.93 4.07,64.32 4.10,64.71 4.00,65.09 3.89,65.47 3.68,65.79 3.46,66.12 3.15,66.36 2.84,66.60 2.47,66.73 2.10,66.85 1.71,66.86 1.32,66.86 0.95,66.74 0.58,66.62 0.27,66.38 -0.04,66.15 -0.26,65.83 -0.48,65.50 -0.59,65.13 -0.70,64.75 -0.68,64.36 -0.66,63.97 -0.52,63.61 -0.38,63.24 -0.13,62.94 0.11,62.64 0.45,62.44 0.78,62.24 1.16,62.15 1.54,62.06 1.93,62.10 2.32,62.14 2.68,62.30 3.03,62.46 3.32,62.73 3.60,63.00 3.73,64.28 3.85,65.56 3.69,65.80 3.53,66.04 3.32,66.24 3.10,66.44 2.85,66.58 2.59,66.72 2.31,66.79 2.03,66.86 1.74,66.87 1.45,66.88 1.16,66.81 0.88,66.75 0.62,66.62 0.36,66.49 0.14,66.30 -0.08,66.11 -0.25,65.87 -0.42,65.63 -0.52,65.36 -0.63,65.09 -0.67,64.80 -0.71,64.52 -0.68,64.23 -0.65,63.94 -0.55,63.66 -0.46,63.39 0.41,61.43 1.28,59.47 1.49,58.43 1.69,57.38 2.17,55.36 2.65,53.34 2.88,52.03 3.12,50.72 3.39,48.25 3.65,45.78 3.74,42.66 3.83,39.53 3.52,33.77 3.20,28.01 2.47,23.16 1.74,18.31 1.12,15.59 0.50,12.87 -0.35,8.63 -1.21,4.40 -1.52,2.30 -1.82,0.20 -1.82,-0.01 -1.82,-0.23 -1.76,-0.45 -1.70,-0.66 -1.60,-0.86 -1.50,-1.05 -1.35,-1.22 -1.20,-1.38 -1.01,-1.51 -0.83,-1.63 -0.62,-1.71 -0.42,-1.78 -0.20,-1.81 0.01,-1.83 0.23,-1.80 0.45,-1.77 0.66,-1.69 0.86,-1.61 1.05,-1.48 1.23,-1.36 1.37,-1.19 1.52,-1.02 1.62,-0.83 1.72,-0.63 1.77,-0.41 1.82,-0.20 1.82,-0.20 L 1.82,-0.20 Z"></path></g><g transform="translate(250.44236595888106 55.64329658880456) rotate(0 2.4451766029715145 28.527060368002864)" stroke="none"><path fill="#2b8a3e" d="M 2.04,-0.36 Q 2.04,-0.36 2.64,3.64 3.25,7.64 3.95,14.31 4.65,20.99 4.92,24.53 5.19,28.07 5.52,30.46 5.85,32.85 5.98,35.12 6.12,37.38 6.29,38.80 6.46,40.22 6.59,41.30 6.72,42.38 6.63,44.33 6.54,46.29 6.26,48.45 5.98,50.61 5.94,52.39 5.91,54.17 5.96,55.59 6.01,57.01 6.10,58.35 6.18,59.69 6.21,60.38 6.24,61.06 6.20,61.42 6.16,61.78 6.03,62.12 5.90,62.45 5.70,62.75 5.49,63.05 5.22,63.29 4.95,63.52 4.63,63.69 4.31,63.86 3.96,63.95 3.61,64.03 3.25,64.03 2.89,64.03 2.54,63.94 2.19,63.86 1.87,63.69 1.56,63.52 1.29,63.28 1.02,63.04 0.81,62.75 0.61,62.45 0.48,62.11 0.35,61.78 0.31,61.42 0.27,61.06 0.21,59.81 0.15,58.56 0.45,56.93 0.76,55.31 0.87,54.16 0.98,53.01 1.29,51.72 1.61,50.44 1.75,48.46 1.88,46.48 1.54,42.21 1.19,37.95 1.11,36.23 1.03,34.51 0.53,32.76 0.03,31.00 -0.05,29.81 -0.14,28.62 -0.43,26.72 -0.72,24.82 -0.94,23.11 -1.15,21.40 -1.27,19.94 -1.39,18.49 -1.52,16.32 -1.66,14.15 -1.94,12.56 -2.21,10.96 -2.27,8.91 -2.33,6.85 -2.48,5.17 -2.63,3.49 -2.71,2.25 -2.80,1.01 -2.54,-0.47 -2.28,-1.96 -2.39,-2.03 -2.51,-2.09 -2.42,-2.43 -2.34,-2.76 -2.17,-3.07 -2.01,-3.37 -1.78,-3.62 -1.55,-3.88 -1.26,-4.07 -0.98,-4.27 -0.66,-4.39 -0.33,-4.51 0.00,-4.54 0.34,-4.58 0.68,-4.54 1.02,-4.49 1.35,-4.37 1.67,-4.24 1.95,-4.04 2.23,-3.85 2.46,-3.59 2.68,-3.33 2.84,-3.02 3.00,-2.71 3.08,-2.38 3.15,-2.04 3.15,-1.70 3.15,-1.35 2.98,-0.84 2.81,-0.33 2.52,0.02 2.24,0.38 1.85,0.63 1.46,0.88 1.01,1.00 0.57,1.11 0.10,1.08 -0.35,1.04 -0.77,0.86 -1.20,0.68 -1.54,0.38 -1.89,0.07 -2.12,-0.32 -2.35,-0.72 -2.44,-1.17 -2.53,-1.63 -2.47,-2.09 -2.41,-2.55 -2.21,-2.96 -2.01,-3.38 -1.68,-3.71 -1.36,-4.03 -0.94,-4.24 -0.53,-4.45 -0.07,-4.52 0.37,-4.58 0.83,-4.50 1.28,-4.41 1.69,-4.19 2.09,-3.96 2.40,-3.62 2.71,-3.28 2.90,-2.86 3.08,-2.43 3.12,-1.97 3.16,-1.51 3.06,-1.06 2.95,-0.61 2.70,-0.22 2.45,0.16 2.10,0.45 1.74,0.74 1.30,0.91 0.87,1.07 0.41,1.08 -0.04,1.10 -0.49,0.97 -0.93,0.83 -1.31,0.57 -1.68,0.30 -1.96,-0.06 -2.23,-0.44 -2.37,-0.88 -2.50,-1.32 -2.49,-1.78 -2.48,-2.24 -2.50,-2.17 -2.51,-2.09 -2.42,-2.43 -2.34,-2.76 -2.17,-3.07 -2.01,-3.37 -1.78,-3.62 -1.55,-3.88 -1.27,-4.07 -0.98,-4.27 -0.66,-4.39 -0.33,-4.50 0.00,-4.54 0.34,-4.58 0.68,-4.54 1.02,-4.49 1.35,-4.37 1.67,-4.24 1.95,-4.04 2.23,-3.85 2.46,-3.59 2.68,-3.33 2.84,-3.02 3.00,-2.71 3.08,-2.38 3.15,-2.04 3.15,-1.70 3.15,-1.35 3.33,-1.97 3.50,-2.58 3.16,-0.78 2.81,1.01 2.75,2.17 2.68,3.34 2.66,4.96 2.63,6.57 2.77,8.10 2.92,9.63 3.12,11.86 3.33,14.09 3.31,16.14 3.28,18.19 3.34,19.49 3.40,20.80 3.60,22.28 3.80,23.76 4.49,26.05 5.19,28.34 5.24,30.00 5.30,31.65 5.59,32.87 5.89,34.09 6.08,35.78 6.28,37.47 6.78,40.74 7.28,44.00 7.51,45.34 7.74,46.67 7.70,47.96 7.65,49.25 7.26,51.37 6.87,53.48 6.78,54.90 6.69,56.32 6.53,57.45 6.36,58.57 6.30,59.82 6.24,61.06 6.20,61.42 6.16,61.78 6.03,62.12 5.90,62.45 5.70,62.75 5.49,63.05 5.22,63.29 4.95,63.52 4.63,63.69 4.31,63.86 3.96,63.95 3.61,64.03 3.25,64.03 2.89,64.03 2.54,63.94 2.19,63.86 1.88,63.69 1.56,63.52 1.29,63.28 1.02,63.04 0.81,62.75 0.61,62.45 0.48,62.11 0.35,61.78 0.31,61.42 0.27,61.06 0.27,61.02 0.27,60.98 0.36,59.46 0.45,57.93 0.54,56.82 0.62,55.70 0.79,53.80 0.95,51.89 1.44,49.87 1.92,47.84 2.38,45.84 2.83,43.83 2.97,42.10 3.12,40.38 3.15,38.99 3.18,37.59 3.00,35.45 2.82,33.31 2.40,30.84 1.98,28.37 1.60,24.88 1.22,21.39 0.39,14.84 -0.44,8.29 -1.24,4.32 -2.04,0.36 -2.06,0.11 -2.07,-0.13 -2.02,-0.38 -1.97,-0.63 -1.87,-0.85 -1.77,-1.08 -1.61,-1.28 -1.45,-1.47 -1.26,-1.63 -1.06,-1.78 -0.83,-1.88 -0.60,-1.98 -0.35,-2.03 -0.11,-2.07 0.13,-2.05 0.38,-2.04 0.62,-1.96 0.86,-1.88 1.07,-1.75 1.29,-1.62 1.46,-1.44 1.64,-1.27 1.77,-1.05 1.90,-0.84 1.97,-0.60 2.04,-0.36 2.04,-0.36 L 2.04,-0.36 Z"></path></g><g transform="translate(251.25742482653823 49.12282564754676) rotate(0 14.671059617829997 30.56470753714592)" stroke="none"><path fill="#2b8a3e" d="M 1.56,-0.97 Q 1.56,-0.97 2.67,0.93 3.78,2.84 4.76,4.32 5.75,5.80 6.32,7.04 6.90,8.28 7.92,10.85 8.94,13.42 9.64,15.25 10.35,17.08 10.94,18.55 11.54,20.01 12.23,21.51 12.92,23.00 14.32,26.52 15.72,30.05 16.76,32.46 17.79,34.88 18.53,36.34 19.28,37.81 20.24,40.38 21.21,42.96 21.91,44.46 22.61,45.95 23.03,47.18 23.44,48.40 24.11,49.89 24.77,51.38 25.27,52.55 25.76,53.73 26.74,55.08 27.71,56.43 28.60,57.60 29.50,58.78 30.03,60.06 30.56,61.35 30.97,62.66 31.38,63.97 31.35,64.36 31.33,64.75 31.21,65.12 31.09,65.49 30.88,65.82 30.68,66.15 30.40,66.42 30.12,66.69 29.79,66.89 29.45,67.08 29.08,67.19 28.71,67.31 28.32,67.32 27.93,67.34 27.55,67.27 27.17,67.19 26.82,67.03 26.46,66.87 26.16,66.62 25.86,66.38 25.62,66.07 25.39,65.76 25.23,65.41 25.08,65.05 25.01,64.67 24.94,64.29 25.28,63.24 25.62,62.19 25.82,59.90 26.02,57.62 26.08,54.55 26.14,51.47 25.79,46.85 25.43,42.23 25.33,39.98 25.23,37.72 24.53,33.56 23.84,29.40 23.34,26.67 22.83,23.94 22.63,21.52 22.42,19.10 22.35,16.41 22.28,13.73 22.19,11.89 22.11,10.06 21.99,8.81 21.87,7.55 22.03,6.33 22.18,5.11 22.11,3.44 22.05,1.77 22.13,0.45 22.21,-0.85 22.89,-2.40 23.56,-3.94 23.77,-4.31 23.97,-4.67 24.28,-4.96 24.59,-5.24 24.97,-5.41 25.36,-5.58 25.78,-5.62 26.20,-5.66 26.60,-5.56 27.01,-5.46 27.37,-5.24 27.73,-5.02 27.99,-4.69 28.26,-4.37 28.41,-3.97 28.56,-3.58 28.57,-3.16 28.59,-2.74 28.47,-2.34 28.35,-1.93 28.11,-1.59 27.86,-1.25 27.53,-1.00 27.19,-0.75 26.79,-0.62 26.38,-0.49 25.96,-0.50 25.54,-0.51 25.15,-0.65 24.75,-0.79 24.42,-1.05 24.09,-1.31 23.86,-1.66 23.63,-2.02 23.53,-2.42 23.42,-2.83 23.45,-3.25 23.48,-3.67 23.64,-4.06 23.81,-4.44 24.08,-4.76 24.36,-5.08 24.73,-5.29 25.09,-5.50 25.50,-5.58 25.91,-5.66 26.33,-5.61 26.75,-5.56 27.13,-5.37 27.51,-5.19 27.81,-4.90 28.11,-4.60 28.30,-4.23 28.49,-3.85 28.55,-3.44 28.61,-3.02 28.53,-2.61 28.46,-2.19 28.46,-2.19 28.46,-2.19 27.63,-0.15 26.80,1.89 26.60,3.21 26.41,4.54 25.93,6.03 25.45,7.52 25.37,8.75 25.29,9.99 25.29,11.80 25.29,13.61 25.43,16.19 25.57,18.77 25.85,21.01 26.13,23.25 26.77,25.99 27.41,28.73 28.31,33.03 29.22,37.32 29.56,39.53 29.90,41.73 30.60,46.50 31.29,51.27 31.61,54.84 31.93,58.42 31.84,60.02 31.74,61.61 31.56,62.79 31.38,63.97 31.35,64.36 31.33,64.75 31.21,65.12 31.09,65.49 30.88,65.82 30.68,66.15 30.40,66.42 30.12,66.69 29.79,66.89 29.45,67.08 29.08,67.19 28.71,67.31 28.32,67.32 27.93,67.34 27.55,67.27 27.17,67.19 26.82,67.03 26.46,66.87 26.16,66.62 25.86,66.38 25.62,66.07 25.39,65.76 25.23,65.41 25.08,65.05 25.01,64.67 24.94,64.29 24.97,64.58 25.00,64.87 24.85,63.17 24.70,61.46 24.01,60.57 23.32,59.68 22.72,58.16 22.13,56.65 21.61,55.34 21.10,54.03 20.76,52.61 20.43,51.20 19.93,49.25 19.44,47.31 18.82,45.73 18.21,44.16 17.17,41.71 16.14,39.27 15.49,37.74 14.84,36.22 13.68,33.81 12.53,31.39 11.00,27.97 9.47,24.54 8.77,22.91 8.06,21.28 7.59,19.81 7.11,18.35 6.41,16.58 5.70,14.81 4.25,11.25 2.80,7.68 1.85,6.16 0.90,4.65 -0.33,2.81 -1.56,0.97 -1.65,0.77 -1.75,0.57 -1.79,0.35 -1.83,0.13 -1.82,-0.08 -1.81,-0.30 -1.75,-0.51 -1.69,-0.73 -1.57,-0.92 -1.46,-1.11 -1.31,-1.27 -1.15,-1.43 -0.96,-1.55 -0.78,-1.66 -0.57,-1.73 -0.35,-1.80 -0.13,-1.82 0.08,-1.84 0.30,-1.80 0.52,-1.76 0.72,-1.67 0.92,-1.59 1.10,-1.45 1.28,-1.32 1.42,-1.14 1.56,-0.97 1.56,-0.97 L 1.56,-0.97 Z"></path></g></svg>