<svg version="1.1" xmlns="http://www.w3.org/2000/svg" viewBox="0 0 403.04622395833394 301.99999999999955" width="403.04622395833394" height="301.99999999999955">
  <!-- svg-source:excalidraw -->
  
  <defs>
    <style class="style-fonts">
      @font-face {
        font-family: "Virgil";
        src: url("https://excalidraw.com/Virgil.woff2");
      }
      @font-face {
        font-family: "Cascadia";
        src: url("https://excalidraw.com/Cascadia.woff2");
      }
    </style>
  </defs>
  <g transform="translate(111 250.99999999999955) rotate(0 0.00004999999964638846 0.00005000000010113581)" stroke="none"><path fill="#6b9080" d="M 1.57,-1.57 Q 1.57,-1.57 1.77,-1.27 1.98,-0.98 2.09,-0.64 2.20,-0.29 2.19,0.05 2.18,0.41 2.05,0.75 1.93,1.09 1.70,1.37 1.48,1.65 1.18,1.84 0.87,2.04 0.52,2.12 0.18,2.21 -0.17,2.18 -0.53,2.15 -0.86,2.01 -1.19,1.87 -1.46,1.63 -1.73,1.39 -1.90,1.07 -2.08,0.76 -2.15,0.41 -2.21,0.05 -2.17,-0.29 -2.12,-0.65 -1.96,-0.97 -1.80,-1.29 -1.54,-1.54 -1.29,-1.80 -0.97,-1.96 -0.65,-2.12 -0.29,-2.17 0.06,-2.21 0.41,-2.15 0.76,-2.08 1.07,-1.90 1.39,-1.73 1.63,-1.46 1.87,-1.19 2.01,-0.86 2.15,-0.53 2.18,-0.17 2.21,0.18 2.12,0.52 2.03,0.87 1.84,1.18 1.65,1.48 1.37,1.70 1.09,1.93 0.75,2.05 0.41,2.18 0.05,2.19 -0.30,2.20 -0.64,2.09 -0.98,1.98 -1.27,1.77 -1.57,1.56 -1.57,1.57 -1.57,1.57 -1.73,1.35 -1.90,1.14 -2.01,0.90 -2.12,0.66 -2.16,0.39 -2.21,0.13 -2.20,-0.13 -2.18,-0.40 -2.10,-0.65 -2.02,-0.91 -1.88,-1.14 -1.74,-1.36 -1.55,-1.55 -1.36,-1.74 -1.14,-1.88 -0.91,-2.02 -0.65,-2.10 -0.40,-2.18 -0.13,-2.20 0.13,-2.21 0.39,-2.16 0.66,-2.12 0.90,-2.01 1.14,-1.90 1.35,-1.73 1.57,-1.57 1.57,-1.57 L 1.57,-1.57 Z"></path></g><g transform="translate(111 250.99999999999955) rotate(0 -41 -53)" stroke="none"><path fill="#6b9080" d="M -2.66,0 Q -2.66,0 -2.67,-1.15 -2.69,-2.3 -2.76,-3.69 -2.83,-5.08 -3.30,-7.16 -3.76,-9.25 -3.89,-10.94 -4.01,-12.64 -4.05,-14.30 -4.09,-15.96 -4.12,-17.37 -4.15,-18.78 -4.17,-20.26 -4.20,-21.74 -4.16,-23.94 -4.12,-26.13 -4.11,-27.24 -4.10,-28.35 -4.16,-30.38 -4.22,-32.40 -4.35,-33.66 -4.49,-34.92 -4.61,-37.04 -4.73,-39.16 -5.02,-40.86 -5.31,-42.56 -5.47,-43.81 -5.63,-45.07 -5.88,-46.56 -6.13,-48.06 -6.62,-49.84 -7.12,-51.62 -7.32,-53.18 -7.52,-54.75 -8.26,-56.50 -8.99,-58.25 -9.49,-59.45 -10.00,-60.65 -10.33,-61.92 -10.67,-63.20 -11.14,-64.43 -11.62,-65.66 -12.30,-66.65 -12.98,-67.64 -13.68,-68.82 -14.38,-69.99 -14.98,-71.07 -15.58,-72.15 -16.12,-73.18 -16.67,-74.22 -17.57,-75.25 -18.47,-76.29 -19.16,-77.38 -19.85,-78.46 -21.42,-80.48 -23.00,-82.51 -24.16,-83.79 -25.32,-85.07 -26.64,-85.99 -27.96,-86.90 -29.51,-87.75 -31.05,-88.60 -32.36,-89.48 -33.68,-90.37 -34.61,-91.06 -35.54,-91.74 -36.71,-92.31 -37.87,-92.87 -38.88,-93.38 -39.89,-93.88 -41.74,-94.62 -43.59,-95.35 -45.50,-96.09 -47.42,-96.83 -48.85,-97.74 -50.28,-98.66 -51.68,-99.13 -53.09,-99.61 -55.09,-100.60 -57.09,-101.59 -58.30,-101.86 -59.51,-102.13 -61.89,-102.38 -64.27,-102.64 -66.21,-102.77 -68.15,-102.90 -70.11,-102.98 -72.08,-103.06 -73.22,-102.99 -74.35,-102.92 -75.91,-103.19 -77.47,-103.46 -79.60,-103.61 -81.73,-103.76 -82.08,-103.83 -82.43,-103.91 -82.74,-104.09 -83.05,-104.27 -83.29,-104.54 -83.53,-104.81 -83.66,-105.14 -83.80,-105.47 -83.83,-105.83 -83.85,-106.19 -83.76,-106.54 -83.67,-106.88 -83.47,-107.18 -83.27,-107.48 -82.99,-107.71 -82.71,-107.93 -82.37,-108.05 -82.03,-108.17 -81.67,-108.17 -81.31,-108.18 -80.97,-108.07 -80.63,-107.96 -80.34,-107.74 -80.05,-107.53 -79.84,-107.24 -79.64,-106.94 -79.54,-106.60 -79.44,-106.25 -79.45,-105.89 -79.47,-105.53 -79.59,-105.20 -79.72,-104.86 -79.95,-104.59 -80.18,-104.31 -80.48,-104.12 -80.79,-103.93 -81.14,-103.85 -81.49,-103.77 -81.85,-103.80 -82.20,-103.83 -82.53,-103.98 -82.86,-104.13 -83.12,-104.37 -83.39,-104.61 -83.56,-104.93 -83.73,-105.24 -83.80,-105.60 -83.86,-105.95 -83.81,-106.30 -83.75,-106.66 -83.59,-106.98 -83.43,-107.30 -83.17,-107.55 -82.91,-107.80 -82.59,-107.96 -82.26,-108.11 -81.91,-108.16 -81.55,-108.20 -81.55,-108.20 -81.55,-108.20 -79.05,-107.93 -76.55,-107.66 -75.42,-107.35 -74.29,-107.03 -73.16,-106.94 -72.03,-106.85 -70.03,-106.88 -68.02,-106.91 -66.03,-106.92 -64.03,-106.93 -61.21,-106.90 -58.38,-106.88 -56.82,-106.48 -55.25,-106.08 -53.43,-105.51 -51.62,-104.93 -49.44,-104.42 -47.27,-103.90 -45.51,-102.65 -43.74,-101.40 -42.63,-101.08 -41.52,-100.76 -39.04,-99.79 -36.57,-98.82 -34.86,-98.13 -33.15,-97.44 -31.87,-96.37 -30.59,-95.29 -29.39,-94.60 -28.18,-93.90 -27.18,-93.36 -26.19,-92.83 -24.65,-91.73 -23.12,-90.63 -21.45,-89.15 -19.78,-87.67 -19.08,-86.80 -18.37,-85.93 -17.54,-84.89 -16.71,-83.85 -15.87,-82.93 -15.02,-82.00 -13.98,-80.28 -12.94,-78.57 -12.35,-77.67 -11.76,-76.77 -11.26,-75.77 -10.75,-74.77 -10.22,-73.77 -9.69,-72.77 -9.10,-71.76 -8.51,-70.76 -7.49,-69.31 -6.48,-67.87 -5.69,-65.68 -4.91,-63.48 -4.31,-61.81 -3.71,-60.14 -3.29,-59.00 -2.87,-57.86 -2.36,-55.66 -1.84,-53.45 -1.35,-51.31 -0.85,-49.17 -0.34,-46.52 0.17,-43.88 0.48,-41.57 0.79,-39.26 0.82,-37.36 0.85,-35.46 0.96,-34.28 1.07,-33.09 1.58,-30.73 2.10,-28.36 2.11,-27.25 2.12,-26.13 2.16,-24.87 2.19,-23.61 2.19,-21.83 2.19,-20.06 2.16,-18.60 2.14,-17.15 2.11,-15.89 2.07,-14.63 2.08,-12.93 2.08,-11.22 2.14,-10.00 2.20,-8.77 2.52,-6.93 2.83,-5.08 2.76,-3.69 2.69,-2.3 2.67,-1.15 2.66,0 2.62,0.31 2.58,0.63 2.47,0.93 2.35,1.23 2.17,1.50 1.99,1.76 1.75,1.97 1.51,2.19 1.22,2.34 0.94,2.48 0.63,2.56 0.32,2.64 -0.00,2.64 -0.32,2.64 -0.63,2.56 -0.94,2.48 -1.22,2.34 -1.51,2.19 -1.75,1.97 -1.99,1.76 -2.17,1.50 -2.35,1.23 -2.47,0.93 -2.58,0.63 -2.62,0.31 -2.66,-0.00 -2.66,-0.00 L -2.66,0 Z"></path></g><g transform="translate(105 189.99999999999955) rotate(0 -3 -20.5)" stroke="none"><path fill="#6b9080" d="M -1.94,0.48 Q -1.94,0.48 -2.43,-1.83 -2.91,-4.15 -3.38,-6.30 -3.84,-8.44 -4.32,-11.43 -4.80,-14.41 -5.27,-18.57 -5.75,-22.73 -5.96,-24.78 -6.16,-26.83 -6.37,-27.99 -6.58,-29.15 -6.93,-30.69 -7.28,-32.22 -7.68,-36.28 -8.08,-40.34 -8.04,-40.68 -7.99,-41.01 -7.84,-41.32 -7.69,-41.62 -7.45,-41.86 -7.20,-42.10 -6.90,-42.26 -6.59,-42.41 -6.26,-42.45 -5.92,-42.50 -5.59,-42.43 -5.25,-42.37 -4.96,-42.20 -4.66,-42.03 -4.43,-41.78 -4.21,-41.53 -4.07,-41.21 -3.94,-40.90 -3.91,-40.56 -3.88,-40.22 -3.97,-39.89 -4.05,-39.56 -4.23,-39.28 -4.42,-38.99 -4.68,-38.78 -4.95,-38.56 -5.27,-38.45 -5.58,-38.33 -5.93,-38.32 -6.27,-38.31 -6.59,-38.41 -6.92,-38.51 -7.19,-38.71 -7.47,-38.91 -7.67,-39.19 -7.86,-39.46 -7.96,-39.79 -8.06,-40.11 -8.05,-40.45 -8.04,-40.79 -7.93,-41.11 -7.81,-41.43 -7.60,-41.70 -7.38,-41.96 -7.10,-42.15 -6.81,-42.33 -6.48,-42.41 -6.15,-42.49 -5.81,-42.46 -5.47,-42.44 -5.16,-42.30 -4.84,-42.17 -4.59,-41.94 -4.34,-41.71 -4.17,-41.42 -4.00,-41.12 -3.94,-40.78 -3.88,-40.45 -3.88,-40.45 -3.88,-40.45 -3.81,-36.69 -3.74,-32.92 -3.44,-31.18 -3.14,-29.43 -3.17,-28.28 -3.19,-27.14 -2.97,-25.12 -2.75,-23.10 -2.21,-19.03 -1.68,-14.96 -1.12,-12.11 -0.57,-9.26 0.01,-7.15 0.61,-5.04 1.28,-2.76 1.94,-0.48 1.97,-0.24 2.00,-0.00 1.97,0.23 1.95,0.47 1.86,0.70 1.78,0.92 1.64,1.12 1.50,1.32 1.32,1.48 1.14,1.64 0.93,1.76 0.71,1.87 0.48,1.93 0.24,1.99 0.00,1.99 -0.23,1.99 -0.47,1.93 -0.70,1.88 -0.92,1.76 -1.13,1.65 -1.31,1.49 -1.49,1.33 -1.63,1.13 -1.77,0.93 -1.86,0.71 -1.94,0.48 -1.94,0.48 L -1.94,0.48 Z"></path></g><g transform="translate(99 160.99999999999955) rotate(0 0.5 -44.5)" stroke="none"><path fill="#6b9080" d="M -2.50,0 Q -2.50,0 -2.50,-1.43 -2.49,-2.87 -2.55,-5.02 -2.61,-7.17 -2.29,-8.81 -1.96,-10.46 -1.85,-11.76 -1.73,-13.06 -1.34,-14.72 -0.95,-16.37 -0.49,-18.42 -0.02,-20.47 0.05,-22.08 0.13,-23.70 0.10,-24.94 0.07,-26.18 0.17,-28.76 0.26,-31.34 -0.09,-33.56 -0.46,-35.79 -0.69,-37.51 -0.93,-39.24 -1.31,-40.33 -1.69,-41.42 -1.93,-42.71 -2.18,-43.99 -2.28,-45.44 -2.37,-46.89 -2.44,-48.06 -2.50,-49.24 -2.82,-50.53 -3.14,-51.83 -3.45,-53.69 -3.75,-55.55 -3.85,-56.83 -3.94,-58.11 -4.19,-59.43 -4.45,-60.74 -4.61,-62.30 -4.77,-63.85 -4.89,-65.40 -5.02,-66.95 -5.01,-68.94 -4.99,-70.94 -4.89,-72.68 -4.79,-74.42 -4.78,-75.74 -4.77,-77.05 -4.79,-79.12 -4.82,-81.19 -4.88,-82.63 -4.93,-84.06 -4.98,-86.37 -5.02,-88.68 -4.94,-89.16 -4.86,-89.64 -4.63,-90.08 -4.40,-90.51 -4.05,-90.85 -3.69,-91.18 -3.25,-91.39 -2.80,-91.59 -2.32,-91.65 -1.83,-91.70 -1.35,-91.59 -0.88,-91.49 -0.46,-91.24 -0.04,-90.98 0.27,-90.61 0.59,-90.24 0.77,-89.78 0.95,-89.33 0.98,-88.84 1.00,-88.35 0.87,-87.88 0.74,-87.41 0.47,-87.00 0.19,-86.60 -0.19,-86.30 -0.58,-86.01 -1.04,-85.85 -1.51,-85.69 -2.00,-85.69 -2.48,-85.69 -2.95,-85.85 -3.41,-86.01 -3.80,-86.30 -4.19,-86.60 -4.47,-87.00 -4.74,-87.41 -4.87,-87.88 -5.00,-88.35 -4.98,-88.84 -4.95,-89.33 -4.77,-89.78 -4.59,-90.24 -4.27,-90.61 -3.95,-90.98 -3.53,-91.24 -3.11,-91.49 -2.64,-91.59 -2.16,-91.70 -1.67,-91.65 -1.18,-91.59 -0.74,-91.39 -0.30,-91.18 0.05,-90.84 0.40,-90.51 0.63,-90.08 0.86,-89.64 0.94,-89.16 1.02,-88.68 1.02,-88.68 1.02,-88.68 0.98,-86.37 0.93,-84.06 0.88,-82.63 0.82,-81.19 0.79,-79.12 0.77,-77.05 0.78,-75.74 0.79,-74.43 0.90,-72.69 1.01,-70.95 1.06,-69.59 1.11,-68.22 1.09,-67.10 1.08,-65.97 1.19,-64.25 1.30,-62.52 1.64,-60.37 1.97,-58.21 1.94,-57.05 1.91,-55.90 1.96,-54.69 2.00,-53.49 2.30,-51.43 2.59,-49.37 2.59,-48.26 2.58,-47.15 2.71,-44.98 2.84,-42.82 3.25,-41.37 3.65,-39.93 3.90,-38.39 4.15,-36.85 4.94,-34.11 5.72,-31.36 5.80,-28.72 5.88,-26.07 5.78,-24.71 5.67,-23.35 5.57,-22.24 5.47,-21.13 5.23,-19.90 4.99,-18.67 4.47,-16.96 3.95,-15.24 3.66,-13.94 3.37,-12.63 3.24,-11.02 3.11,-9.42 2.86,-8.28 2.61,-7.14 2.55,-5.01 2.49,-2.87 2.50,-1.43 2.50,0 2.46,0.29 2.43,0.59 2.32,0.88 2.21,1.16 2.04,1.41 1.87,1.66 1.64,1.86 1.42,2.06 1.15,2.20 0.88,2.34 0.59,2.41 0.30,2.48 -0.00,2.48 -0.30,2.48 -0.59,2.41 -0.88,2.34 -1.15,2.20 -1.42,2.06 -1.64,1.86 -1.87,1.66 -2.04,1.41 -2.21,1.16 -2.32,0.88 -2.43,0.59 -2.46,0.29 -2.50,-0.00 -2.50,-0.00 L -2.50,0 Z"></path></g><g transform="translate(109 198.99999999999955) rotate(0 18 -40)" stroke="none"><path fill="#6b9080" d="M -2.22,0 Q -2.22,0 -2.27,-1.14 -2.33,-2.29 -2.48,-5.28 -2.63,-8.26 -2.36,-13.43 -2.10,-18.60 -1.96,-21.31 -1.81,-24.02 -1.86,-25.46 -1.90,-26.90 -1.97,-28.08 -2.03,-29.27 -1.77,-30.84 -1.50,-32.42 -1.11,-34.77 -0.73,-37.13 -0.23,-38.75 0.25,-40.37 1.38,-42.54 2.50,-44.70 2.87,-46.16 3.24,-47.62 4.07,-48.95 4.90,-50.28 5.85,-52.06 6.80,-53.84 7.78,-55.63 8.76,-57.42 10.09,-59.05 11.42,-60.68 12.19,-61.85 12.96,-63.02 13.81,-63.91 14.67,-64.81 16.27,-66.55 17.88,-68.29 18.98,-69.76 20.08,-71.24 21.02,-71.87 21.96,-72.49 22.99,-73.55 24.03,-74.61 25.50,-75.65 26.97,-76.69 27.95,-77.69 28.92,-78.69 30.52,-79.81 32.13,-80.93 33.80,-82.01 35.47,-83.10 36.01,-83.21 36.56,-83.32 37.11,-83.25 37.66,-83.18 38.17,-82.93 38.67,-82.69 39.06,-82.30 39.46,-81.91 39.71,-81.42 39.97,-80.92 40.05,-80.37 40.13,-79.82 40.03,-79.27 39.93,-78.72 39.66,-78.24 39.39,-77.75 38.98,-77.37 38.57,-77.00 38.06,-76.77 37.55,-76.55 37.00,-76.50 36.44,-76.45 35.90,-76.58 35.36,-76.71 34.89,-77.00 34.42,-77.30 34.06,-77.73 33.71,-78.16 33.51,-78.68 33.32,-79.20 33.29,-79.75 33.27,-80.31 33.43,-80.84 33.59,-81.38 33.91,-81.83 34.23,-82.29 34.68,-82.62 35.13,-82.94 35.66,-83.11 36.19,-83.28 36.75,-83.27 37.30,-83.26 37.83,-83.08 38.35,-82.89 38.79,-82.54 39.23,-82.20 39.53,-81.73 39.83,-81.27 39.97,-80.73 40.11,-80.19 40.07,-79.64 40.03,-79.08 39.82,-78.57 39.60,-78.05 39.24,-77.64 38.87,-77.22 38.39,-76.94 37.90,-76.66 37.90,-76.66 37.91,-76.66 36.60,-76.06 35.29,-75.46 34.34,-74.64 33.39,-73.81 32.37,-72.88 31.35,-71.95 29.92,-70.96 28.50,-69.97 27.37,-68.96 26.24,-67.94 25.27,-67.37 24.30,-66.80 23.69,-65.88 23.09,-64.96 21.80,-63.95 20.51,-62.94 19.75,-61.83 18.99,-60.72 17.83,-59.47 16.66,-58.22 15.60,-57.14 14.53,-56.07 13.89,-55.02 13.25,-53.98 12.44,-52.62 11.63,-51.26 11.06,-50.24 10.49,-49.21 9.84,-48.17 9.18,-47.12 8.47,-45.86 7.75,-44.60 7.25,-43.48 6.75,-42.35 6.04,-40.92 5.32,-39.48 4.75,-38.43 4.18,-37.39 3.61,-35.71 3.03,-34.04 2.83,-32.78 2.63,-31.53 2.31,-30.37 2.00,-29.21 1.90,-28.02 1.81,-26.82 1.71,-25.38 1.61,-23.93 1.61,-21.20 1.61,-18.48 1.54,-13.56 1.48,-8.64 1.90,-5.47 2.33,-2.30 2.27,-1.15 2.22,0 2.19,0.26 2.16,0.53 2.06,0.78 1.97,1.03 1.81,1.25 1.66,1.47 1.46,1.65 1.26,1.83 1.02,1.95 0.78,2.08 0.52,2.14 0.26,2.21 -0.00,2.21 -0.26,2.21 -0.52,2.14 -0.78,2.08 -1.02,1.95 -1.26,1.83 -1.46,1.65 -1.66,1.47 -1.81,1.25 -1.97,1.03 -2.06,0.78 -2.16,0.53 -2.19,0.26 -2.22,-0.00 -2.22,-0.00 L -2.22,0 Z"></path></g><g transform="translate(110 217.99999999999955) rotate(0 -15 37)" stroke="none"><path fill="#6b9080" d="M 2.39,-0.34 Q 2.39,-0.34 2.56,1.68 2.73,3.71 3.04,5.67 3.35,7.63 3.58,9.13 3.81,10.63 3.93,11.81 4.05,12.98 4.74,14.50 5.42,16.02 5.16,17.52 4.90,19.02 4.85,20.56 4.80,22.10 4.75,23.49 4.71,24.88 4.67,26.35 4.64,27.82 4.65,29.02 4.66,30.22 4.68,31.31 4.70,32.39 4.74,34.32 4.78,36.25 4.77,38.52 4.76,40.80 4.76,42.02 4.76,43.24 3.98,45.52 3.20,47.81 2.99,49.08 2.78,50.35 2.37,51.70 1.96,53.06 1.86,54.23 1.77,55.40 1.41,56.57 1.04,57.73 0.63,58.91 0.21,60.09 -0.27,61.28 -0.77,62.46 -1.26,63.74 -1.76,65.02 -2.46,66.01 -3.16,66.99 -3.84,68.14 -4.53,69.28 -5.36,70.20 -6.18,71.11 -7.58,72.67 -8.97,74.22 -10.15,74.93 -11.32,75.64 -12.70,75.86 -14.08,76.07 -15.33,76.33 -16.58,76.59 -19.03,76.49 -21.48,76.40 -23.11,75.84 -24.73,75.28 -25.90,74.75 -27.07,74.22 -28.54,72.98 -30.01,71.74 -30.86,70.89 -31.71,70.04 -32.79,68.50 -33.87,66.96 -34.45,65.86 -35.03,64.76 -35.57,62.82 -36.11,60.89 -36.17,59.76 -36.24,58.64 -36.28,56.87 -36.31,55.09 -36.34,53.95 -36.36,52.80 -36.38,50.98 -36.40,49.16 -36.41,47.99 -36.42,46.81 -35.92,44.66 -35.42,42.50 -35.20,41.99 -34.98,41.47 -34.61,41.06 -34.24,40.64 -33.76,40.36 -33.28,40.09 -32.73,39.98 -32.19,39.87 -31.63,39.94 -31.08,40.02 -30.58,40.26 -30.08,40.50 -29.68,40.90 -29.29,41.29 -29.04,41.78 -28.79,42.28 -28.71,42.83 -28.63,43.38 -28.73,43.93 -28.83,44.48 -29.10,44.97 -29.38,45.45 -29.79,45.83 -30.20,46.20 -30.71,46.42 -31.22,46.65 -31.78,46.70 -32.33,46.74 -32.87,46.61 -33.41,46.48 -33.88,46.18 -34.36,45.89 -34.71,45.46 -35.06,45.02 -35.25,44.50 -35.45,43.98 -35.47,43.42 -35.49,42.87 -35.32,42.33 -35.16,41.80 -34.84,41.35 -34.52,40.89 -34.07,40.56 -33.62,40.24 -33.09,40.07 -32.56,39.90 -32.00,39.92 -31.44,39.93 -30.92,40.12 -30.39,40.31 -29.96,40.65 -29.52,41.00 -29.22,41.47 -28.92,41.93 -28.78,42.47 -28.64,43.01 -28.68,43.57 -28.73,44.12 -28.73,44.12 -28.73,44.12 -29.15,45.47 -29.57,46.81 -29.58,47.99 -29.59,49.16 -29.61,50.97 -29.62,52.78 -29.63,53.88 -29.65,54.98 -29.60,56.59 -29.56,58.19 -29.46,59.49 -29.36,60.79 -28.59,62.64 -27.82,64.48 -27.21,65.56 -26.61,66.63 -25.01,67.71 -23.40,68.80 -22.43,69.40 -21.46,70.01 -19.84,70.28 -18.23,70.54 -16.79,70.18 -15.36,69.82 -14.27,69.96 -13.19,70.11 -12.19,69.18 -11.19,68.24 -10.16,67.42 -9.14,66.60 -7.97,64.82 -6.79,63.04 -6.32,61.67 -5.84,60.29 -5.40,59.29 -4.97,58.29 -4.54,57.04 -4.11,55.78 -3.70,54.54 -3.30,53.29 -2.68,51.39 -2.06,49.49 -1.78,47.96 -1.50,46.42 -1.13,44.80 -0.76,43.18 -0.76,41.99 -0.76,40.80 -0.77,38.52 -0.78,36.25 -0.74,34.32 -0.70,32.38 -0.67,31.29 -0.65,30.21 -0.63,29.00 -0.61,27.79 -0.63,26.30 -0.65,24.80 -0.56,22.49 -0.47,20.18 -0.01,18.04 0.44,15.89 0.08,14.70 -0.27,13.52 -0.30,12.33 -0.32,11.14 -0.44,9.78 -0.56,8.43 -1.07,6.38 -1.58,4.33 -1.98,2.33 -2.39,0.34 -2.39,0.05 -2.40,-0.24 -2.34,-0.52 -2.27,-0.80 -2.14,-1.07 -2.01,-1.33 -1.82,-1.55 -1.64,-1.77 -1.40,-1.94 -1.16,-2.11 -0.89,-2.22 -0.62,-2.33 -0.33,-2.37 -0.05,-2.41 0.23,-2.38 0.52,-2.35 0.80,-2.26 1.07,-2.16 1.32,-2.00 1.56,-1.84 1.76,-1.62 1.96,-1.41 2.10,-1.15 2.24,-0.90 2.31,-0.62 2.39,-0.34 2.39,-0.34 L 2.39,-0.34 Z"></path></g><g transform="translate(54 182.99999999999955) rotate(0 -21 29.5)" stroke="none"><path fill="#6b9080" d="M -1.61,1.61 Q -1.61,1.61 -2.75,0.46 -3.89,-0.69 -5.30,-1.67 -6.71,-2.65 -7.78,-2.95 -8.85,-3.26 -10.05,-3.72 -11.25,-4.18 -14.22,-4.46 -17.19,-4.74 -18.86,-4.78 -20.54,-4.83 -21.80,-4.51 -23.06,-4.20 -24.31,-3.38 -25.57,-2.55 -26.81,-1.79 -28.04,-1.03 -30.97,0.33 -33.90,1.69 -35.43,2.34 -36.97,3.00 -37.60,4.07 -38.23,5.14 -39.03,6.34 -39.82,7.54 -40.36,8.49 -40.91,9.43 -40.60,11.20 -40.29,12.97 -38.48,14.01 -36.67,15.04 -34.37,15.47 -32.08,15.90 -28.54,16.77 -25.00,17.63 -23.35,17.69 -21.71,17.75 -20.64,17.70 -19.57,17.65 -17.84,17.46 -16.12,17.26 -14.32,17.15 -12.52,17.04 -9.40,18.31 -6.28,19.58 -3.83,21.37 -1.39,23.16 -0.21,24.24 0.96,25.31 1.62,27.25 2.28,29.18 2.55,30.52 2.81,31.86 3.45,33.99 4.08,36.11 4.21,37.22 4.34,38.33 4.39,39.69 4.44,41.04 4.14,42.71 3.84,44.38 3.40,45.93 2.96,47.49 2.04,49.59 1.13,51.69 0.12,53.52 -0.87,55.35 -1.89,56.99 -2.90,58.64 -3.93,60.01 -4.97,61.39 -5.80,62.17 -6.64,62.94 -7.59,63.58 -8.54,64.22 -10.49,64.99 -12.45,65.76 -14.59,66.83 -16.73,67.90 -17.94,68.08 -19.14,68.26 -20.55,68.33 -21.95,68.40 -24.16,68.17 -26.37,67.94 -27.86,67.51 -29.36,67.07 -30.71,66.58 -32.07,66.09 -34.05,64.97 -36.03,63.85 -36.77,62.80 -37.51,61.76 -38.60,58.94 -39.69,56.11 -39.73,55.65 -39.77,55.18 -39.66,54.73 -39.55,54.27 -39.30,53.88 -39.05,53.48 -38.69,53.19 -38.33,52.90 -37.89,52.73 -37.45,52.57 -36.98,52.55 -36.52,52.54 -36.07,52.67 -35.62,52.81 -35.24,53.08 -34.86,53.35 -34.58,53.73 -34.31,54.11 -34.17,54.55 -34.03,55.00 -34.04,55.47 -34.05,55.93 -34.21,56.37 -34.37,56.81 -34.66,57.18 -34.95,57.54 -35.34,57.80 -35.74,58.05 -36.19,58.17 -36.64,58.28 -37.11,58.24 -37.58,58.21 -38.01,58.03 -38.44,57.84 -38.78,57.53 -39.13,57.22 -39.37,56.82 -39.60,56.41 -39.69,55.95 -39.78,55.49 -39.72,55.03 -39.66,54.57 -39.45,54.15 -39.25,53.73 -38.92,53.40 -38.59,53.06 -38.17,52.86 -37.75,52.65 -37.29,52.58 -36.83,52.52 -36.37,52.60 -35.91,52.69 -35.50,52.92 -35.09,53.14 -34.78,53.49 -34.46,53.84 -34.28,54.26 -34.09,54.69 -34.09,54.69 -34.09,54.69 -33.53,56.34 -32.97,57.99 -32.53,59.04 -32.09,60.08 -31.18,60.67 -30.27,61.26 -29.17,61.69 -28.06,62.12 -26.46,62.50 -24.86,62.87 -23.49,63.16 -22.13,63.45 -20.89,63.42 -19.65,63.40 -17.92,63.33 -16.19,63.27 -15.19,62.58 -14.19,61.89 -12.53,61.07 -10.87,60.25 -9.50,59.57 -8.12,58.88 -7.20,57.75 -6.27,56.62 -5.37,55.06 -4.48,53.50 -3.70,51.86 -2.92,50.21 -2.34,48.20 -1.76,46.18 -1.39,44.80 -1.02,43.43 -0.77,42.28 -0.52,41.12 -0.53,39.88 -0.53,38.65 -0.59,36.85 -0.65,35.06 -0.99,33.76 -1.34,32.47 -1.43,31.33 -1.52,30.19 -1.69,28.99 -1.86,27.79 -2.64,26.92 -3.42,26.05 -5.59,24.60 -7.75,23.16 -10.08,22.24 -12.40,21.31 -13.94,21.44 -15.47,21.57 -17.53,21.94 -19.60,22.31 -20.68,22.25 -21.75,22.18 -23.82,22.21 -25.88,22.23 -29.70,21.66 -33.52,21.09 -34.57,20.78 -35.63,20.48 -36.80,20.22 -37.97,19.97 -39.62,18.82 -41.27,17.66 -42.92,16.23 -44.57,14.80 -45.03,12.94 -45.49,11.08 -45.35,9.21 -45.21,7.34 -44.49,6.11 -43.77,4.89 -42.95,3.67 -42.12,2.46 -41.34,1.49 -40.55,0.51 -39.60,-0.15 -38.64,-0.82 -37.22,-1.40 -35.79,-1.97 -33.11,-3.51 -30.42,-5.05 -29.27,-5.69 -28.13,-6.34 -26.47,-7.48 -24.82,-8.62 -22.63,-8.84 -20.45,-9.06 -18.75,-9.03 -17.05,-9.00 -13.24,-8.70 -9.44,-8.40 -8.41,-7.90 -7.38,-7.40 -5.91,-6.80 -4.44,-6.20 -2.57,-5.05 -0.70,-3.90 0.45,-2.76 1.61,-1.61 1.79,-1.40 1.96,-1.18 2.07,-0.93 2.18,-0.68 2.23,-0.40 2.28,-0.13 2.26,0.13 2.25,0.41 2.17,0.67 2.08,0.94 1.94,1.17 1.80,1.41 1.60,1.60 1.41,1.80 1.17,1.94 0.94,2.08 0.67,2.17 0.41,2.25 0.13,2.26 -0.13,2.28 -0.41,2.23 -0.68,2.18 -0.93,2.07 -1.18,1.96 -1.40,1.78 -1.61,1.61 -1.61,1.61 L -1.61,1.61 Z"></path></g><g transform="translate(138 182.99999999999955) rotate(0 21 27.5)" stroke="none"><path fill="#6b9080" d="M 1.80,0 Q 1.80,0 1.76,2.01 1.72,4.02 1.70,6.03 1.67,8.03 1.33,17.53 1.00,27.03 0.55,32.25 0.10,37.46 -0.38,41.69 -0.87,45.93 -1.08,48.27 -1.29,50.61 -1.39,52.74 -1.49,54.86 -1.46,56.63 -1.43,58.40 -1.27,60.54 -1.11,62.68 -1.40,63.76 -1.69,64.85 -1.62,65.69 -1.56,66.52 -1.63,66.80 -1.69,67.09 -1.82,67.35 -1.96,67.61 -2.15,67.83 -2.34,68.05 -2.57,68.22 -2.81,68.39 -3.08,68.49 -3.35,68.60 -3.64,68.64 -3.93,68.68 -4.22,68.65 -4.51,68.62 -4.78,68.52 -5.05,68.42 -5.30,68.25 -5.54,68.09 -5.73,67.88 -5.93,67.66 -6.07,67.41 -6.21,67.15 -6.28,66.87 -6.35,66.59 -6.36,66.30 -6.36,66.01 -6.98,64.60 -7.60,63.19 -7.69,62.00 -7.78,60.82 -7.40,58.92 -7.02,57.02 -6.75,53.62 -6.48,50.22 -6.30,47.28 -6.12,44.34 -5.71,41.00 -5.29,37.66 -5.09,34.88 -4.89,32.10 -4.49,29.12 -4.09,26.14 -3.62,22.31 -3.15,18.49 -2.98,16.58 -2.82,14.68 -2.85,13.59 -2.88,12.50 -2.99,10.20 -3.10,7.90 -3.13,6.54 -3.15,5.17 -3.78,3.59 -4.42,2.01 -4.53,0.41 -4.64,-1.18 -4.26,-2.29 -3.89,-3.39 -3.47,-5.49 -3.04,-7.58 -2.84,-8.94 -2.64,-10.29 -1.77,-11.84 -0.89,-13.40 1.36,-13.76 3.63,-14.12 4.66,-13.52 5.69,-12.93 8.97,-8.29 12.25,-3.65 13.81,-1.28 15.37,1.08 16.37,3.14 17.37,5.20 18.87,8.37 20.38,11.54 21.82,14.30 23.27,17.06 24.46,19.43 25.64,21.79 27.26,24.80 28.89,27.80 29.67,29.40 30.46,31.00 31.82,33.32 33.19,35.65 33.92,36.99 34.66,38.32 35.76,39.52 36.86,40.72 37.51,41.65 38.16,42.58 39.53,43.97 40.90,45.37 42.06,46.86 43.23,48.36 43.63,49.49 44.03,50.62 44.94,51.57 45.86,52.52 46.18,53.82 46.51,55.12 47.19,56.65 47.88,58.18 48.95,59.97 50.02,61.75 50.09,62.27 50.15,62.80 50.05,63.31 49.95,63.83 49.69,64.29 49.43,64.74 49.03,65.09 48.64,65.44 48.15,65.65 47.67,65.85 47.15,65.89 46.62,65.93 46.11,65.80 45.60,65.67 45.16,65.38 44.72,65.10 44.39,64.69 44.06,64.27 43.88,63.78 43.71,63.28 43.69,62.76 43.68,62.23 43.84,61.73 44.00,61.23 44.31,60.80 44.62,60.38 45.05,60.07 45.47,59.77 45.98,59.62 46.48,59.46 47.01,59.48 47.53,59.50 48.03,59.68 48.52,59.87 48.93,60.20 49.34,60.53 49.62,60.98 49.90,61.42 50.02,61.93 50.15,62.44 50.10,62.97 50.05,63.49 49.84,63.98 49.63,64.46 49.28,64.85 48.93,65.24 48.47,65.49 48.01,65.75 47.49,65.85 46.97,65.94 46.45,65.87 45.93,65.79 45.46,65.56 44.99,65.32 44.62,64.95 44.25,64.57 44.02,64.10 43.79,63.63 43.79,63.63 43.79,63.63 43.47,62.65 43.16,61.67 42.55,60.65 41.95,59.64 41.62,58.52 41.29,57.41 40.89,56.03 40.48,54.65 39.75,53.88 39.02,53.10 38.24,51.24 37.45,49.39 36.75,48.25 36.04,47.12 35.18,46.01 34.32,44.90 33.44,43.35 32.56,41.81 32.03,40.81 31.51,39.82 31.01,38.55 30.51,37.28 28.97,34.83 27.43,32.38 26.80,30.85 26.16,29.32 24.44,26.33 22.72,23.34 21.44,21.07 20.17,18.80 18.54,16.06 16.91,13.33 15.24,10.33 13.57,7.33 12.50,5.70 11.43,4.06 9.48,1.80 7.53,-0.44 5.22,-3.90 2.91,-7.35 1.99,-8.33 1.08,-9.31 2.44,-9.35 3.79,-9.38 3.25,-7.94 2.71,-6.49 2.17,-4.94 1.62,-3.38 1.12,-1.64 0.63,0.10 0.56,1.51 0.50,2.91 0.81,3.96 1.13,5.01 1.10,6.48 1.06,7.95 0.98,9.27 0.91,10.60 0.78,11.67 0.65,12.75 0.46,13.86 0.27,14.98 0.07,16.90 -0.12,18.83 -0.52,22.67 -0.91,26.51 -1.20,29.38 -1.49,32.25 -1.55,35.13 -1.61,38.00 -1.82,41.21 -2.03,44.41 -1.95,47.39 -1.87,50.37 -1.84,54.14 -1.81,57.91 -2.03,59.88 -2.26,61.85 -2.77,63.12 -3.29,64.39 -2.43,65.46 -1.56,66.52 -1.63,66.80 -1.69,67.09 -1.82,67.35 -1.96,67.61 -2.15,67.83 -2.34,68.05 -2.57,68.22 -2.81,68.39 -3.08,68.49 -3.35,68.60 -3.64,68.64 -3.93,68.68 -4.22,68.65 -4.51,68.62 -4.78,68.52 -5.05,68.42 -5.30,68.25 -5.54,68.09 -5.73,67.88 -5.93,67.66 -6.07,67.41 -6.21,67.15 -6.28,66.87 -6.35,66.59 -6.36,66.30 -6.36,66.01 -6.29,65.52 -6.21,65.03 -5.54,63.66 -4.86,62.30 -4.66,60.32 -4.45,58.34 -4.36,56.55 -4.26,54.76 -4.19,52.57 -4.12,50.38 -3.94,47.99 -3.76,45.61 -3.32,41.42 -2.89,37.22 -2.52,32.08 -2.15,26.94 -1.91,17.48 -1.67,8.03 -1.70,6.03 -1.72,4.02 -1.76,2.01 -1.80,0 -1.77,-0.21 -1.75,-0.43 -1.67,-0.63 -1.59,-0.83 -1.47,-1.01 -1.34,-1.19 -1.18,-1.34 -1.02,-1.48 -0.83,-1.58 -0.63,-1.68 -0.42,-1.73 -0.21,-1.79 0.00,-1.79 0.21,-1.79 0.42,-1.73 0.63,-1.68 0.83,-1.58 1.02,-1.48 1.18,-1.33 1.34,-1.19 1.47,-1.01 1.59,-0.83 1.67,-0.63 1.75,-0.43 1.77,-0.21 1.80,0.00 1.80,0.00 L 1.80,0 Z"></path></g><g transform="translate(139 217.99999999999955) rotate(0 14 0)" stroke="none"><path fill="#6b9080" d="M 0,-2.30 Q 0,-2.30 1.43,-2.31 2.87,-2.33 4.63,-2.29 6.39,-2.24 10.02,-2.12 13.64,-2.00 16.33,-1.90 19.02,-1.81 20.45,-1.88 21.88,-1.94 24.77,-2.06 27.66,-2.17 28.01,-2.12 28.36,-2.06 28.67,-1.90 28.98,-1.73 29.22,-1.47 29.47,-1.22 29.61,-0.90 29.76,-0.58 29.80,-0.23 29.84,0.11 29.76,0.46 29.69,0.80 29.50,1.10 29.32,1.41 29.05,1.63 28.79,1.86 28.46,1.99 28.13,2.12 27.78,2.14 27.43,2.16 27.09,2.07 26.75,1.97 26.45,1.77 26.16,1.58 25.95,1.30 25.74,1.02 25.62,0.68 25.51,0.35 25.51,-0.00 25.51,-0.35 25.62,-0.68 25.74,-1.02 25.95,-1.30 26.16,-1.58 26.46,-1.78 26.75,-1.97 27.09,-2.07 27.43,-2.16 27.78,-2.14 28.13,-2.12 28.46,-1.99 28.79,-1.86 29.05,-1.63 29.32,-1.41 29.50,-1.10 29.69,-0.80 29.76,-0.46 29.84,-0.11 29.80,0.23 29.76,0.58 29.61,0.90 29.47,1.22 29.22,1.47 28.98,1.73 28.67,1.90 28.36,2.06 28.01,2.12 27.66,2.17 27.66,2.17 27.66,2.17 24.77,2.06 21.88,1.94 20.45,1.88 19.02,1.81 16.33,1.90 13.64,2.00 10.02,2.12 6.39,2.24 4.63,2.29 2.87,2.33 1.43,2.31 0,2.30 -0.27,2.26 -0.55,2.23 -0.81,2.13 -1.07,2.03 -1.29,1.88 -1.52,1.72 -1.71,1.51 -1.89,1.30 -2.02,1.06 -2.15,0.81 -2.22,0.54 -2.28,0.27 -2.28,-0.00 -2.28,-0.27 -2.22,-0.54 -2.15,-0.81 -2.02,-1.06 -1.89,-1.30 -1.71,-1.51 -1.52,-1.72 -1.29,-1.88 -1.07,-2.03 -0.81,-2.13 -0.55,-2.23 -0.27,-2.26 0.00,-2.30 0.00,-2.30 L 0,-2.30 Z"></path></g><g transform="translate(198 172.99999999999955) rotate(0 5 43.5)" stroke="none"><path fill="#6b9080" d="M 1.55,-0.17 Q 1.55,-0.17 1.80,2.41 2.06,5.00 2.44,8.69 2.83,12.38 3.55,17.38 4.28,22.37 4.59,28.31 4.90,34.24 5.32,40.18 5.73,46.11 5.90,51.54 6.08,56.96 6.72,61.19 7.36,65.43 8.19,68.63 9.03,71.83 9.40,75.33 9.78,78.82 10.27,80.45 10.76,82.07 11.14,84.22 11.52,86.37 11.51,86.62 11.49,86.88 11.40,87.12 11.30,87.36 11.14,87.55 10.97,87.75 10.75,87.88 10.53,88.01 10.28,88.07 10.03,88.12 9.78,88.10 9.52,88.07 9.29,87.96 9.06,87.85 8.87,87.68 8.68,87.50 8.56,87.28 8.44,87.05 8.40,86.80 8.36,86.54 8.40,86.29 8.44,86.04 8.56,85.81 8.68,85.58 8.87,85.41 9.05,85.23 9.29,85.12 9.52,85.01 9.77,84.99 10.03,84.96 10.28,85.01 10.53,85.07 10.75,85.20 10.97,85.33 11.14,85.53 11.30,85.72 11.40,85.96 11.49,86.20 11.51,86.45 11.52,86.71 11.45,86.96 11.38,87.20 11.24,87.42 11.10,87.63 10.89,87.78 10.69,87.94 10.45,88.02 10.20,88.10 9.95,88.10 9.69,88.10 9.45,88.02 9.20,87.94 9.00,87.79 8.80,87.63 8.65,87.42 8.51,87.21 8.44,86.96 8.37,86.71 8.37,86.71 8.37,86.71 8.15,84.75 7.93,82.79 7.53,80.95 7.14,79.11 6.79,75.80 6.45,72.50 5.58,69.16 4.71,65.83 4.04,61.44 3.38,57.06 3.20,51.68 3.01,46.30 2.58,40.35 2.14,34.39 1.82,28.59 1.49,22.79 0.72,17.74 -0.04,12.70 -0.47,9.02 -0.91,5.34 -1.23,2.75 -1.55,0.17 -1.55,-0.01 -1.54,-0.20 -1.50,-0.38 -1.45,-0.56 -1.36,-0.73 -1.27,-0.90 -1.15,-1.04 -1.02,-1.17 -0.86,-1.28 -0.71,-1.39 -0.53,-1.45 -0.35,-1.52 -0.17,-1.54 0.01,-1.56 0.20,-1.53 0.38,-1.51 0.56,-1.44 0.74,-1.37 0.89,-1.26 1.04,-1.15 1.17,-1.01 1.29,-0.87 1.38,-0.70 1.46,-0.53 1.50,-0.35 1.55,-0.17 1.55,-0.17 L 1.55,-0.17 Z"></path></g><g transform="translate(197 173.99999999999955) rotate(0 23.5 33.5)" stroke="none"><path fill="#6b9080" d="M -1.84,-1.84 Q -1.84,-1.84 -0.98,-2.72 -0.12,-3.60 0.79,-4.22 1.70,-4.83 3.01,-5.36 4.32,-5.89 6.02,-6.30 7.72,-6.72 9.30,-6.73 10.89,-6.74 12.20,-6.43 13.52,-6.12 15.17,-5.68 16.82,-5.23 17.75,-4.68 18.68,-4.13 20.74,-2.31 22.80,-0.50 24.75,1.76 26.71,4.02 27.70,5.36 28.70,6.70 30.05,8.47 31.41,10.24 32.22,12.33 33.02,14.41 33.59,16.47 34.16,18.52 34.08,20.14 34.00,21.75 33.56,23.49 33.11,25.24 31.84,27.16 30.57,29.07 29.82,30.11 29.07,31.15 27.99,32.09 26.90,33.03 26.03,33.84 25.16,34.65 24.04,35.44 22.91,36.23 21.43,36.90 19.95,37.56 18.33,38.60 16.70,39.63 15.63,40.51 14.55,41.38 13.32,42.22 12.09,43.07 10.98,43.76 9.88,44.45 9.64,44.70 9.40,44.94 9.11,45.12 8.82,45.30 8.49,45.41 8.17,45.51 7.83,45.54 7.49,45.56 7.15,45.50 6.81,45.45 6.50,45.31 6.19,45.17 5.91,44.97 5.64,44.76 5.43,44.49 5.21,44.23 5.07,43.92 4.93,43.61 4.86,43.27 4.79,42.94 4.81,42.59 4.83,42.25 4.93,41.93 5.02,41.60 5.20,41.30 5.37,41.01 7.32,40.77 9.28,40.54 11.08,40.24 12.89,39.95 14.23,40.30 15.58,40.65 17.25,41.50 18.92,42.36 21.12,44.09 23.32,45.82 25.59,47.73 27.87,49.65 29.06,50.32 30.25,50.99 31.60,52.36 32.95,53.73 33.84,54.91 34.73,56.08 35.58,57.01 36.43,57.93 37.71,59.15 38.99,60.36 39.68,61.33 40.36,62.30 41.43,63.30 42.49,64.31 43.65,65.42 44.80,66.54 46.28,67.32 47.76,68.10 48.17,68.35 48.59,68.59 48.90,68.95 49.22,69.32 49.40,69.76 49.58,70.21 49.61,70.69 49.64,71.17 49.52,71.63 49.39,72.10 49.13,72.50 48.86,72.90 48.48,73.19 48.10,73.49 47.65,73.65 47.19,73.80 46.71,73.81 46.23,73.81 45.77,73.66 45.32,73.51 44.93,73.23 44.54,72.94 44.27,72.54 44.00,72.15 43.86,71.69 43.73,71.22 43.75,70.74 43.77,70.26 43.95,69.81 44.12,69.36 44.43,69.00 44.74,68.63 45.15,68.37 45.56,68.12 46.03,68.01 46.50,67.91 46.97,67.95 47.45,68.00 47.89,68.20 48.33,68.40 48.68,68.73 49.03,69.05 49.26,69.48 49.49,69.90 49.58,70.37 49.66,70.85 49.58,71.32 49.51,71.80 49.29,72.23 49.07,72.65 48.72,72.99 48.38,73.32 47.94,73.53 47.51,73.73 47.03,73.79 46.55,73.84 46.08,73.75 45.61,73.65 45.61,73.65 45.61,73.65 43.79,72.44 41.97,71.24 41.03,70.28 40.09,69.31 38.87,67.99 37.66,66.66 36.48,65.27 35.31,63.87 34.10,62.44 32.90,61.00 31.95,59.86 31.00,58.73 30.37,57.75 29.74,56.77 28.85,55.78 27.96,54.79 26.60,53.95 25.24,53.12 22.87,51.51 20.49,49.90 18.51,48.73 16.53,47.57 14.66,46.80 12.79,46.04 11.03,45.96 9.27,45.88 7.83,45.55 6.39,45.23 8.14,44.84 9.88,44.45 9.64,44.70 9.40,44.94 9.11,45.12 8.82,45.30 8.49,45.41 8.17,45.51 7.83,45.54 7.49,45.56 7.15,45.50 6.81,45.45 6.50,45.31 6.19,45.17 5.91,44.97 5.64,44.76 5.43,44.49 5.21,44.23 5.07,43.92 4.93,43.61 4.86,43.27 4.79,42.94 4.81,42.59 4.83,42.25 4.93,41.93 5.02,41.60 5.20,41.30 5.37,41.01 5.89,40.79 6.42,40.57 7.80,39.65 9.18,38.72 10.17,38.07 11.15,37.41 13.46,35.68 15.78,33.94 16.80,33.35 17.81,32.75 19.72,31.76 21.63,30.78 23.34,29.41 25.04,28.04 25.72,27.20 26.40,26.35 27.15,25.17 27.90,23.99 28.33,21.97 28.77,19.94 28.29,18.06 27.81,16.18 27.43,15.05 27.05,13.93 26.53,12.71 26.00,11.50 25.32,10.62 24.63,9.75 23.83,8.70 23.02,7.64 20.72,5.50 18.42,3.36 16.90,2.10 15.38,0.85 14.44,0.27 13.50,-0.30 12.22,-0.73 10.93,-1.15 9.69,-1.09 8.45,-1.03 7.37,-0.91 6.30,-0.79 4.93,-0.31 3.57,0.15 2.70,1.00 1.84,1.84 1.59,2.04 1.35,2.23 1.06,2.36 0.77,2.49 0.46,2.55 0.15,2.60 -0.15,2.58 -0.47,2.56 -0.77,2.47 -1.07,2.38 -1.34,2.21 -1.61,2.05 -1.83,1.83 -2.05,1.61 -2.21,1.34 -2.38,1.07 -2.47,0.77 -2.56,0.47 -2.58,0.15 -2.60,-0.15 -2.55,-0.46 -2.49,-0.77 -2.36,-1.06 -2.23,-1.35 -2.04,-1.59 -1.84,-1.84 -1.84,-1.84 L -1.84,-1.84 Z"></path></g><g transform="translate(254.00000000000182 170.99999999999955) rotate(0 3.5 41.5)" stroke="none"><path fill="#6b9080" d="M 1.56,0 Q 1.56,0 1.52,3.16 1.49,6.32 1.75,9.32 2.01,12.32 2.69,18.21 3.36,24.10 3.93,29.20 4.51,34.30 5.03,38.77 5.56,43.23 5.78,46.60 6.01,49.97 6.10,53.14 6.19,56.31 6.23,58.51 6.27,60.72 6.57,63.61 6.86,66.50 7.06,68.35 7.25,70.19 7.38,71.85 7.51,73.52 7.63,74.78 7.75,76.05 8.34,77.69 8.93,79.34 9.06,80.94 9.19,82.54 9.15,82.90 9.11,83.26 8.95,83.58 8.80,83.90 8.55,84.16 8.30,84.42 7.98,84.58 7.66,84.74 7.30,84.79 6.95,84.85 6.60,84.78 6.24,84.72 5.93,84.55 5.61,84.38 5.37,84.11 5.13,83.85 4.98,83.52 4.84,83.19 4.80,82.84 4.77,82.48 4.85,82.13 4.93,81.78 5.12,81.48 5.31,81.17 5.59,80.95 5.87,80.72 6.20,80.59 6.54,80.46 6.89,80.45 7.25,80.43 7.60,80.53 7.94,80.64 8.23,80.84 8.53,81.05 8.74,81.34 8.95,81.62 9.06,81.97 9.17,82.31 9.17,82.66 9.16,83.02 9.04,83.36 8.92,83.70 8.70,83.98 8.48,84.26 8.18,84.46 7.88,84.66 7.53,84.75 7.19,84.84 6.83,84.81 6.47,84.79 6.14,84.65 5.81,84.51 5.54,84.28 5.27,84.04 5.09,83.73 4.91,83.42 4.84,83.07 4.77,82.72 4.77,82.72 4.77,82.72 4.73,80.58 4.69,78.43 4.43,77.31 4.17,76.18 4.24,74.90 4.31,73.63 4.34,72.01 4.36,70.40 4.29,68.59 4.22,66.78 3.91,63.77 3.60,60.77 3.56,58.58 3.51,56.39 3.41,53.27 3.31,50.16 3.08,46.86 2.85,43.56 2.30,39.09 1.76,34.62 1.16,29.52 0.57,24.43 -0.14,18.51 -0.86,12.59 -1.17,9.46 -1.49,6.32 -1.52,3.16 -1.56,0 -1.53,-0.18 -1.51,-0.37 -1.45,-0.54 -1.38,-0.72 -1.27,-0.88 -1.16,-1.03 -1.02,-1.16 -0.88,-1.28 -0.72,-1.37 -0.55,-1.46 -0.37,-1.50 -0.18,-1.55 0.00,-1.55 0.18,-1.55 0.37,-1.50 0.55,-1.46 0.72,-1.37 0.88,-1.28 1.02,-1.16 1.16,-1.03 1.27,-0.88 1.38,-0.72 1.45,-0.54 1.51,-0.37 1.53,-0.18 1.56,0.00 1.56,0.00 L 1.56,0 Z"></path></g><g transform="translate(256.0000000000018 168.99999999999955) rotate(0 24 39)" stroke="none"><path fill="#6b9080" d="M -0.55,-2.38 Q -0.55,-2.38 3.22,-3.10 6.99,-3.82 8.91,-4.14 10.83,-4.46 11.96,-4.69 13.08,-4.92 15.06,-4.77 17.05,-4.62 18.85,-4.19 20.64,-3.76 21.76,-3.03 22.88,-2.30 24.00,-1.80 25.12,-1.29 26.29,-0.75 27.46,-0.20 28.90,0.69 30.34,1.59 31.62,2.61 32.90,3.64 33.74,4.33 34.58,5.02 35.67,5.83 36.76,6.64 37.79,7.78 38.82,8.92 40.56,11.12 42.29,13.32 43.05,14.17 43.81,15.03 44.60,16.53 45.38,18.03 45.94,19.12 46.50,20.21 47.60,22.60 48.69,24.98 48.94,26.71 49.19,28.43 49.32,29.72 49.44,31.01 49.73,32.19 50.01,33.37 50.17,34.99 50.33,36.61 50.38,38.16 50.43,39.71 50.00,42.51 49.58,45.31 49.36,48.37 49.13,51.44 48.40,54.63 47.67,57.83 47.05,60.02 46.42,62.21 45.94,63.58 45.46,64.95 44.96,65.92 44.46,66.90 43.31,68.62 42.17,70.34 40.71,71.83 39.25,73.32 38.14,74.49 37.03,75.66 36.30,76.50 35.58,77.33 33.94,78.39 32.30,79.45 30.51,80.30 28.72,81.15 27.34,81.40 25.97,81.65 24.70,82.15 23.43,82.64 21.73,82.81 20.02,82.98 18.28,83.43 16.53,83.88 15.22,84.02 13.91,84.16 12.84,84.20 11.77,84.25 7.97,82.52 4.17,80.79 4.00,80.28 3.83,79.76 3.84,79.22 3.84,78.68 4.02,78.17 4.20,77.67 4.53,77.24 4.86,76.81 5.31,76.51 5.76,76.21 6.28,76.08 6.80,75.94 7.34,75.97 7.87,76.00 8.37,76.21 8.87,76.41 9.28,76.76 9.69,77.12 9.96,77.58 10.24,78.05 10.35,78.57 10.46,79.10 10.40,79.64 10.33,80.17 10.10,80.66 9.87,81.15 9.50,81.54 9.12,81.92 8.64,82.17 8.16,82.42 7.63,82.50 7.10,82.59 6.57,82.49 6.04,82.40 5.56,82.14 5.09,81.89 4.72,81.49 4.35,81.10 4.13,80.61 3.91,80.12 3.86,79.58 3.80,79.04 3.92,78.52 4.04,77.99 4.33,77.53 4.61,77.07 5.02,76.73 5.44,76.38 5.94,76.19 6.44,75.99 6.98,75.97 7.52,75.94 8.04,76.09 8.56,76.24 9.00,76.55 9.44,76.85 9.77,77.29 10.09,77.72 10.09,77.72 10.09,77.72 10.41,77.71 10.73,77.70 12.18,77.74 13.63,77.77 14.89,77.71 16.15,77.66 17.98,77.30 19.81,76.95 21.07,77.01 22.34,77.08 23.42,76.65 24.51,76.23 25.90,76.24 27.29,76.25 28.73,75.76 30.17,75.28 31.43,74.82 32.69,74.37 33.51,73.67 34.32,72.96 35.48,71.85 36.65,70.74 37.83,69.56 39.01,68.39 40.54,65.93 42.08,63.48 42.64,62.43 43.20,61.38 43.68,59.25 44.16,57.12 44.67,54.20 45.19,51.29 45.19,48.08 45.18,44.87 45.29,42.39 45.39,39.91 45.32,38.50 45.25,37.10 45.13,35.83 45.01,34.55 44.65,32.98 44.28,31.41 44.22,30.29 44.16,29.16 43.98,27.91 43.79,26.66 43.41,25.51 43.02,24.36 42.44,23.44 41.87,22.52 41.34,21.40 40.80,20.28 40.35,19.29 39.91,18.30 39.13,17.35 38.36,16.40 37.22,15.09 36.08,13.79 34.89,12.29 33.70,10.80 31.70,9.22 29.70,7.64 28.69,6.83 27.68,6.03 26.42,5.32 25.17,4.61 24.07,4.08 22.96,3.55 21.44,2.88 19.93,2.22 18.90,1.36 17.88,0.50 16.42,-0.05 14.96,-0.61 13.29,-0.53 11.61,-0.45 9.78,-0.04 7.95,0.37 4.25,1.37 0.55,2.38 0.25,2.41 -0.03,2.44 -0.32,2.40 -0.62,2.36 -0.89,2.25 -1.16,2.14 -1.40,1.97 -1.64,1.80 -1.84,1.58 -2.03,1.35 -2.16,1.09 -2.30,0.83 -2.36,0.54 -2.43,0.25 -2.42,-0.03 -2.42,-0.33 -2.34,-0.61 -2.27,-0.90 -2.13,-1.16 -1.99,-1.42 -1.79,-1.63 -1.59,-1.85 -1.34,-2.01 -1.10,-2.18 -0.82,-2.28 -0.55,-2.38 -0.55,-2.38 L -0.55,-2.38 Z"></path></g><g transform="translate(319.0000000000018 166.99999999999955) rotate(0 2.5 39.5)" stroke="none"><path fill="#6b9080" d="M 1.49,-0.44 Q 1.49,-0.44 2.32,2.43 3.15,5.32 3.80,8.62 4.44,11.93 4.99,15.04 5.55,18.16 5.78,21.57 6.02,24.97 6.11,30.16 6.21,35.35 6.24,39.85 6.28,44.35 6.00,46.91 5.72,49.47 5.32,52.83 4.91,56.19 4.74,58.73 4.57,61.27 4.62,62.65 4.66,64.03 4.74,65.18 4.81,66.32 4.97,68.00 5.13,69.67 5.26,71.32 5.38,72.97 5.48,74.09 5.58,75.20 5.58,76.62 5.59,78.04 5.55,78.35 5.51,78.66 5.40,78.96 5.29,79.25 5.11,79.50 4.94,79.76 4.70,79.97 4.47,80.18 4.19,80.32 3.91,80.47 3.61,80.54 3.31,80.62 2.99,80.62 2.68,80.62 2.38,80.54 2.07,80.47 1.80,80.32 1.52,80.17 1.29,79.97 1.05,79.76 0.88,79.50 0.70,79.25 0.59,78.95 0.48,78.66 0.44,78.35 0.40,78.04 0.47,77.63 0.54,77.21 0.73,76.84 0.93,76.47 1.24,76.18 1.54,75.90 1.92,75.72 2.30,75.54 2.72,75.50 3.14,75.45 3.55,75.54 3.95,75.63 4.31,75.85 4.67,76.07 4.95,76.38 5.22,76.70 5.37,77.09 5.53,77.48 5.55,77.90 5.57,78.32 5.46,78.73 5.35,79.13 5.11,79.48 4.88,79.82 4.54,80.08 4.21,80.33 3.81,80.47 3.41,80.60 2.99,80.60 2.58,80.60 2.18,80.47 1.78,80.33 1.45,80.08 1.11,79.82 0.88,79.48 0.64,79.13 0.53,78.73 0.42,78.32 0.44,77.90 0.46,77.48 0.62,77.09 0.77,76.70 1.05,76.38 1.32,76.06 1.68,75.85 2.04,75.63 2.45,75.54 2.86,75.45 3.27,75.50 3.69,75.54 4.07,75.72 4.45,75.90 4.76,76.18 5.06,76.47 5.26,76.84 5.45,77.21 5.52,77.63 5.59,78.04 5.59,78.04 5.59,78.04 5.55,78.35 5.51,78.66 5.40,78.95 5.29,79.25 5.11,79.50 4.94,79.76 4.70,79.97 4.47,80.18 4.19,80.32 3.91,80.47 3.61,80.54 3.31,80.62 2.99,80.62 2.68,80.62 2.38,80.54 2.07,80.47 1.80,80.32 1.52,80.17 1.29,79.97 1.05,79.76 0.88,79.50 0.70,79.25 0.59,78.95 0.48,78.66 0.44,78.35 0.40,78.04 0.41,76.62 0.41,75.20 0.51,74.08 0.61,72.96 0.74,71.30 0.88,69.64 1.07,67.94 1.27,66.23 1.41,65.05 1.54,63.87 1.73,62.48 1.92,61.10 2.09,58.49 2.27,55.88 2.66,52.53 3.06,49.18 3.32,46.77 3.58,44.37 3.53,39.89 3.48,35.41 3.37,30.29 3.26,25.17 3.02,21.92 2.77,18.66 2.19,15.58 1.61,12.50 0.95,9.34 0.29,6.17 -0.60,3.31 -1.49,0.44 -1.52,0.26 -1.56,0.07 -1.54,-0.11 -1.53,-0.29 -1.47,-0.47 -1.41,-0.65 -1.31,-0.81 -1.21,-0.97 -1.08,-1.10 -0.95,-1.23 -0.78,-1.33 -0.62,-1.43 -0.44,-1.48 -0.26,-1.53 -0.07,-1.54 0.11,-1.55 0.29,-1.52 0.48,-1.48 0.65,-1.40 0.82,-1.32 0.96,-1.21 1.11,-1.09 1.23,-0.94 1.34,-0.79 1.42,-0.62 1.49,-0.44 1.49,-0.44 L 1.49,-0.44 Z"></path></g><g transform="translate(348.04622395833394 169.35091145833348) rotate(0 22 37)" stroke="none"><path fill="#6b9080" d="M 2.04,0 Q 2.04,0 2.04,1.72 2.03,3.44 2.51,12.17 2.99,20.89 3.45,32.41 3.91,43.92 4.08,49.68 4.26,55.44 4.31,59.33 4.37,63.22 4.43,65.16 4.49,67.10 4.61,68.21 4.74,69.33 4.92,71.40 5.11,73.48 5.24,74.80 5.37,76.11 5.42,76.65 5.48,77.19 5.44,77.49 5.40,77.79 5.30,78.07 5.19,78.35 5.02,78.59 4.85,78.84 4.63,79.04 4.41,79.24 4.14,79.38 3.88,79.52 3.59,79.59 3.30,79.66 3.00,79.66 2.70,79.66 2.41,79.59 2.12,79.52 1.85,79.38 1.59,79.24 1.36,79.04 1.14,78.84 0.97,78.60 0.80,78.35 0.69,78.07 0.59,77.79 0.55,77.50 0.51,77.20 0.50,75.55 0.49,73.89 0.46,72.77 0.42,71.65 0.42,70.32 0.42,68.98 0.17,67.80 -0.07,66.61 -0.06,63.79 -0.04,60.97 0.01,58.10 0.08,55.23 0.15,50.56 0.22,45.89 0.28,43.34 0.33,40.78 -0.01,39.59 -0.36,38.40 -0.56,36.85 -0.76,35.30 -1.02,33.31 -1.28,31.32 -1.65,27.23 -2.02,23.14 -2.19,21.12 -2.35,19.10 -2.53,17.95 -2.71,16.80 -2.82,15.42 -2.92,14.03 -3.01,12.88 -3.10,11.72 -3.24,10.32 -3.38,8.92 -3.39,7.50 -3.40,6.08 -3.50,4.51 -3.60,2.94 -3.23,1.60 -2.86,0.26 -0.42,-0.59 2.01,-1.45 3.18,-0.43 4.35,0.59 5.72,3.09 7.08,5.60 10.68,11.75 14.28,17.91 16.95,23.19 19.62,28.47 21.88,33.32 24.13,38.17 25.93,41.95 27.72,45.73 29.31,48.75 30.91,51.78 32.12,53.59 33.33,55.41 34.02,56.52 34.71,57.64 35.32,58.63 35.92,59.62 36.78,60.30 37.64,60.97 38.21,62.02 38.77,63.07 39.95,64.18 41.13,65.29 42.23,66.32 43.33,67.35 44.24,68.59 45.15,69.83 46.27,70.68 47.39,71.53 47.50,71.90 47.61,72.27 47.62,72.65 47.64,73.03 47.56,73.41 47.48,73.78 47.32,74.13 47.15,74.47 46.91,74.77 46.67,75.06 46.36,75.29 46.06,75.52 45.71,75.67 45.35,75.82 44.98,75.88 44.60,75.94 44.22,75.91 43.84,75.88 43.47,75.76 43.11,75.64 42.79,75.43 42.47,75.23 42.20,74.95 41.94,74.67 41.75,74.34 41.56,74.01 41.18,72.43 40.80,70.84 41.02,68.55 41.23,66.27 41.23,65.04 41.22,63.81 41.10,59.60 40.97,55.38 40.91,53.58 40.84,51.78 40.74,50.72 40.64,49.66 40.47,45.79 40.31,41.92 40.01,38.57 39.70,35.23 39.60,32.58 39.50,29.94 38.92,25.15 38.33,20.36 38.10,17.41 37.86,14.45 37.77,10.87 37.68,7.28 37.32,5.61 36.95,3.93 36.70,2.55 36.45,1.16 36.30,-1.14 36.14,-3.45 36.18,-3.75 36.22,-4.05 36.35,-4.32 36.48,-4.59 36.70,-4.81 36.91,-5.02 37.18,-5.16 37.45,-5.30 37.75,-5.34 38.05,-5.38 38.35,-5.33 38.65,-5.27 38.91,-5.13 39.18,-4.98 39.38,-4.75 39.58,-4.53 39.71,-4.25 39.83,-3.97 39.85,-3.67 39.88,-3.37 39.81,-3.07 39.74,-2.78 39.58,-2.52 39.41,-2.27 39.18,-2.07 38.94,-1.88 38.66,-1.78 38.38,-1.67 38.07,-1.66 37.77,-1.65 37.48,-1.74 37.19,-1.82 36.94,-2.00 36.69,-2.18 36.52,-2.42 36.34,-2.67 36.25,-2.96 36.16,-3.24 36.16,-3.55 36.17,-3.85 36.27,-4.14 36.37,-4.42 36.56,-4.66 36.75,-4.90 37.01,-5.06 37.26,-5.23 37.55,-5.30 37.85,-5.38 38.15,-5.35 38.45,-5.33 38.73,-5.21 39.01,-5.09 39.24,-4.89 39.46,-4.69 39.62,-4.43 39.77,-4.17 39.83,-3.87 39.88,-3.57 39.88,-3.57 39.88,-3.57 39.92,-1.39 39.96,0.78 40.00,2.07 40.04,3.35 40.35,5.27 40.65,7.18 40.80,10.67 40.95,14.16 41.27,17.04 41.58,19.93 42.30,24.81 43.02,29.70 43.27,32.23 43.53,34.75 44.06,38.17 44.59,41.58 45.05,46.52 45.51,51.46 45.69,53.22 45.87,54.98 46.33,59.39 46.78,63.79 46.79,65.02 46.79,66.24 47.09,68.89 47.39,71.53 47.50,71.90 47.61,72.27 47.62,72.65 47.64,73.03 47.56,73.41 47.48,73.78 47.32,74.13 47.15,74.47 46.91,74.77 46.67,75.06 46.36,75.29 46.06,75.52 45.71,75.67 45.35,75.82 44.98,75.88 44.60,75.94 44.22,75.91 43.84,75.88 43.48,75.76 43.11,75.64 42.79,75.43 42.47,75.23 42.20,74.95 41.94,74.67 41.75,74.34 41.56,74.01 41.15,73.53 40.75,73.04 39.88,72.08 39.02,71.13 38.14,70.00 37.27,68.87 36.60,67.66 35.92,66.46 35.39,65.28 34.86,64.10 33.70,62.71 32.54,61.32 32.11,60.24 31.68,59.16 31.29,58.11 30.89,57.07 29.55,55.15 28.21,53.24 26.52,50.19 24.82,47.15 22.92,43.41 21.03,39.67 18.66,34.94 16.30,30.22 13.51,25.15 10.72,20.08 6.89,14.06 3.06,8.04 1.81,6.25 0.57,4.46 -0.32,3.49 -1.22,2.53 0.18,2.78 1.60,3.02 1.50,4.55 1.40,6.08 1.39,7.49 1.38,8.90 1.26,10.28 1.14,11.66 1.08,12.80 1.02,13.94 0.98,15.24 0.94,16.55 0.92,17.68 0.89,18.81 1.10,20.79 1.30,22.78 1.79,26.76 2.28,30.73 2.70,32.85 3.13,34.97 3.17,36.31 3.22,37.64 3.45,39.20 3.68,40.76 3.76,43.31 3.84,45.87 3.95,50.51 4.06,55.16 4.23,57.96 4.41,60.77 4.66,63.19 4.92,65.61 5.25,67.29 5.57,68.96 5.57,70.31 5.57,71.65 5.53,72.77 5.50,73.89 5.49,75.54 5.48,77.19 5.44,77.49 5.40,77.79 5.30,78.07 5.19,78.35 5.02,78.59 4.85,78.84 4.63,79.04 4.41,79.24 4.14,79.38 3.88,79.52 3.59,79.59 3.30,79.66 3.00,79.66 2.70,79.66 2.41,79.59 2.12,79.52 1.85,79.38 1.59,79.24 1.36,79.04 1.14,78.84 0.97,78.60 0.80,78.35 0.69,78.07 0.59,77.79 0.55,77.50 0.51,77.20 0.56,76.66 0.62,76.12 0.74,74.81 0.87,73.49 1.04,71.44 1.20,69.38 1.29,68.27 1.38,67.16 1.36,65.23 1.33,63.30 1.20,59.43 1.07,55.56 0.79,49.82 0.51,44.08 -0.08,32.61 -0.69,21.13 -1.36,12.29 -2.03,3.45 -2.04,1.72 -2.04,0 -2.01,-0.24 -1.98,-0.49 -1.90,-0.72 -1.81,-0.95 -1.67,-1.15 -1.53,-1.35 -1.34,-1.52 -1.16,-1.68 -0.94,-1.80 -0.72,-1.91 -0.48,-1.97 -0.24,-2.03 0.00,-2.03 0.24,-2.03 0.48,-1.97 0.72,-1.91 0.94,-1.80 1.16,-1.68 1.34,-1.52 1.53,-1.35 1.67,-1.15 1.81,-0.95 1.90,-0.72 1.98,-0.49 2.01,-0.24 2.04,0.00 2.04,0.00 L 2.04,0 Z"></path></g><g transform="translate(95 69) rotate(0 -4 -24.5)" stroke="none"><path fill="#6b9080" d="M 1.88,-1.88 Q 1.88,-1.88 2.75,-1.01 3.63,-0.14 4.24,0.76 4.86,1.68 5.90,2.76 6.94,3.85 8.08,4.96 9.22,6.07 11.08,6.80 12.94,7.53 11.38,7.60 9.82,7.68 9.83,5.78 9.84,3.87 9.64,2.58 9.44,1.28 8.83,0.01 8.22,-1.25 8.32,-2.64 8.41,-4.03 8.42,-3.63 8.42,-3.22 8.42,-3.61 8.41,-4.00 8.50,-4.38 8.59,-4.76 8.76,-5.10 8.94,-5.45 9.19,-5.74 9.44,-6.04 9.76,-6.26 10.08,-6.49 10.44,-6.63 10.80,-6.78 11.18,-6.83 11.57,-6.88 11.95,-6.84 12.34,-6.80 12.70,-6.67 13.07,-6.53 13.39,-6.32 13.72,-6.10 13.98,-5.82 14.24,-5.53 14.43,-5.19 14.61,-4.85 14.71,-4.47 14.81,-4.10 14.09,-5.16 13.36,-6.22 14.31,-5.67 15.26,-5.12 16.55,-4.78 17.84,-4.44 18.94,-4.35 20.05,-4.27 21.20,-4.10 22.36,-3.94 23.10,-5.18 23.84,-6.42 23.60,-7.56 23.36,-8.70 22.43,-9.57 21.51,-10.44 20.28,-10.97 19.05,-11.50 18.17,-11.55 17.29,-11.60 16.90,-11.71 16.51,-11.82 16.15,-12.01 15.80,-12.21 15.50,-12.49 15.20,-12.76 14.98,-13.10 14.75,-13.44 14.62,-13.83 14.48,-14.21 14.44,-14.62 14.40,-15.02 14.46,-15.42 14.52,-15.83 14.67,-16.20 14.83,-16.58 15.07,-16.91 15.31,-17.24 15.62,-17.50 15.93,-17.77 16.29,-17.95 16.66,-18.13 17.05,-18.21 17.45,-18.30 17.86,-18.29 18.26,-18.28 19.51,-18.78 20.76,-19.28 21.83,-19.64 22.90,-20.00 23.63,-21.24 24.37,-22.48 24.92,-23.40 25.47,-24.33 25.91,-25.71 26.34,-27.10 26.22,-28.34 26.10,-29.59 26.07,-30.86 26.04,-32.13 24.51,-31.85 22.98,-31.57 21.55,-31.53 20.12,-31.49 18.35,-31.13 16.59,-30.77 16.03,-30.71 15.47,-30.66 15.05,-30.63 14.63,-30.60 14.22,-30.67 13.81,-30.75 13.42,-30.92 13.04,-31.09 12.71,-31.34 12.38,-31.60 12.12,-31.93 11.86,-32.26 11.69,-32.64 11.51,-33.02 11.43,-33.43 11.36,-33.84 11.38,-34.26 11.40,-34.68 11.52,-35.08 11.65,-35.48 11.86,-35.84 12.08,-36.20 12.37,-36.50 12.67,-36.80 13.02,-37.02 13.38,-37.23 13.78,-37.36 14.18,-37.49 14.39,-38.89 14.61,-40.30 15.56,-41.72 16.51,-43.14 17.03,-44.61 17.55,-46.08 17.54,-47.35 17.52,-48.62 16.74,-49.89 15.95,-51.15 14.80,-51.30 13.64,-51.44 11.37,-51.10 9.11,-50.76 8.16,-49.62 7.21,-48.49 6.13,-47.30 5.05,-46.11 4.56,-45.39 4.08,-44.66 3.86,-44.35 3.65,-44.04 3.37,-43.78 3.08,-43.53 2.75,-43.35 2.41,-43.17 2.04,-43.08 1.67,-42.99 1.29,-42.99 0.91,-42.98 0.54,-43.07 0.17,-43.16 -0.15,-43.34 -0.49,-43.51 -0.78,-43.76 -1.06,-44.02 -1.28,-44.33 -1.50,-44.64 -1.63,-44.99 -1.77,-45.35 -1.82,-45.73 -1.86,-46.10 -1.82,-46.48 -1.78,-46.86 -1.64,-47.21 -1.51,-47.57 -2.22,-48.37 -2.92,-49.16 -3.41,-50.23 -3.89,-51.29 -4.80,-52.14 -5.70,-52.99 -6.99,-53.72 -8.28,-54.44 -9.40,-54.99 -10.52,-55.54 -11.53,-54.96 -12.54,-54.39 -14.16,-53.77 -15.77,-53.15 -15.67,-51.67 -15.57,-50.19 -14.74,-49.05 -13.91,-47.92 -13.02,-46.46 -12.12,-45.00 -12.21,-43.40 -12.29,-41.80 -13.01,-40.68 -13.73,-39.56 -15.48,-39.15 -17.24,-38.74 -19.40,-39.12 -21.56,-39.49 -22.69,-39.88 -23.83,-40.27 -24.98,-40.47 -26.14,-40.67 -27.18,-39.87 -28.22,-39.07 -28.02,-37.80 -27.83,-36.53 -26.71,-35.91 -25.59,-35.29 -23.76,-34.36 -21.93,-33.42 -20.43,-32.93 -18.93,-32.43 -18.04,-29.26 -17.14,-26.09 -18.50,-25.35 -19.87,-24.60 -21.63,-24.18 -23.39,-23.75 -24.74,-23.62 -26.08,-23.49 -27.10,-22.69 -28.11,-21.89 -29.83,-21.04 -31.54,-20.19 -33.00,-19.43 -34.46,-18.67 -33.22,-18.92 -31.98,-19.16 -30.82,-19.25 -29.66,-19.33 -28.20,-19.36 -26.73,-19.38 -25.23,-19.41 -23.73,-19.43 -22.67,-19.16 -21.61,-18.88 -20.47,-17.23 -19.34,-15.58 -19.45,-14.35 -19.55,-13.12 -20.04,-11.52 -20.53,-9.93 -20.49,-8.86 -20.45,-7.78 -20.54,-6.42 -20.63,-5.06 -20.64,-3.54 -20.65,-2.03 -20.08,-3.20 -19.52,-4.38 -19.51,-6.11 -19.50,-7.85 -19.45,-8.27 -19.39,-8.69 -19.24,-9.08 -19.09,-9.48 -18.85,-9.82 -18.61,-10.17 -18.29,-10.45 -17.97,-10.73 -17.59,-10.92 -17.22,-11.11 -16.81,-11.21 -16.40,-11.31 -15.98,-11.31 -15.55,-11.31 -15.14,-11.20 -14.74,-11.10 -14.36,-10.90 -13.99,-10.70 -13.68,-10.42 -13.36,-10.14 -13.12,-9.79 -12.89,-9.44 -12.74,-9.04 -12.59,-8.65 -12.54,-8.23 -12.49,-7.81 -12.12,-6.12 -11.75,-4.44 -12.03,-2.67 -12.30,-0.90 -12.42,0.46 -12.54,1.83 -11.98,2.81 -11.42,3.79 -10.39,3.03 -9.36,2.26 -8.47,1.43 -7.58,0.59 -4.40,-1.48 -1.22,-3.56 -0.68,-3.42 -0.14,-3.29 0.32,-2.99 0.80,-2.69 1.15,-2.26 1.50,-1.82 1.70,-1.30 1.89,-0.78 1.91,-0.22 1.92,0.33 1.76,0.87 1.60,1.40 1.28,1.86 0.95,2.31 0.50,2.64 0.05,2.97 -0.48,3.14 -1.01,3.30 -1.57,3.29 -2.13,3.28 -2.66,3.08 -3.18,2.89 -3.62,2.55 -4.06,2.20 -4.36,1.73 -4.66,1.26 -4.80,0.71 -4.94,0.17 -4.89,-0.38 -4.85,-0.93 -4.63,-1.45 -4.41,-1.96 -4.04,-2.38 -3.67,-2.80 -3.18,-3.07 -2.70,-3.35 -2.15,-3.46 -1.60,-3.57 -1.04,-3.49 -0.49,-3.42 0.00,-3.17 0.50,-2.93 0.90,-2.53 1.30,-2.14 1.55,-1.64 1.80,-1.14 1.88,-0.58 1.95,-0.03 1.85,0.51 1.75,1.06 1.47,1.55 1.20,2.04 0.78,2.41 0.37,2.78 -0.13,3.01 -0.65,3.23 -1.20,3.28 -1.76,3.33 -1.76,3.33 -1.76,3.33 -1.33,2.58 -0.91,1.83 -1.51,2.95 -2.12,4.08 -2.91,4.93 -3.70,5.77 -4.33,6.67 -4.96,7.57 -6.51,8.53 -8.07,9.48 -9.35,9.93 -10.64,10.38 -12.23,10.21 -13.81,10.04 -15.11,9.28 -16.41,8.53 -17.45,7.08 -18.48,5.63 -18.91,4.36 -19.33,3.10 -19.29,1.26 -19.24,-0.56 -18.92,-2.03 -18.61,-3.50 -19.05,-5.68 -19.50,-7.85 -19.45,-8.27 -19.39,-8.69 -19.24,-9.08 -19.09,-9.48 -18.85,-9.82 -18.61,-10.17 -18.29,-10.45 -17.97,-10.73 -17.60,-10.92 -17.22,-11.11 -16.81,-11.21 -16.40,-11.31 -15.98,-11.31 -15.55,-11.31 -15.14,-11.20 -14.74,-11.10 -14.36,-10.90 -13.99,-10.70 -13.68,-10.42 -13.36,-10.14 -13.12,-9.79 -12.89,-9.44 -12.74,-9.05 -12.59,-8.65 -12.54,-8.23 -12.49,-7.81 -12.49,-6.51 -12.50,-5.21 -12.53,-4.10 -12.57,-3.00 -12.87,-1.44 -13.16,0.10 -14.59,1.75 -16.03,3.40 -17.97,3.88 -19.92,4.36 -21.33,4.17 -22.74,3.97 -23.74,3.49 -24.74,3.02 -25.60,2.00 -26.46,0.97 -26.90,-0.47 -27.33,-1.93 -27.33,-3.52 -27.33,-5.11 -27.37,-7.25 -27.41,-9.40 -26.90,-11.27 -26.39,-13.14 -25.83,-14.20 -25.28,-15.26 -25.51,-13.92 -25.74,-12.59 -27.25,-12.62 -28.76,-12.66 -29.83,-12.70 -30.90,-12.74 -32.24,-12.91 -33.59,-13.07 -35.25,-13.75 -36.92,-14.44 -37.88,-15.13 -38.84,-15.82 -39.42,-17.04 -40.00,-18.25 -39.80,-19.64 -39.59,-21.02 -38.53,-22.36 -37.47,-23.69 -36.19,-24.54 -34.90,-25.38 -32.56,-27.08 -30.22,-28.77 -29.32,-29.38 -28.42,-29.99 -26.54,-30.29 -24.66,-30.59 -23.07,-30.75 -21.48,-30.92 -21.90,-28.81 -22.32,-26.70 -24.00,-27.18 -25.68,-27.66 -26.76,-28.16 -27.84,-28.67 -28.99,-29.42 -30.14,-30.17 -31.75,-31.51 -33.35,-32.84 -33.90,-34.07 -34.45,-35.29 -34.81,-36.63 -35.17,-37.97 -34.64,-39.93 -34.11,-41.90 -32.62,-43.25 -31.13,-44.60 -29.81,-45.49 -28.49,-46.38 -27.19,-46.74 -25.89,-47.10 -23.96,-46.82 -22.03,-46.53 -19.77,-45.80 -17.52,-45.07 -18.48,-44.52 -19.43,-43.98 -20.48,-45.75 -21.53,-47.52 -21.94,-48.82 -22.34,-50.12 -22.19,-51.92 -22.04,-53.71 -21.49,-54.75 -20.94,-55.79 -20.44,-56.78 -19.94,-57.76 -18.83,-58.57 -17.73,-59.37 -16.40,-59.97 -15.08,-60.56 -13.67,-61.00 -12.26,-61.43 -10.87,-61.66 -9.48,-61.88 -8.34,-61.59 -7.20,-61.29 -5.57,-60.52 -3.94,-59.74 -2.41,-58.62 -0.89,-57.50 0.17,-56.26 1.23,-55.02 1.79,-53.76 2.35,-52.51 2.84,-51.39 3.33,-50.27 3.72,-48.93 4.12,-47.60 4.10,-46.13 4.08,-44.66 3.86,-44.35 3.65,-44.04 3.37,-43.78 3.08,-43.53 2.75,-43.35 2.41,-43.17 2.04,-43.08 1.67,-42.99 1.29,-42.99 0.91,-42.98 0.54,-43.07 0.17,-43.16 -0.15,-43.34 -0.49,-43.51 -0.78,-43.76 -1.06,-44.02 -1.28,-44.33 -1.50,-44.64 -1.63,-44.99 -1.77,-45.35 -1.82,-45.73 -1.86,-46.10 -1.82,-46.48 -1.78,-46.86 -1.64,-47.21 -1.51,-47.57 -0.71,-48.75 0.09,-49.93 1.54,-51.93 2.98,-53.92 3.84,-54.85 4.70,-55.77 6.89,-56.65 9.08,-57.54 10.92,-58.04 12.77,-58.53 13.85,-58.50 14.93,-58.47 16.38,-58.28 17.82,-58.08 19.13,-57.31 20.44,-56.55 21.49,-54.91 22.55,-53.27 23.07,-52.30 23.59,-51.33 23.99,-48.95 24.39,-46.57 24.28,-45.45 24.18,-44.34 23.57,-42.67 22.97,-41.00 22.18,-39.57 21.40,-38.14 20.76,-37.17 20.12,-36.21 19.61,-35.24 19.10,-34.26 18.56,-33.23 18.01,-32.20 16.74,-31.43 15.47,-30.66 15.05,-30.63 14.63,-30.60 14.22,-30.67 13.81,-30.75 13.42,-30.92 13.04,-31.09 12.71,-31.34 12.38,-31.60 12.12,-31.93 11.86,-32.26 11.69,-32.64 11.51,-33.02 11.43,-33.43 11.36,-33.84 11.38,-34.26 11.40,-34.68 11.52,-35.08 11.65,-35.48 11.86,-35.84 12.08,-36.20 12.37,-36.50 12.67,-36.80 13.02,-37.02 13.38,-37.23 13.78,-37.36 14.18,-37.49 15.15,-37.59 16.12,-37.70 18.16,-38.08 20.20,-38.47 21.65,-38.43 23.10,-38.39 24.58,-37.88 26.05,-37.36 27.27,-37.26 28.48,-37.15 29.50,-36.72 30.52,-36.29 31.30,-35.17 32.09,-34.06 32.38,-32.61 32.67,-31.16 33.00,-29.52 33.33,-27.88 33.01,-26.21 32.69,-24.54 32.31,-23.29 31.93,-22.03 31.50,-21.05 31.06,-20.07 30.25,-18.75 29.44,-17.43 28.20,-16.25 26.96,-15.06 25.48,-14.32 24.00,-13.58 22.62,-13.16 21.24,-12.74 19.27,-12.17 17.29,-11.60 16.90,-11.71 16.51,-11.82 16.15,-12.01 15.80,-12.21 15.50,-12.49 15.20,-12.76 14.98,-13.10 14.75,-13.44 14.62,-13.83 14.48,-14.21 14.44,-14.62 14.40,-15.02 14.46,-15.42 14.52,-15.83 14.67,-16.20 14.83,-16.58 15.07,-16.91 15.30,-17.24 15.62,-17.50 15.93,-17.77 16.29,-17.95 16.66,-18.13 17.05,-18.21 17.45,-18.30 17.86,-18.29 18.26,-18.28 18.79,-18.24 19.32,-18.19 21.07,-17.74 22.82,-17.28 24.65,-16.33 26.47,-15.39 27.54,-14.10 28.61,-12.81 29.55,-11.55 30.49,-10.28 30.78,-8.86 31.07,-7.45 30.50,-5.82 29.94,-4.19 29.28,-3.03 28.62,-1.86 27.25,-0.57 25.88,0.71 24.77,1.31 23.67,1.91 21.72,2.00 19.77,2.08 17.14,1.79 14.52,1.50 13.08,0.74 11.64,-0.01 10.66,-0.61 9.68,-1.20 9.05,-2.21 8.42,-3.22 8.42,-3.61 8.41,-4.00 8.50,-4.38 8.59,-4.76 8.76,-5.10 8.94,-5.45 9.19,-5.74 9.44,-6.04 9.76,-6.26 10.08,-6.49 10.44,-6.63 10.80,-6.78 11.18,-6.83 11.57,-6.88 11.95,-6.84 12.34,-6.80 12.70,-6.67 13.07,-6.54 13.39,-6.32 13.72,-6.10 13.98,-5.82 14.24,-5.53 14.43,-5.19 14.61,-4.85 14.71,-4.47 14.81,-4.10 14.55,-3.32 14.29,-2.54 14.83,-1.51 15.36,-0.49 15.66,1.83 15.96,4.16 15.94,5.66 15.91,7.15 15.34,8.87 14.77,10.59 13.91,11.26 13.05,11.93 11.11,11.73 9.17,11.54 8.09,11.46 7.00,11.38 6.08,10.82 5.15,10.27 3.97,9.00 2.79,7.73 1.95,6.82 1.12,5.90 0.46,4.75 -0.18,3.59 -1.03,2.73 -1.88,1.88 -2.07,1.62 -2.27,1.37 -2.40,1.08 -2.53,0.79 -2.59,0.47 -2.65,0.16 -2.63,-0.15 -2.61,-0.47 -2.52,-0.78 -2.42,-1.09 -2.25,-1.36 -2.09,-1.64 -1.86,-1.86 -1.64,-2.09 -1.36,-2.25 -1.09,-2.42 -0.78,-2.52 -0.47,-2.61 -0.15,-2.63 0.16,-2.65 0.47,-2.59 0.79,-2.53 1.08,-2.40 1.37,-2.27 1.62,-2.07 1.88,-1.88 1.88,-1.88 L 1.88,-1.88 Z"></path></g><g transform="translate(96 34) rotate(0 -4.5 9)" stroke="none"><path fill="#6b9080" d="M -1.47,2.21 Q -1.47,2.21 -2.35,1.66 -3.23,1.11 -4.54,0.56 -5.86,0.02 -6.87,0.67 -7.89,1.32 -8.37,2.71 -8.85,4.10 -9.16,5.90 -9.47,7.69 -9.64,9.50 -9.82,11.32 -9.87,12.55 -9.92,13.78 -8.90,14.68 -7.88,15.58 -6.37,16.72 -4.87,17.87 -3.55,17.80 -2.23,17.74 -1.03,17.40 0.17,17.06 0.39,15.44 0.61,13.83 0.63,12.10 0.65,10.36 0.19,8.79 -0.26,7.21 -1.20,6.53 -2.15,5.84 -2.71,4.26 -3.27,2.67 -3.52,2.33 -3.77,1.99 -3.92,1.60 -4.08,1.21 -4.14,0.80 -4.20,0.38 -4.16,-0.03 -4.12,-0.44 -3.98,-0.84 -3.84,-1.23 -3.61,-1.59 -3.38,-1.94 -3.07,-2.22 -2.76,-2.51 -2.39,-2.71 -2.02,-2.91 -1.62,-3.02 -1.21,-3.13 -0.79,-3.14 -0.37,-3.15 0.03,-3.06 0.44,-2.97 0.81,-2.78 1.19,-2.59 1.51,-2.32 1.83,-2.05 0.41,-2.60 -1.00,-3.16 -0.44,-3.11 0.11,-3.06 0.63,-2.84 1.15,-2.62 1.57,-2.24 1.99,-1.87 2.26,-1.38 2.54,-0.89 2.65,-0.33 2.75,0.21 2.68,0.77 2.60,1.33 2.35,1.83 2.10,2.34 1.70,2.74 1.31,3.13 0.80,3.39 0.30,3.64 -0.25,3.71 -0.81,3.79 -1.36,3.68 -1.92,3.58 -2.41,3.30 -2.90,3.02 -3.28,2.60 -3.65,2.18 -3.88,1.67 -4.10,1.15 -4.14,0.59 -4.19,0.03 -4.05,-0.51 -3.92,-1.06 -3.62,-1.53 -3.31,-2.01 -2.87,-2.36 -2.43,-2.72 -1.90,-2.91 -1.38,-3.10 -0.81,-3.12 -0.25,-3.14 0.28,-2.97 0.82,-2.80 1.28,-2.48 1.73,-2.15 2.06,-1.69 2.39,-1.23 2.56,-0.69 2.72,-0.15 2.71,0.40 2.69,0.96 2.50,1.49 2.30,2.02 1.95,2.46 1.60,2.90 1.12,3.20 0.65,3.51 -1.31,3.09 -3.27,2.67 -3.52,2.33 -3.77,1.99 -3.92,1.60 -4.08,1.21 -4.14,0.80 -4.20,0.38 -4.16,-0.03 -4.12,-0.44 -3.98,-0.84 -3.84,-1.23 -3.61,-1.59 -3.38,-1.94 -3.07,-2.22 -2.76,-2.51 -2.39,-2.71 -2.02,-2.91 -1.62,-3.02 -1.21,-3.13 -0.79,-3.14 -0.37,-3.15 0.03,-3.06 0.44,-2.97 0.81,-2.78 1.19,-2.59 1.51,-2.32 1.83,-2.05 2.53,-0.29 3.22,1.47 4.18,2.58 5.14,3.68 5.53,4.95 5.92,6.22 6.49,7.27 7.06,8.32 7.21,10.29 7.35,12.25 7.32,13.75 7.30,15.26 7.05,17.07 6.79,18.88 5.44,20.51 4.10,22.14 3.14,22.76 2.19,23.39 0.91,23.78 -0.36,24.16 -2.42,24.12 -4.47,24.09 -5.62,23.93 -6.77,23.77 -8.02,23.05 -9.28,22.34 -10.90,20.99 -12.53,19.65 -13.48,18.58 -14.44,17.51 -15.24,15.93 -16.04,14.34 -16.02,12.69 -16.01,11.03 -15.80,8.65 -15.59,6.27 -15.23,4.30 -14.87,2.33 -14.30,1.28 -13.74,0.24 -13.03,-0.94 -12.32,-2.12 -11.46,-2.97 -10.60,-3.82 -9.53,-4.42 -8.46,-5.03 -7.21,-5.35 -5.96,-5.67 -4.11,-5.14 -2.26,-4.61 -1.23,-4.01 -0.21,-3.41 0.63,-2.81 1.47,-2.21 1.72,-2.01 1.96,-1.80 2.15,-1.53 2.34,-1.27 2.46,-0.97 2.57,-0.68 2.62,-0.36 2.66,-0.04 2.63,0.27 2.60,0.59 2.49,0.89 2.38,1.20 2.20,1.46 2.02,1.73 1.78,1.95 1.55,2.17 1.26,2.32 0.98,2.47 0.67,2.56 0.36,2.64 0.04,2.64 -0.27,2.65 -0.59,2.58 -0.90,2.50 -1.19,2.36 -1.47,2.21 -1.47,2.21 L -1.47,2.21 Z"></path></g><g transform="translate(144 120) rotate(0 9 -17)" stroke="none"><path fill="#6b9080" d="M -2.57,0.42 Q -2.57,0.42 -2.79,-1.30 -3.01,-3.04 -3.18,-4.11 -3.35,-5.18 -3.44,-6.27 -3.54,-7.35 -4.02,-8.95 -4.51,-10.55 -4.28,-11.98 -4.06,-13.41 -3.64,-15.63 -3.23,-17.84 -2.69,-18.77 -2.15,-19.69 -1.32,-21.32 -0.48,-22.96 0.03,-24.21 0.56,-25.45 1.68,-26.87 2.81,-28.29 3.91,-29.57 5.02,-30.84 6.50,-31.80 7.99,-32.75 9.06,-33.36 10.14,-33.97 11.13,-34.44 12.12,-34.91 13.20,-35.47 14.29,-36.04 16.17,-36.19 18.05,-36.34 19.50,-35.63 20.94,-34.91 21.50,-33.87 22.06,-32.82 22.23,-30.74 22.41,-28.66 22.80,-27.11 23.19,-25.57 23.32,-24.23 23.45,-22.90 23.46,-21.54 23.47,-20.18 23.08,-17.81 22.68,-15.45 22.05,-13.25 21.42,-11.06 20.52,-9.75 19.62,-8.44 18.11,-6.70 16.59,-4.97 15.39,-3.73 14.18,-2.50 12.65,-1.38 11.11,-0.27 9.46,0.84 7.81,1.96 4.94,2.60 2.07,3.25 1.53,3.19 1.00,3.12 0.51,2.89 0.02,2.66 -0.36,2.28 -0.75,1.90 -0.99,1.42 -1.24,0.94 -1.32,0.41 -1.41,-0.11 -1.31,-0.65 -1.22,-1.18 -0.96,-1.66 -0.70,-2.13 -0.31,-2.50 0.08,-2.87 0.57,-3.09 1.07,-3.31 1.61,-3.36 2.14,-3.41 2.67,-3.29 3.20,-3.17 3.66,-2.89 4.12,-2.60 4.46,-2.19 4.81,-1.77 5.00,-1.27 5.20,-0.76 5.22,-0.22 5.24,0.31 5.09,0.83 4.94,1.35 4.64,1.79 4.33,2.24 3.89,2.56 3.46,2.88 2.95,3.05 2.43,3.21 1.89,3.21 1.35,3.20 0.84,3.02 0.33,2.85 -0.09,2.51 -0.51,2.18 -0.81,1.73 -1.11,1.28 -1.25,0.76 -1.39,0.24 -1.35,-0.29 -1.32,-0.83 -1.11,-1.33 -0.91,-1.83 -0.55,-2.24 -0.20,-2.65 0.26,-2.92 0.72,-3.20 1.25,-3.31 1.78,-3.42 1.78,-3.42 1.78,-3.42 2.25,-3.00 2.71,-2.58 3.72,-3.07 4.73,-3.56 5.74,-4.41 6.76,-5.27 8.10,-6.21 9.44,-7.15 10.57,-8.33 11.71,-9.51 12.73,-10.70 13.74,-11.90 14.78,-13.75 15.82,-15.61 16.18,-16.99 16.55,-18.38 16.52,-20.02 16.48,-21.67 16.47,-23.03 16.45,-24.39 15.98,-26.43 15.50,-28.47 16.35,-29.42 17.20,-30.37 16.36,-29.68 15.53,-29.00 14.30,-28.35 13.07,-27.70 11.67,-27.23 10.28,-26.75 9.01,-25.42 7.74,-24.08 6.94,-23.18 6.15,-22.27 5.46,-21.30 4.77,-20.32 4.21,-19.29 3.65,-18.25 2.99,-16.99 2.32,-15.73 2.01,-14.66 1.70,-13.59 1.36,-11.95 1.02,-10.30 1.35,-8.98 1.69,-7.66 1.77,-5.75 1.86,-3.85 2.21,-2.14 2.57,-0.42 2.58,-0.11 2.60,0.19 2.54,0.50 2.47,0.81 2.34,1.10 2.21,1.38 2.01,1.63 1.81,1.87 1.56,2.06 1.31,2.25 1.02,2.38 0.73,2.50 0.42,2.55 0.11,2.60 -0.19,2.58 -0.51,2.56 -0.81,2.46 -1.10,2.36 -1.37,2.19 -1.64,2.02 -1.86,1.80 -2.08,1.57 -2.23,1.30 -2.39,1.03 -2.48,0.73 -2.57,0.42 -2.57,0.42 L -2.57,0.42 Z"></path></g><g transform="translate(100 125) rotate(0 -12 1.5)" stroke="none"><path fill="#6b9080" d="M -0.84,2.52 Q -0.84,2.52 -1.70,2.27 -2.57,2.02 -4.72,1.55 -6.87,1.08 -8.12,1.05 -9.37,1.01 -10.94,1.43 -12.52,1.85 -14.75,2.39 -16.97,2.92 -18.63,3.88 -20.28,4.84 -20.44,4.70 -20.60,4.55 -20.85,4.87 -21.10,5.18 -21.42,5.43 -21.74,5.67 -22.11,5.84 -22.48,6.00 -22.88,6.07 -23.28,6.14 -23.68,6.11 -24.08,6.08 -24.46,5.96 -24.85,5.83 -25.19,5.62 -25.53,5.41 -25.82,5.12 -26.10,4.84 -26.30,4.49 -26.51,4.14 -26.63,3.76 -26.74,3.37 -26.76,2.97 -26.78,2.57 -26.71,2.17 -26.63,1.77 -26.46,1.41 -26.29,1.04 -24.11,0.44 -21.92,-0.15 -19.97,0.23 -18.01,0.61 -16.98,1.10 -15.95,1.59 -14.37,1.62 -12.79,1.64 -11.07,1.68 -9.34,1.72 -7.80,1.72 -6.27,1.72 -4.92,1.34 -3.57,0.96 -3.51,1.06 -3.46,1.16 -3.33,0.64 -3.19,0.11 -2.90,-0.33 -2.60,-0.79 -2.18,-1.12 -1.75,-1.46 -1.24,-1.65 -0.73,-1.83 -0.19,-1.84 0.34,-1.85 0.86,-1.69 1.37,-1.53 1.81,-1.21 2.25,-0.89 2.57,-0.45 2.88,-0.00 3.03,0.51 3.19,1.03 3.17,1.57 3.15,2.11 2.96,2.62 2.77,3.12 2.43,3.55 2.09,3.97 1.63,4.25 1.17,4.54 0.64,4.67 0.12,4.80 -0.41,4.75 -0.95,4.70 -1.45,4.49 -1.95,4.27 -2.35,3.90 -2.75,3.54 -3.01,3.07 -3.28,2.59 -3.38,2.06 -3.47,1.53 -3.40,0.99 -3.32,0.45 -3.08,-0.02 -2.83,-0.51 -2.45,-0.89 -2.06,-1.27 -1.57,-1.51 -1.09,-1.74 -0.55,-1.81 -0.01,-1.88 0.51,-1.78 1.04,-1.67 1.51,-1.40 1.98,-1.13 2.34,-0.73 2.70,-0.32 2.91,0.17 3.12,0.67 3.17,1.21 3.21,1.75 3.21,1.75 3.21,1.75 1.08,4.24 -1.04,6.73 -1.98,7.31 -2.92,7.89 -4.60,8.08 -6.28,8.27 -7.85,8.25 -9.42,8.24 -11.26,8.20 -13.10,8.17 -14.56,8.15 -16.03,8.13 -17.83,7.62 -19.62,7.11 -20.67,6.74 -21.72,6.36 -23.09,6.17 -24.46,5.98 -22.53,5.27 -20.60,4.55 -20.85,4.87 -21.10,5.18 -21.42,5.43 -21.74,5.67 -22.11,5.84 -22.48,6.00 -22.88,6.07 -23.28,6.14 -23.68,6.11 -24.08,6.08 -24.46,5.96 -24.85,5.84 -25.19,5.62 -25.53,5.41 -25.82,5.12 -26.10,4.84 -26.30,4.49 -26.51,4.14 -26.63,3.76 -26.74,3.37 -26.76,2.97 -26.78,2.57 -26.71,2.17 -26.63,1.77 -26.46,1.41 -26.29,1.04 -25.73,0.77 -25.17,0.49 -24.07,-0.06 -22.98,-0.61 -21.59,-1.50 -20.21,-2.39 -18.49,-2.80 -16.78,-3.21 -15.05,-3.71 -13.32,-4.21 -11.19,-4.57 -9.07,-4.93 -7.75,-4.76 -6.43,-4.58 -5.15,-4.05 -3.87,-3.53 -2.37,-3.35 -0.87,-3.17 -0.01,-2.85 0.84,-2.52 1.13,-2.39 1.42,-2.25 1.67,-2.05 1.92,-1.84 2.11,-1.59 2.30,-1.33 2.43,-1.03 2.56,-0.74 2.61,-0.42 2.66,-0.10 2.63,0.21 2.61,0.53 2.51,0.83 2.40,1.14 2.23,1.41 2.06,1.68 1.83,1.90 1.60,2.13 1.32,2.29 1.04,2.45 0.73,2.54 0.42,2.63 0.10,2.64 -0.21,2.65 -0.52,2.59 -0.84,2.52 -0.84,2.52 L -0.84,2.52 Z"></path></g><g transform="translate(52 147.99999999999955) rotate(0 4 12.5)" stroke="none"><path fill="#6b9080" d="M 2.52,0.84 Q 2.52,0.84 2.27,1.71 2.01,2.58 2.35,3.59 2.69,4.61 2.84,6.23 2.99,7.86 3.43,9.06 3.88,10.26 4.36,11.29 4.85,12.31 5.37,13.33 5.90,14.34 6.42,15.34 6.94,16.34 7.94,17.73 8.94,19.13 9.63,20.14 10.32,21.16 10.87,21.55 11.42,21.93 11.63,22.29 11.84,22.64 11.96,23.04 12.08,23.44 12.11,23.85 12.13,24.26 12.05,24.67 11.97,25.08 11.80,25.46 11.63,25.83 11.37,26.16 11.11,26.48 10.79,26.74 10.46,26.99 10.08,27.16 9.70,27.32 9.29,27.40 8.88,27.47 8.47,27.44 8.06,27.41 7.66,27.29 7.27,27.16 6.91,26.95 6.56,26.73 6.27,26.43 5.98,26.14 5.29,24.46 4.61,22.77 4.97,21.35 5.34,19.93 5.41,18.78 5.48,17.62 5.48,16.17 5.47,14.73 5.30,13.55 5.12,12.38 4.67,10.79 4.23,9.20 3.14,8.11 2.04,7.02 1.19,5.70 0.33,4.39 -0.35,3.96 -1.05,3.53 -1.46,3.13 -1.86,2.74 -2.12,2.23 -2.38,1.73 -2.46,1.17 -2.55,0.61 -2.45,0.05 -2.35,-0.50 -2.08,-0.99 -1.80,-1.49 -1.39,-1.87 -0.97,-2.26 -0.45,-2.49 0.05,-2.72 0.62,-2.77 1.18,-2.83 1.73,-2.70 2.28,-2.57 2.76,-2.27 3.25,-1.97 3.61,-1.53 3.97,-1.10 4.17,-0.57 4.37,-0.04 4.40,0.52 4.42,1.08 4.26,1.63 4.10,2.17 3.78,2.63 3.45,3.10 3.00,3.44 2.54,3.77 2.00,3.95 1.46,4.12 0.90,4.11 0.33,4.10 -0.20,3.92 -0.73,3.73 -1.18,3.38 -1.62,3.03 -1.93,2.56 -2.24,2.08 -2.39,1.53 -2.53,0.99 -2.49,0.42 -2.46,-0.13 -2.24,-0.66 -2.02,-1.18 -1.65,-1.61 -1.28,-2.03 -0.79,-2.32 -0.30,-2.60 0.25,-2.72 0.80,-2.83 1.36,-2.76 1.93,-2.69 2.44,-2.45 2.95,-2.20 2.95,-2.20 2.95,-2.20 5.14,0.18 7.32,2.57 7.87,3.49 8.41,4.40 9.45,5.76 10.49,7.11 11.11,8.71 11.72,10.30 12.10,11.71 12.49,13.11 12.48,14.96 12.48,16.81 12.43,17.96 12.38,19.11 11.90,20.52 11.42,21.93 11.63,22.29 11.84,22.64 11.96,23.04 12.08,23.44 12.11,23.85 12.13,24.26 12.05,24.67 11.97,25.08 11.80,25.46 11.63,25.83 11.37,26.16 11.11,26.48 10.79,26.73 10.46,26.99 10.08,27.16 9.70,27.32 9.29,27.40 8.89,27.47 8.47,27.44 8.06,27.41 7.66,27.29 7.27,27.16 6.92,26.95 6.56,26.73 6.27,26.43 5.98,26.14 6.58,26.49 7.18,26.84 5.48,25.17 3.78,23.50 3.12,22.35 2.46,21.21 1.94,20.15 1.42,19.09 0.60,17.53 -0.21,15.97 -0.75,14.76 -1.28,13.55 -1.73,12.08 -2.18,10.62 -2.63,8.86 -3.08,7.10 -3.24,5.97 -3.40,4.85 -3.28,2.86 -3.16,0.86 -2.84,0.01 -2.52,-0.84 -2.38,-1.13 -2.25,-1.42 -2.04,-1.67 -1.84,-1.92 -1.58,-2.11 -1.33,-2.30 -1.03,-2.43 -0.74,-2.55 -0.42,-2.60 -0.10,-2.66 0.21,-2.63 0.53,-2.61 0.83,-2.50 1.14,-2.40 1.41,-2.23 1.68,-2.06 1.90,-1.83 2.12,-1.60 2.28,-1.32 2.45,-1.04 2.53,-0.73 2.62,-0.42 2.64,-0.10 2.65,0.21 2.59,0.52 2.52,0.84 2.52,0.84 L 2.52,0.84 Z"></path></g><g transform="translate(36 144.99999999999955) rotate(0 -3 -18.5)" stroke="none"><path fill="#6b9080" d="M -2.06,1.55 Q -2.06,1.55 -2.92,0.39 -3.77,-0.76 -4.70,-2.17 -5.64,-3.59 -6.18,-4.61 -6.73,-5.63 -7.73,-7.45 -8.74,-9.26 -9.54,-10.73 -10.35,-12.19 -10.61,-13.60 -10.87,-15.01 -10.89,-16.18 -10.91,-17.35 -10.85,-18.98 -10.78,-20.61 -10.42,-22.40 -10.06,-24.19 -9.92,-25.59 -9.78,-26.98 -9.40,-28.25 -9.02,-29.53 -8.49,-31.03 -7.96,-32.54 -7.60,-34.11 -7.23,-35.67 -6.63,-36.68 -6.04,-37.68 -3.98,-38.33 -1.93,-38.98 -0.66,-38.36 0.60,-37.74 1.29,-36.72 1.99,-35.70 2.72,-34.10 3.46,-32.51 3.88,-31.41 4.30,-30.32 4.52,-29.08 4.73,-27.84 4.81,-26.73 4.89,-25.63 4.90,-24.29 4.90,-22.95 4.96,-21.45 5.02,-19.96 5.07,-18.87 5.11,-17.78 5.14,-16.47 5.17,-15.17 5.20,-13.99 5.24,-12.81 4.77,-10.99 4.30,-9.16 3.92,-8.01 3.54,-6.86 2.63,-5.41 1.71,-3.95 1.85,-3.48 2.00,-3.01 2.23,-2.52 2.46,-2.03 2.52,-1.49 2.58,-0.95 2.47,-0.42 2.36,0.10 2.08,0.57 1.80,1.04 1.39,1.39 0.98,1.75 0.47,1.95 -0.02,2.15 -0.56,2.19 -1.10,2.22 -1.63,2.08 -2.15,1.94 -2.60,1.63 -3.06,1.33 -3.39,0.90 -3.72,0.47 -3.89,-0.03 -4.07,-0.55 -4.07,-1.09 -4.08,-1.63 -3.91,-2.15 -3.74,-2.67 -3.41,-3.10 -3.08,-3.53 -2.64,-3.84 -2.19,-4.15 -1.67,-4.30 -1.14,-4.45 -0.60,-4.42 -0.06,-4.39 0.44,-4.20 0.94,-4.00 1.36,-3.65 1.78,-3.30 2.06,-2.84 2.34,-2.37 2.46,-1.84 2.58,-1.31 2.53,-0.77 2.47,-0.23 2.24,0.25 2.02,0.75 1.65,1.14 1.28,1.54 0.80,1.80 0.32,2.06 -0.21,2.15 -0.74,2.24 -1.28,2.15 -1.81,2.07 -2.30,1.82 -2.78,1.56 -3.15,1.17 -3.53,0.78 -3.53,0.78 -3.53,0.78 -3.79,-2.04 -4.04,-4.87 -3.39,-6.49 -2.74,-8.11 -2.39,-9.32 -2.04,-10.53 -1.64,-11.67 -1.24,-12.81 -1.21,-13.99 -1.17,-15.17 -1.15,-16.47 -1.12,-17.77 -1.08,-18.84 -1.03,-19.92 -1.01,-21.38 -0.98,-22.83 -1.06,-24.91 -1.14,-26.99 -1.43,-28.40 -1.72,-29.80 -2.59,-31.98 -3.46,-34.16 -2.35,-34.23 -1.24,-34.30 -1.81,-33.28 -2.38,-32.26 -2.95,-30.81 -3.52,-29.37 -4.04,-27.94 -4.57,-26.52 -4.67,-24.87 -4.77,-23.22 -4.98,-21.92 -5.19,-20.62 -5.10,-18.03 -5.01,-15.44 -4.98,-14.37 -4.95,-13.31 -4.05,-11.42 -3.14,-9.54 -2.35,-7.97 -1.57,-6.41 -0.62,-5.12 0.32,-3.83 1.19,-2.69 2.06,-1.55 2.22,-1.28 2.37,-1.01 2.46,-0.71 2.55,-0.41 2.56,-0.10 2.57,0.21 2.51,0.51 2.45,0.82 2.31,1.10 2.18,1.38 1.98,1.62 1.78,1.86 1.53,2.05 1.29,2.24 1.00,2.36 0.71,2.48 0.40,2.53 0.10,2.58 -0.20,2.55 -0.51,2.53 -0.81,2.43 -1.11,2.33 -1.37,2.16 -1.63,2.00 -1.85,1.77 -2.06,1.55 -2.06,1.55 L -2.06,1.55 Z"></path></g><g transform="translate(124 138.99999999999955) rotate(0 7.5 6.5)" stroke="none"><path fill="#6b9080" d="M 0.84,-2.52 Q 0.84,-2.52 1.71,-2.26 2.58,-2.01 4.35,-1.60 6.12,-1.18 7.18,-0.66 8.23,-0.13 9.52,0.71 10.81,1.56 12.12,2.35 13.44,3.14 14.36,4.44 15.28,5.73 16.75,6.61 18.22,7.50 19.04,8.31 19.87,9.12 19.69,10.89 19.51,12.65 18.94,13.59 18.37,14.52 17.07,15.29 15.76,16.05 14.60,16.20 13.43,16.34 11.69,16.37 9.94,16.39 7.93,15.62 5.92,14.85 4.81,14.20 3.70,13.55 2.30,12.84 0.91,12.13 0.19,11.18 -0.52,10.23 -1.60,9.16 -2.68,8.10 -3.72,7.08 -4.77,6.06 -4.26,3.04 -3.76,0.02 -3.44,-0.40 -3.12,-0.83 -2.67,-1.14 -2.23,-1.45 -1.71,-1.60 -1.20,-1.75 -0.66,-1.73 -0.12,-1.70 0.38,-1.51 0.88,-1.32 1.29,-0.97 1.71,-0.63 1.99,-0.17 2.28,0.28 2.40,0.80 2.52,1.33 2.47,1.86 2.42,2.40 2.20,2.89 1.98,3.39 1.61,3.78 1.24,4.18 0.77,4.44 0.30,4.69 -0.22,4.79 -0.75,4.88 -1.29,4.80 -1.82,4.72 -2.30,4.47 -2.78,4.23 -3.16,3.84 -3.53,3.45 -3.76,2.97 -4.00,2.48 -4.06,1.94 -4.12,1.41 -4.02,0.88 -3.91,0.35 -3.63,-0.10 -3.36,-0.57 -2.95,-0.92 -2.55,-1.28 -2.05,-1.48 -1.55,-1.69 -1.01,-1.72 -0.47,-1.76 0.04,-1.62 0.56,-1.48 1.01,-1.19 1.46,-0.89 1.79,-0.46 2.12,-0.04 2.30,0.46 2.48,0.97 2.48,1.51 2.49,2.05 2.33,2.56 2.16,3.07 2.16,3.07 2.16,3.07 1.27,2.80 0.37,2.52 1.37,3.55 2.38,4.59 3.71,5.93 5.04,7.28 6.68,8.05 8.32,8.83 9.77,9.18 11.22,9.53 12.80,9.22 14.38,8.92 13.79,10.37 13.20,11.82 11.91,10.49 10.62,9.16 9.53,8.03 8.44,6.90 7.68,6.09 6.93,5.29 5.71,4.73 4.49,4.18 2.68,3.67 0.86,3.16 0.01,2.84 -0.84,2.52 -1.13,2.38 -1.42,2.24 -1.66,2.04 -1.91,1.84 -2.11,1.58 -2.30,1.33 -2.42,1.03 -2.55,0.74 -2.60,0.42 -2.65,0.10 -2.63,-0.21 -2.60,-0.53 -2.50,-0.83 -2.40,-1.13 -2.23,-1.41 -2.06,-1.68 -1.83,-1.90 -1.59,-2.12 -1.32,-2.28 -1.04,-2.44 -0.73,-2.53 -0.42,-2.62 -0.10,-2.63 0.21,-2.65 0.52,-2.58 0.84,-2.52 0.84,-2.52 L 0.84,-2.52 Z"></path></g><g transform="translate(119.27685546875 137.99999999999955) rotate(0 1 -10.5)" stroke="none"><path fill="#6b9080" d="M -2.35,1.17 Q -2.35,1.17 -2.93,0.02 -3.51,-1.12 -4.07,-2.58 -4.63,-4.05 -5.11,-5.84 -5.58,-7.63 -5.72,-8.87 -5.86,-10.12 -5.95,-11.97 -6.03,-13.82 -6.05,-15.09 -6.07,-16.36 -5.63,-17.56 -5.19,-18.75 -4.76,-19.83 -4.33,-20.92 -1.38,-22.39 1.56,-23.86 2.62,-22.93 3.69,-22.00 4.73,-20.50 5.77,-19.01 6.40,-16.97 7.02,-14.92 7.50,-12.93 7.99,-10.94 8.02,-9.63 8.04,-8.32 7.61,-7.14 7.18,-5.95 6.88,-3.95 6.57,-1.95 3.90,0.65 1.22,3.26 0.71,3.16 0.20,3.07 -0.25,2.81 -0.71,2.55 -1.06,2.16 -1.41,1.78 -1.61,1.30 -1.82,0.82 -1.87,0.29 -1.91,-0.22 -1.78,-0.73 -1.66,-1.23 -1.38,-1.68 -1.10,-2.12 -0.69,-2.45 -0.28,-2.77 0.20,-2.96 0.69,-3.14 1.21,-3.15 1.73,-3.17 2.23,-3.02 2.74,-2.86 3.16,-2.56 3.59,-2.25 3.89,-1.83 4.20,-1.41 4.35,-0.91 4.51,-0.41 4.50,0.11 4.48,0.63 4.30,1.12 4.12,1.61 3.80,2.02 3.47,2.43 3.03,2.71 2.59,3.00 2.08,3.12 1.57,3.25 1.05,3.21 0.53,3.17 0.05,2.96 -0.42,2.76 -0.81,2.41 -1.20,2.06 -1.46,1.60 -1.72,1.15 -1.82,0.64 -1.92,0.12 -1.85,-0.39 -1.78,-0.91 -1.55,-1.37 -1.32,-1.84 -0.95,-2.21 -0.58,-2.59 -0.11,-2.82 0.35,-3.05 0.87,-3.12 1.39,-3.20 1.39,-3.20 1.38,-3.20 0.69,-2.44 0.00,-1.69 0.38,-3.52 0.77,-5.35 1.27,-6.98 1.76,-8.61 1.58,-9.95 1.39,-11.29 0.91,-13.02 0.43,-14.76 -0.32,-16.10 -1.07,-17.44 -1.79,-18.44 -2.50,-19.44 -0.33,-19.33 1.82,-19.22 0.95,-17.60 0.07,-15.99 0.05,-14.91 0.04,-13.83 0.00,-12.56 -0.03,-11.28 -0.08,-9.86 -0.12,-8.43 0.04,-7.19 0.20,-5.95 0.71,-4.71 1.21,-3.47 1.78,-2.32 2.35,-1.17 2.45,-0.87 2.56,-0.57 2.59,-0.26 2.62,0.05 2.58,0.36 2.54,0.67 2.42,0.97 2.30,1.26 2.11,1.52 1.93,1.78 1.69,1.98 1.45,2.19 1.16,2.33 0.88,2.47 0.57,2.54 0.26,2.61 -0.05,2.60 -0.36,2.60 -0.67,2.52 -0.98,2.43 -1.25,2.28 -1.53,2.13 -1.76,1.91 -2.00,1.70 -2.17,1.44 -2.35,1.17 -2.35,1.17 L -2.35,1.17 Z"></path></g></svg>